<svg width="15" height="15" viewBox="0 0 15 15" fill="none" xmlns="http://www.w3.org/2000/svg">
<path fill-rule="evenodd" clip-rule="evenodd" d="M7.50961 13.9993C5.59391 13.9993 3.67821 14.0003 1.76216 13.999C1.17047 13.9986 1 13.8353 1 13.2663C0.999645 12.1696 1.5306 11.3618 2.52787 10.9156C3.13305 10.6451 3.81566 10.5378 4.46452 10.361C4.6176 10.3192 4.77955 10.306 4.93049 10.2586C5.79209 9.98742 5.77611 10.0905 5.53531 9.18172C5.4 8.67111 5.01892 8.20202 4.67371 7.77097C4.27878 7.27801 3.97086 6.76947 3.89663 6.14297C3.8874 6.06617 3.85153 5.97277 3.88243 5.91431C4.26528 5.19025 3.95381 4.41327 4.06711 3.66534C4.15625 3.07482 4.35549 2.5739 4.76712 2.13801C4.86265 2.03699 4.92942 1.87959 4.94398 1.74191C4.98838 1.31847 5.19294 1.06248 5.63227 1.02927C6.99038 0.92756 8.30764 1.08047 9.55814 1.65335C10.3356 2.00932 10.7806 2.60019 10.8992 3.41004C10.9628 3.84177 10.9297 4.28596 10.961 4.72323C10.983 5.03631 11.0278 5.34938 11.0842 5.65865C11.21 6.34639 10.9645 6.93345 10.5714 7.47554C10.4034 7.70732 10.1953 7.91212 10.0071 8.12971C9.62704 8.56941 9.42496 9.07829 9.36209 9.64874C9.33546 9.89125 9.39441 10.0587 9.64977 10.121C10.0866 10.2278 10.5217 10.3444 10.9628 10.4302C11.8084 10.5935 12.61 10.836 13.2507 11.4386C13.8754 12.0261 14.075 12.748 13.9759 13.5645C13.9351 13.9004 13.6932 14.0007 13.3775 14C12.4196 13.9976 11.4614 13.9996 10.5036 13.9996C9.50522 13.9996 8.50759 13.9993 7.50961 13.9993ZM5.50335 1.61218C5.73065 2.09546 5.4451 2.31306 5.19721 2.5777C4.9969 2.79115 4.78274 3.06098 4.73906 3.33082C4.65134 3.87498 4.65311 4.43679 4.66234 4.99064C4.66732 5.29507 4.79837 5.59535 4.52064 5.86276C4.46097 5.92053 4.46452 6.10077 4.50998 6.19071C4.72379 6.61345 4.90243 7.07183 5.20395 7.42953C5.78676 8.12003 6.23248 8.8382 6.23603 9.7636C6.23816 10.2835 6.15328 10.47 5.63724 10.6326C5.12191 10.7952 4.58989 10.9145 4.05787 11.019C3.398 11.1491 2.76405 11.3297 2.25795 11.7846C1.77601 12.2174 1.52776 12.7442 1.61726 13.4022C1.71031 13.4202 1.76145 13.4382 1.81259 13.4382C5.57687 13.4406 9.34114 13.4399 13.1054 13.4458C13.3633 13.4461 13.4737 13.3078 13.4116 13.1137C13.2876 12.7273 13.1789 12.3056 12.9353 11.9932C12.453 11.3736 11.7058 11.1778 10.9528 11.0197C10.3839 10.9 9.82024 10.7533 9.26229 10.5901C8.92135 10.4904 8.78213 10.2434 8.77467 9.87879C8.75514 8.93887 9.13124 8.16812 9.77016 7.49906C10.1395 7.1123 10.44 6.69198 10.5092 6.15439C10.5249 6.03504 10.484 5.90739 10.4631 5.78458C10.4233 5.55141 10.353 5.32032 10.3423 5.08612C10.3185 4.55891 10.3601 4.02616 10.3054 3.50275C10.2475 2.94855 9.95626 2.5137 9.42424 2.24318C8.70577 1.87752 7.94006 1.67618 7.1399 1.61875C6.61995 1.58208 6.09574 1.61218 5.50335 1.61218Z" fill="#575757" stroke="#575757" stroke-width="0.6"/>
</svg>
