<svg width="22" height="19" viewBox="0 0 22 19" fill="none" xmlns="http://www.w3.org/2000/svg">
<path fill-rule="evenodd" clip-rule="evenodd" d="M11.0148 18.4874C8.06756 18.4874 5.12033 18.4888 2.17255 18.487C1.26227 18.4865 1 18.2668 1 17.5013C0.999454 16.026 1.81631 14.9394 3.35057 14.339C4.28162 13.9751 5.33178 13.8308 6.33004 13.593C6.56553 13.5367 6.81468 13.519 7.0469 13.4553C8.37244 13.0904 8.34786 13.2291 7.9774 12.0065C7.76923 11.3196 7.18295 10.6886 6.65186 10.1087C6.04428 9.44555 5.57055 8.76144 5.45636 7.91863C5.44215 7.81532 5.38697 7.68966 5.4345 7.61102C6.02351 6.63697 5.54433 5.59173 5.71863 4.58557C5.85577 3.79117 6.1623 3.1173 6.79556 2.53092C6.94254 2.39503 7.04526 2.18328 7.06767 1.99806C7.13596 1.42843 7.45068 1.08405 8.12657 1.03937C10.216 0.902549 12.2425 1.10825 14.1664 1.87892C15.3624 2.3578 16.047 3.15267 16.2295 4.24212C16.3273 4.82292 16.2765 5.42047 16.3246 6.00871C16.3585 6.42988 16.4273 6.85105 16.5142 7.2671C16.7076 8.19228 16.3301 8.98203 15.7252 9.71128C15.4668 10.0231 15.1466 10.2986 14.857 10.5913C14.2724 11.1828 13.9615 11.8674 13.8648 12.6348C13.8238 12.961 13.9145 13.1863 14.3073 13.27C14.9794 13.4138 15.6487 13.5707 16.3273 13.6861C17.6283 13.9058 18.8615 14.232 19.8472 15.0427C20.8083 15.8329 21.1154 16.8041 20.9629 17.9024C20.9001 18.3543 20.528 18.4893 20.0422 18.4884C18.5686 18.4851 17.0945 18.4879 15.6209 18.4879C14.085 18.4879 12.5501 18.4874 11.0148 18.4874ZM7.92823 1.82354C8.27792 2.47368 7.83862 2.7664 7.45724 3.12242C7.14908 3.40956 6.8196 3.77255 6.7524 4.13555C6.61744 4.86759 6.62017 5.62337 6.63438 6.36845C6.64202 6.77798 6.84364 7.18193 6.41637 7.54167C6.32457 7.61939 6.33004 7.86186 6.39998 7.98285C6.7289 8.55155 7.00374 9.16818 7.46762 9.64938C8.36425 10.5783 9.04997 11.5444 9.05543 12.7893C9.05871 13.4888 8.92812 13.7396 8.13422 13.9583C7.34141 14.1771 6.52291 14.3376 5.70442 14.4782C4.68923 14.6532 3.71392 14.8961 2.93531 15.5081C2.19386 16.0903 1.81194 16.799 1.94963 17.6842C2.09278 17.7084 2.17146 17.7326 2.25014 17.7326C8.04133 17.7358 13.8325 17.7349 19.6237 17.7428C20.0204 17.7433 20.1903 17.5571 20.0947 17.2961C19.904 16.7762 19.7368 16.2089 19.362 15.7887C18.62 14.9552 17.4704 14.6918 16.312 14.4791C15.4367 14.3181 14.5696 14.1208 13.7112 13.9011C13.1867 13.7671 12.9725 13.4348 12.961 12.9443C12.931 11.6798 13.5096 10.643 14.4926 9.74293C15.0608 9.22263 15.5231 8.65719 15.6296 7.93399C15.6536 7.77343 15.5908 7.60171 15.5586 7.4365C15.4974 7.12283 15.3892 6.81196 15.3728 6.49689C15.3362 5.78765 15.4001 5.07097 15.316 4.36684C15.2269 3.6213 14.7789 3.03632 13.9604 2.67239C12.855 2.18049 11.677 1.90963 10.446 1.83238C9.64608 1.78305 8.83961 1.82354 7.92823 1.82354Z" fill="#575757" stroke="#575757"/>
</svg>
