<svg xmlns="http://www.w3.org/2000/svg" viewBox="0 0 23 23"><path d="M17.002 1.499c2.48 0 4.498 2.02 4.498 4.501v11c0 2.481-2.018 4.5-4.498 4.5H6.01A4.504 4.504 0 0 1 1.512 17V6c0-2.481 2.018-4.5 4.498-4.5h10.992m0-1.5H6.01C2.71 0 .013 2.699.013 6v11.001C.013 20.299 2.71 23 6.01 23h10.995C20.301 23 23 20.299 23 16.999V6c0-3.301-2.699-6-5.998-6z"/><path d="M11.506 7.078a4.434 4.434 0 0 1 4.429 4.428c0 2.44-1.989 4.43-4.429 4.43a4.434 4.434 0 0 1-4.428-4.43 4.431 4.431 0 0 1 4.428-4.428m0-1.5a5.929 5.929 0 0 0 0 11.855c3.274 0 5.926-2.653 5.926-5.927s-2.652-5.928-5.926-5.928z"/><circle cx="17.646" cy="5.379" r="1.341"/></svg>
