<svg width="236" height="236" viewBox="0 0 236 236" fill="none" xmlns="http://www.w3.org/2000/svg">
<g opacity="0.5">
<path d="M236 0H0V236H236V0Z" fill="white"/>
<path d="M196.057 82.4949L141.496 137.225L74.6709 81.5904L126.204 22.4852L196.057 82.4949Z" fill="#A0A0A0"/>
<path d="M199.086 109.292L128.37 140.443L86.3238 64.3216L155.799 27.9751L199.086 109.292Z" fill="#E5E5E5"/>
<path d="M158.588 147.637C176.458 116.412 165.632 76.6138 134.408 58.744C103.183 40.8743 63.3846 51.7004 45.5149 82.9247C27.6452 114.149 38.4712 153.948 69.6956 171.817C100.92 189.687 140.718 178.861 158.588 147.637Z" fill="#8E8E8E"/>
<path d="M51.8493 188.127L84.4308 115.14L80.3713 113.183L43.3516 184.067C42.1527 186.423 43.1203 189.305 45.4971 190.462C47.895 191.619 50.7556 190.567 51.8493 188.127Z" fill="#E2E2E2"/>
<path d="M101.836 109.816C107.075 98.9429 105.002 87.0825 97.2053 83.3256C89.4085 79.5687 78.8406 85.338 73.6011 96.2116C68.3616 107.085 70.4347 118.946 78.2315 122.702C86.0283 126.459 96.5963 120.69 101.836 109.816Z" fill="#F2F2F2"/>
<path opacity="0.2" d="M96.5971 107.491C100.409 99.5791 99.4616 91.2194 94.48 88.819C89.4985 86.4186 82.3696 90.8866 78.5572 98.7985C74.7449 106.71 75.6927 115.07 80.6742 117.471C85.6558 119.871 92.7847 115.403 96.5971 107.491Z" fill="#B3B3B3"/>
<path d="M165.79 206.868L133.167 133.902L128.981 135.626L157.103 210.486C158.05 212.947 160.847 214.167 163.308 213.157C165.748 212.148 166.884 209.308 165.79 206.868Z" fill="#E2E2E2"/>
<path d="M128.539 105.211L134.66 120.04C135.08 121.071 134.596 122.228 133.566 122.649C132.535 123.069 131.378 122.585 130.958 121.555L124.037 104.812C123.785 104.181 123.154 103.781 122.481 103.823C121.366 103.865 120.63 105.001 121.072 106.053L128.118 123.111C128.476 123.974 128.055 124.962 127.214 125.299L126.562 125.572C125.741 125.909 124.795 125.53 124.458 124.689L117.496 107.841C117.033 106.705 115.561 106.431 114.698 107.294C114.215 107.778 114.067 108.514 114.341 109.145L121.345 126.119C121.661 126.876 121.303 127.739 120.546 128.054L119.578 128.454C118.821 128.769 117.959 128.412 117.643 127.655L111.543 112.847C111.291 112.237 110.429 112.321 110.26 112.931C109.019 117.748 109.44 123.637 111.817 129.4C116.423 140.569 126.646 146.922 134.639 143.64C142.631 140.338 145.387 128.622 140.78 117.453C138.277 111.416 134.134 106.768 129.59 104.307C128.938 103.97 128.265 104.58 128.539 105.211Z" fill="#F2F2F2"/>
</g>
</svg>
