<svg width="44" height="44" fill="none" xmlns="http://www.w3.org/2000/svg"><path d="M.88 34.423H26.4v8.594l5.28-3.168 5.28 3.168v-8.594h6.16V.983H.88v33.44zm34.553-5.972c-.08.08-.164.154-.247.229-.048.042-.092.087-.141.128-.055.045-.113.084-.169.127a5.243 5.243 0 0 1-2.612 1.054c-.016.001-.032.005-.048.007a5.431 5.431 0 0 1-1.076 0c-.015-.002-.031-.006-.048-.007a5.246 5.246 0 0 1-2.612-1.054c-.056-.043-.114-.082-.169-.127-.048-.04-.093-.086-.14-.128-.084-.075-.168-.149-.248-.229a5.262 5.262 0 0 1-1.527-3.708 5.285 5.285 0 0 1 5.28-5.28 5.285 5.285 0 0 1 5.28 5.28 5.244 5.244 0 0 1-1.523 3.708zM35.2 39.91l-3.52-2.112-3.52 2.112v-9.07c.03.018.063.03.094.046.233.13.473.25.722.354l.033.012a6.997 6.997 0 0 0 5.343 0l.034-.012c.248-.104.488-.223.721-.354.031-.017.065-.028.095-.046v9.068H35.2zM2.64 2.743h38.72v29.92h-4.4v-3.279a7.002 7.002 0 0 0 1.76-4.641 7.048 7.048 0 0 0-7.04-7.04 7.048 7.048 0 0 0-7.04 7.04c0 1.778.668 3.4 1.76 4.641v3.279H2.64V2.743z" fill="#7E7E7E"/><path d="M33.44 6.263H10.56v1.76h22.88v-1.76zm-4.4 5.28H14.96v1.76h14.08v-1.76zm-13.2 15.84H6.16v1.76h9.68v-1.76z" fill="#7E7E7E"/></svg>