<svg width="39" height="40" fill="none" xmlns="http://www.w3.org/2000/svg"><path d="M2.61 29.31a2.249 2.249 0 0 0 0 3.18l3.85 3.844c.425.425.99.659 1.592.659a2.24 2.24 0 0 0 1.592-.659l10.19-10.174c.373-.372.577-.843.634-1.33l2.852 2.849a6.995 6.995 0 0 0 1.722 7.107 6.993 6.993 0 0 0 7.147 1.707l.024-.01a.734.734 0 0 0 .075-.033c.022-.012.045-.023.067-.036.02-.012.038-.026.057-.04a.8.8 0 0 0 .067-.055l.019-.015c.01-.01.018-.022.027-.033a.725.725 0 0 0 .178-.337.76.76 0 0 0 .02-.223.827.827 0 0 0-.025-.156c-.004-.014-.005-.029-.01-.043-.003-.008-.008-.015-.01-.023a.78.78 0 0 0-.034-.076.852.852 0 0 0-.035-.067c-.012-.02-.026-.037-.04-.056a.73.73 0 0 0-.057-.069l-.014-.018-2.643-2.64A1.106 1.106 0 0 1 29.853 31l1.325-1.324a1.1 1.1 0 0 1 .781-.323h.001c.296 0 .575.116.785.325l2.643 2.64.018.014c.02.02.044.038.067.055.02.014.038.029.058.041a.737.737 0 0 0 .066.035c.025.012.05.024.076.034.008.002.015.007.023.01s.016.001.025.004c.07.02.142.034.215.034h.007a.794.794 0 0 0 .21-.033l.043-.012a.775.775 0 0 0 .187-.094l.03-.024c.026-.02.054-.04.078-.064.02-.02.036-.043.053-.065l.03-.036a.762.762 0 0 0 .099-.193l.008-.014a6.967 6.967 0 0 0-1.71-7.138 7.017 7.017 0 0 0-7.115-1.718l-4.658-4.651 8.095-8.084c.236-.235.554-.357.892-.333l.014.001a2.71 2.71 0 0 0 2.544-1.386l2.21-3.975a.778.778 0 0 0-.131-.929l-.813-.81-.623-.623-.189-.189a.78.78 0 0 0-.93-.13L30.285 4.25a2.712 2.712 0 0 0-1.387 2.553c.023.33-.098.656-.333.89l-8.097 8.084-4.658-4.651a6.991 6.991 0 0 0-1.72-7.105 6.994 6.994 0 0 0-7.148-1.707l-.023.01a.736.736 0 0 0-.076.034.754.754 0 0 0-.066.035c-.02.012-.039.026-.058.04a.767.767 0 0 0-.067.056l-.019.015c-.01.01-.017.023-.027.033a.73.73 0 0 0-.178.337.796.796 0 0 0-.019.225c.002.024.003.048.007.072.004.028.01.056.018.083.004.014.005.029.01.043.002.008.007.015.01.022.01.026.021.051.034.077a.76.76 0 0 0 .034.066c.013.02.026.037.04.056a.773.773 0 0 0 .058.07l.014.017 2.643 2.639c.432.432.433 1.133.002 1.564L7.953 9.132a1.11 1.11 0 0 1-1.566-.002L3.743 6.491l-.018-.015a.727.727 0 0 0-.069-.056.657.657 0 0 0-.124-.075.693.693 0 0 0-.074-.033l-.024-.01c-.014-.005-.03-.006-.044-.01a.852.852 0 0 0-.155-.024.808.808 0 0 0-.223.019.742.742 0 0 0-.214.087.749.749 0 0 0-.127.093c-.01.009-.021.015-.03.024l-.015.018a.81.81 0 0 0-.057.07c-.014.018-.028.036-.04.056-.013.02-.024.044-.035.066-.012.025-.024.05-.033.076-.004.008-.008.015-.01.023a6.974 6.974 0 0 0 1.708 7.136 7.018 7.018 0 0 0 4.965 2.057c.72 0 1.444-.117 2.15-.343l2.856 2.853a2.228 2.228 0 0 0-1.33.633L2.61 29.31zm24.493-4.706l.002.002v.001c.015.014.032.025.046.038.023.019.046.04.07.057a.778.778 0 0 0 .748.067 5.46 5.46 0 0 1 5.9 1.204 5.418 5.418 0 0 1 1.588 4.21l-1.609-1.606a2.655 2.655 0 0 0-1.886-.782h-.002a2.65 2.65 0 0 0-1.884.78l-1.326 1.323a2.665 2.665 0 0 0 .003 3.766l1.607 1.606a5.437 5.437 0 0 1-4.215-1.585 5.442 5.442 0 0 1-1.215-5.871.766.766 0 0 0 .206-.145l.659-.662a.778.778 0 0 0-.004-1.1.781.781 0 0 0-1.103.003l-.465.467-3.309-3.302.012-.012a2.1 2.1 0 0 0 .298-2.59l.87-.869 5.01 5zm2.565-15.81c.554-.553.84-1.318.786-2.1-.03-.442.2-.867.588-1.082l3.468-1.92.793.79-1.924 3.463c-.216.387-.634.62-1.084.587h-.015a2.704 2.704 0 0 0-2.09.786L20.165 19.329l-.262-.261-.262-.261 1.379-1.376v-.002l8.648-8.634zM5.262 12.836a5.418 5.418 0 0 1-1.587-4.209l1.608 1.606c.521.52 1.205.78 1.888.78.683 0 1.365-.26 1.885-.778L10.38 8.91a2.663 2.663 0 0 0-.002-3.766L8.77 3.537a5.435 5.435 0 0 1 4.216 1.586 5.437 5.437 0 0 1 1.238 5.804.787.787 0 0 0-.104.085l-.66.662a.778.778 0 1 0 1.107 1.099l.342-.344 4.457 4.45-.87.869a2.089 2.089 0 0 0-2.596.3l-.01.01-3.848-3.843a.78.78 0 0 0-.855-.183 5.465 5.465 0 0 1-5.925-1.197zm9.62 7.403l.51.51a.78.78 0 0 0 1.104 0 .777.777 0 0 0 .003-1.097l.506-.504a.558.558 0 0 1 .771 0l2.047 2.044a.545.545 0 0 1-.002.773l-.502.501-1.276-1.273a.778.778 0 1 0-1.103 1.102l1.792 1.787a.69.69 0 0 1 0 .977L8.542 35.233a.71.71 0 0 1-.98 0l-3.85-3.844a.692.692 0 0 1 0-.977l10.19-10.174a.709.709 0 0 1 .98 0z" fill="#7E7E7E"/><path d="M5.58 32.07c.2 0 .399-.076.551-.228l1.607-1.604a.778.778 0 1 0-1.103-1.102L5.028 30.74a.778.778 0 0 0 .552 1.33zm7.682-5.395l-6.153 6.143 1.103 1.101 6.152-6.143a.78.78 0 0 0-1.103-1.101z" fill="#7E7E7E"/><path d="M8.611 29.041a.78.78 0 0 0 .552-.227l4.685-4.672a.6.6 0 0 1 .845.002l.142.14a.585.585 0 0 1-.012.835l1.114 1.089a2.14 2.14 0 0 0 0-3.025l-.141-.141a2.163 2.163 0 0 0-3.05-.003L8.06 27.711a.778.778 0 0 0 .551 1.33z" fill="#7E7E7E"/></svg>