<svg width="48" height="48" fill="none" xmlns="http://www.w3.org/2000/svg"><path d="M26.813 34.242l7.71 7.71a4.259 4.259 0 1 0 6.022-6.024l-7.71-7.71-6.022 6.024zm11.584-16.637l-5.122-1.28-1.28-5.122 5.93-5.93c-3.407-1.083-7.282-.281-9.984 2.42-3.856 3.856-2.623 8.875 1.235 12.731 3.856 3.856 8.875 5.091 12.731 1.234a9.863 9.863 0 0 0 2.42-9.983l-5.93 5.93zM20 18.4l-5.6-5.6L12.8 8 6.4 4.8 3.2 8l3.2 6.4 4.8 1.6 5.6 5.6 3.2-3.2z" fill="#7E7E7E"/><path d="M28.606 14.206l-20.8 20.8a4.8 4.8 0 0 0 0 6.79 4.8 4.8 0 0 0 6.79 0l20.8-20.8-6.79-6.79zM11.2 40a1.6 1.6 0 1 1 .001-3.201A1.6 1.6 0 0 1 11.2 40z" fill="#7E7E7E"/></svg>