<svg width="46" height="46" fill="none" xmlns="http://www.w3.org/2000/svg"><path d="M23 41.4a3.067 3.067 0 1 0 0-6.133 3.067 3.067 0 0 0 0 6.133zm13.8-29.133a3.067 3.067 0 1 0 0-6.134 3.067 3.067 0 0 0 0 6.134zm-27.6 0a3.067 3.067 0 1 0 0-6.134 3.067 3.067 0 0 0 0 6.134z" fill="#7E7E7E"/><path d="M37.395 6.192S30.056 4.6 23 4.6c-7.056 0-14.395 1.592-14.395 1.592L6.133 9.2v9.2c0 15.944 15.366 22.609 15.366 22.609h3c.002 0 15.368-6.665 15.368-22.609V9.2l-2.472-3.008zm-4.111 10.225L21.692 28.01a1.532 1.532 0 0 1-2.168 0l-5.295-5.294c-.6-.6-.6-1.569 0-2.168.6-.6 1.569-.6 2.168 0l4.211 4.21L31.116 14.25c.6-.6 1.569-.6 2.168 0 .6.6.6 1.569 0 2.168z" fill="#7E7E7E"/></svg>