<svg width="53" height="40" fill="none" xmlns="http://www.w3.org/2000/svg"><path d="M18.97 1.558c-.52.049-.961.526-.96 1.04v10.389h-5.826a1.028 1.028 0 0 0-.1 0c-.52.048-.962.526-.96 1.039v9.35H4.668c-.52.049-.962.527-.96 1.04v7.272c0 .544.505 1.04 1.06 1.04h3.708c0 2.856 2.384 5.194 5.297 5.194s5.297-2.338 5.297-5.195h14.833c0 2.857 2.384 5.195 5.297 5.195s5.297-2.338 5.297-5.195h3.708c.555 0 1.06-.495 1.06-1.039v-7.272c0-.544-.505-1.04-1.06-1.04H41.85v-9.35c0-.544-.505-1.039-1.06-1.039h-5.827V2.597c0-.544-.505-1.039-1.06-1.039H18.972zm1.16 2.078h12.713v9.351H20.13v-9.35zm-6.887 11.429h12.184v8.312H13.243v-8.312zm14.303 0H39.73v8.312H27.546v-8.312zm-21.72 10.39h41.32v5.194H44.05a5.326 5.326 0 0 0-4.85-3.117 5.326 5.326 0 0 0-4.85 3.117H18.623a5.326 5.326 0 0 0-4.85-3.117 5.326 5.326 0 0 0-4.85 3.117H5.827v-5.195zm7.947 4.155c1.768 0 3.178 1.384 3.178 3.117 0 1.734-1.41 3.117-3.178 3.117s-3.178-1.383-3.178-3.117c0-1.733 1.41-3.117 3.178-3.117zm25.427 0c1.768 0 3.178 1.384 3.178 3.117 0 1.734-1.41 3.117-3.178 3.117s-3.178-1.383-3.178-3.117c0-1.733 1.41-3.117 3.178-3.117zm-25.427 1.56c-.878 0-1.59.697-1.59 1.558 0 .86.712 1.559 1.59 1.559.878 0 1.59-.698 1.59-1.559 0-.86-.712-1.558-1.59-1.558zm25.427 0c-.878 0-1.59.697-1.59 1.558 0 .86.712 1.559 1.59 1.559.878 0 1.59-.698 1.59-1.559 0-.86-.712-1.558-1.59-1.558z" fill="#7E7E7E"/></svg>