<svg width="47" height="47" fill="none" xmlns="http://www.w3.org/2000/svg"><path d="M36.033 25.067V18.8c0-.865.702-1.567 1.567-1.567h4.476L41.546 16a3.133 3.133 0 0 0-2.879-1.899H28.2v21.933h4.778a3.984 3.984 0 0 1 .137-2.077 3.872 3.872 0 0 1 2.723-2.504 3.923 3.923 0 0 1 4.817 4.581h4.779V25.067h-9.4z" fill="#7E7E7E"/><path d="M36.817 39.167a3.917 3.917 0 1 0 0-7.834 3.917 3.917 0 0 0 0 7.834z" stroke="#7E7E7E" stroke-width="2" stroke-miterlimit="10"/><path d="M25.067 7.833H4.7a3.132 3.132 0 0 0-3.133 3.134v25.066h6.345a3.984 3.984 0 0 1 .136-2.077 3.872 3.872 0 0 1 2.723-2.504 3.923 3.923 0 0 1 4.818 4.581H28.2V10.967a3.132 3.132 0 0 0-3.133-3.134z" fill="#7E7E7E"/><path d="M11.75 39.167a3.917 3.917 0 1 0 0-7.834 3.917 3.917 0 0 0 0 7.834z" stroke="#7E7E7E" stroke-width="2" stroke-miterlimit="10"/><path d="M43.867 34.467h1.566m-43.866 0H4.7" stroke="#7E7E7E" stroke-width="2" stroke-miterlimit="10" stroke-linecap="round"/></svg>