<svg width="50" height="50" fill="none" xmlns="http://www.w3.org/2000/svg"><path d="M25 5C13.955 5 5 13.955 5 25s8.955 20 20 20 20-8.955 20-20S36.045 5 25 5zm1.667 29.762v3.571h-3.334v-3.561c-3.55-.474-5.785-2.539-5.91-5.599h3.802c.182 1.524 1.718 2.5 3.932 2.5 2.045 0 3.49-.99 3.49-2.408 0-1.198-.937-1.888-3.242-2.383l-2.448-.52c-3.425-.717-5.104-2.5-5.104-5.365 0-3.05 2.124-5.194 5.48-5.732v-3.598h3.334v3.593c3.26.528 5.46 2.64 5.561 5.528H28.53c-.182-1.485-1.563-2.473-3.463-2.473-1.967 0-3.269.912-3.269 2.343 0 1.159.899 1.824 3.099 2.292l2.265.482c3.776.795 5.403 2.421 5.403 5.338.002 3.303-2.208 5.487-5.898 5.992z" fill="#7E7E7E"/></svg>