<svg width="46" height="46" fill="none" xmlns="http://www.w3.org/2000/svg"><path d="M37.796 14.749l-7.255-12a.93.93 0 0 0-.796-.449h-13.49a.93.93 0 0 0-.796.449l-7.255 12a.927.927 0 0 0-.134.48v27.376c0 .415.274.762.648.881v.214h3.27a.928.928 0 0 0 .927-.926.927.927 0 0 0-.926-.926h-2.06v-26.36l6.85-11.33H29.22l6.85 11.33v26.36h-2.086a.927.927 0 0 0 0 1.852h3.318v-.22a.926.926 0 0 0 .627-.875V15.23a.926.926 0 0 0-.134-.481z" fill="#7E7E7E"/><path d="M23 10.857a1.877 1.877 0 1 0 0-3.755 1.877 1.877 0 0 0 0 3.755zm2.989 30.991h-1.31a.927.927 0 0 0-.927.926c0 .51.416.926.926.926h1.311c.51 0 .926-.416.926-.926a.928.928 0 0 0-.926-.926zm4.661 0h-1.31a.927.927 0 0 0-.926.926c0 .51.415.926.926.926h1.31a.928.928 0 0 0 .927-.926.928.928 0 0 0-.927-.926zm-14 0h-1.311a.927.927 0 0 0-.926.926c0 .51.415.926.926.926h1.31c.51 0 .926-.416.926-.926a.927.927 0 0 0-.926-.926zm4.645 0h-1.31a.927.927 0 0 0 0 1.852h1.31c.51 0 .926-.416.926-.926a.928.928 0 0 0-.926-.926zm-3.679-22.87c-1.087 0-2.045.393-2.874 1.178-.815.786-1.223 1.71-1.223 2.775 0 1.108.397 2.063 1.19 2.863.8.8 1.757 1.2 2.874 1.2 1.137 0 2.11-.393 2.918-1.178.807-.785 1.21-1.729 1.21-2.83 0-1.094-.403-2.033-1.21-2.82-.808-.792-1.77-1.188-2.885-1.188zm1.541 5.55a2.087 2.087 0 0 1-1.53.638c-.61 0-1.127-.213-1.553-.639a2.125 2.125 0 0 1-.638-1.563c0-.58.213-1.083.638-1.509a2.1 2.1 0 0 1 1.542-.638c.602 0 1.115.213 1.541.638.426.426.639.936.639 1.53a2.1 2.1 0 0 1-.639 1.542zm9.216 3.776c-1.086 0-2.045.393-2.874 1.178-.815.786-1.222 1.707-1.222 2.764 0 1.123.396 2.081 1.189 2.874.8.793 1.758 1.19 2.874 1.19 1.145 0 2.118-.39 2.918-1.168.814-.778 1.222-1.721 1.222-2.83 0-1.093-.404-2.033-1.211-2.819-.807-.793-1.772-1.189-2.896-1.189zm1.542 5.55a2.064 2.064 0 0 1-1.53.638c-.61 0-1.127-.213-1.553-.638a2.148 2.148 0 0 1-.627-1.564c0-.587.213-1.093.638-1.52a2.088 2.088 0 0 1 1.53-.638c.61 0 1.124.213 1.542.639a2.1 2.1 0 0 1 .639 1.541 2.1 2.1 0 0 1-.639 1.542zm-1.577-15.471a.939.939 0 0 0-1.282.344l-9.733 16.872a.939.939 0 0 0 1.626.938l9.733-16.873a.939.939 0 0 0-.344-1.282z" fill="#7E7E7E"/></svg>