<svg width="563" height="382" fill="none" xmlns="http://www.w3.org/2000/svg"><path opacity=".2" fill-rule="evenodd" clip-rule="evenodd" d="M351.39-554.413c87.7-10.444 171.503 12.513 242.698 60.599-119.49 84.398-222.048 251.269-332.889 421.99-63.582 97.79-124.24 193.798-186.847 274.286C40.489 152.078 15.153 93.519.962 28.62L21.06-2.414c113.642-173.919 217.663-345.26 340.99-427.967-109.382-41.391-200.736-16.192-284.416 48.19 65.774-93.754 162.305-158.95 273.756-172.222zm357.258 176.554c-62.607 80.488-123.205 177.206-186.786 274.994C410.96 67.148 309.01 233.946 188.911 318.417c70.526 47.45 154.998 71.043 242.698 60.599 108.407-12.91 202.745-74.981 267.605-165.045-82.096 61.329-171.806 84.184-278.02 43.848C544.521 175.112 649.211 4.407 762.183-170.148l20.098-31.034c-13.034-65.753-39.101-125.657-73.633-176.677z" fill="#DADADA"/></svg>