<svg width="229" height="282" fill="none" xmlns="http://www.w3.org/2000/svg"><path opacity=".1" d="M129.363 38.144C92.289 26.74 60.869 34.023 31.954 52.536 55.224 25.524 88.302 6.55 126.061 2.053c30.341-3.613 59.204 2.566 83.676 16.194-20.892 13.029-40.412 32.035-59.582 54.161-16.441 18.976-32.644 40.271-49.242 62.085-2.982 3.919-5.977 7.856-8.989 11.798a8065.558 8065.558 0 0 0-8.701 11.403c-19.434 25.495-38.238 50.163-57.492 71.379C14.365 214.41 5.934 197.332 1.304 178.35l7.022-9.216v-.001c3.805-4.949 7.578-9.891 11.33-14.802 16.25-21.28 32.083-42.011 48.163-60.496 19.79-22.751 39.925-42.064 61.625-54.78l.992-.58-1.073-.33zm17.357 206.641c35.969 11.107 66.783 4.507 95.128-13.091-22.913 25.911-55.203 43.965-91.898 48.335-30.336 3.612-59.423-2.747-83.674-16.194 20.996-13.041 40.516-32.047 59.662-54.144 15.978-18.442 31.715-39.059 47.84-60.184 3.422-4.483 6.862-8.99 10.326-13.504h0c3.517-4.598 7.007-9.186 10.479-13.749 18.801-24.714 37.031-48.675 55.698-69.247 11.599 14.856 20.27 32.326 24.503 51.567l-7.028 9.223.392.297-.392-.297a8042.767 8042.767 0 0 0-8.603 11.324c-17.122 22.565-33.814 44.563-50.801 64.043-19.82 22.727-40.013 41.994-61.713 54.71l-.991.58 1.072.331z" stroke="#fff"/></svg>