<svg width="325" height="287" fill="none" xmlns="http://www.w3.org/2000/svg"><g opacity=".7" fill-rule="evenodd" clip-rule="evenodd" fill="#fff"><path d="M195.6 1.217H62.99v159.098H195.6V1.217zM61.773 0v161.532h135.044V0H61.773z"/><path d="M195.6 1.217H62.99v9.186H195.6V1.217zM61.773 0v11.62h135.044V0H61.773zm199.511 87.42h-57.601v72.906h57.601V87.42zm-58.818-1.217v75.34h60.035v-75.34h-60.035z"/><path d="M249.121 120.125h-39.793v40.201h39.793v-40.201zm-41.011-1.218v42.637h42.228v-42.637H208.11zM67.047 251.01h-9.665v31.528h9.665V251.01zm-10.882-1.217v33.962h12.1v-33.962h-12.1zm-1.217-101.241h-9.257v18.768h9.257v-18.768zm-10.474-1.217v21.202h11.691v-21.202H44.474zm-39.71 62.704h6.343v1.217H5.981v14.298h5.126v1.217H4.764v-16.732zm315.47-.031h-6.343v1.217h5.126v14.298h-5.126v1.217h6.343v-16.732z"/><path d="M36.355 167.347h26.053v1.217H37.573v99.62h18.822v1.217h-20.04V167.347zm251.096 1.217h-25.653v-1.217h26.87v102.054H67.265v-1.217h220.186v-99.62z"/><path d="M39.6 170.63h22.95v1.139H40.785v93.21H56.69v1.139H39.6V170.63zm244.638 1.139H261.68v-1.139h23.744v95.488H268.09l-.332 3.354h-10.889v-3.354H67.281v-1.139h189.588v3.354h10.889l.332-3.354h16.148v-93.21z"/><path d="M267.333 253.083h-9.665v15.2h9.665v-15.2zm-10.882-1.218V269.5h12.099v-17.635h-12.099z"/><path d="M257.668 283.109h15.067v-10.142l-2.895-3.41h-12.172v13.552zm12.735-14.769h-13.952v15.986h17.502V272.52l-3.55-4.18zM190.887 27.404h-24.854v44.938h24.854V27.404zm-26.072-1.217V73.56h27.289V26.187h-27.289z"/><path d="M184.638 32.314h-12.125v24.364h12.125V32.314zm-13.342-1.217v26.798h14.56V31.097h-14.56zm59.429 56.323h-16.987v27.273h16.987V87.42zm-18.204-1.217v29.707h19.422V86.203h-19.422zm48.931 75.33H62.991v28.728h198.461v-28.728zm-199.679-1.218v31.164H262.67v-31.164H61.773z"/><path d="M161.018 161.185l-.039-150.383h1.217l.04 150.383h-1.218zM73.058 60.711c-1.308 0-2.39-1.074-2.39-2.426s1.082-2.426 2.39-2.426 2.39 1.074 2.39 2.426-1.082 2.426-2.39 2.426zm0 1.217c-1.992 0-3.606-1.63-3.606-3.643 0-2.012 1.614-3.644 3.606-3.644 1.992 0 3.607 1.632 3.607 3.644 0 2.012-1.615 3.643-3.607 3.643zm80.666-1.607c-1.308 0-2.389-1.075-2.389-2.426 0-1.352 1.081-2.427 2.389-2.427 1.308 0 2.39 1.075 2.39 2.427 0 1.351-1.082 2.426-2.39 2.426zm0 1.217c-1.992 0-3.606-1.631-3.606-3.643 0-2.013 1.614-3.644 3.606-3.644 1.992 0 3.607 1.632 3.607 3.644 0 2.012-1.615 3.643-3.607 3.643zm24.852 7.004c-2.24 0-4.076-1.837-4.076-4.13s1.836-4.13 4.076-4.13c2.239 0 4.076 1.837 4.076 4.13s-1.837 4.13-4.076 4.13zm0 1.218c-2.924 0-5.294-2.395-5.294-5.348s2.37-5.347 5.294-5.347c2.923 0 5.293 2.394 5.293 5.347 0 2.953-2.37 5.347-5.293 5.347zm10.989 37.366c-1.308 0-2.389-1.074-2.389-2.426s1.081-2.426 2.389-2.426c1.308 0 2.39 1.074 2.39 2.426s-1.082 2.426-2.39 2.426zm0 1.217c-1.992 0-3.607-1.631-3.607-3.643 0-2.012 1.615-3.644 3.607-3.644 1.992 0 3.607 1.632 3.607 3.644 0 2.012-1.615 3.643-3.607 3.643zm-51.152 34.392c-1.308 0-2.39-1.074-2.39-2.426s1.082-2.426 2.39-2.426 2.389 1.074 2.389 2.426-1.081 2.426-2.389 2.426zm0 1.217c-1.992 0-3.607-1.631-3.607-3.643 0-2.012 1.615-3.644 3.607-3.644 1.992 0 3.607 1.632 3.607 3.644 0 2.012-1.615 3.643-3.607 3.643zM18.961 183c-4.622 9.022-7.499 21.527-7.499 35.374 0 13.846 2.877 26.352 7.5 35.374 4.638 9.054 10.937 14.436 17.723 14.436v1.217c-7.48 0-14.097-5.904-18.807-15.098-4.727-9.227-7.633-21.93-7.633-35.929 0-13.999 2.906-26.703 7.633-35.929 4.71-9.194 11.327-15.098 18.807-15.098v1.217c-6.786 0-13.085 5.382-17.724 14.436z"/><path d="M21 185.244c-4.018 8.422-6.518 20.097-6.518 33.024s2.5 24.602 6.518 33.024c4.032 8.453 9.507 13.477 15.406 13.477v1.137c-6.502 0-12.253-5.513-16.348-14.096-4.108-8.613-6.634-20.473-6.634-33.542 0-13.069 2.526-24.929 6.634-33.542 4.095-8.584 9.846-14.096 16.348-14.096v1.137c-5.899 0-11.374 5.024-15.406 13.477zm283.134.016c4.191 8.432 6.8 20.12 6.8 33.061 0 12.941-2.609 24.629-6.8 33.061-4.207 8.462-9.92 13.492-16.074 13.492v1.138c6.784 0 12.784-5.518 17.056-14.111 4.287-8.623 6.922-20.496 6.922-33.58 0-13.083-2.635-24.957-6.922-33.58-4.272-8.593-10.272-14.111-17.056-14.111v1.138c6.154 0 11.867 5.03 16.074 13.492z"/><path d="M305.784 183.053c4.622 9.016 7.499 21.514 7.499 35.352 0 13.838-2.877 26.336-7.499 35.352-4.638 9.048-10.937 14.427-17.724 14.427v1.217c7.48 0 14.097-5.9 18.807-15.089 4.727-9.221 7.633-21.917 7.633-35.907 0-13.99-2.906-26.686-7.633-35.907-4.71-9.189-11.327-15.089-18.807-15.089v1.217c6.787 0 13.086 5.379 17.724 14.427z"/></g></svg>