<svg width="60" height="68" fill="none" xmlns="http://www.w3.org/2000/svg"><path fill-rule="evenodd" clip-rule="evenodd" d="M30.563 13.57h-1.307c-6.56 0-10.952 3.644-13.061 8.295-2.142 4.723-1.874 10.347.803 14.155a195.5 195.5 0 0 0 3.184 4.384c2.583 3.48 3.887 5.237 4.951 8.927a1.388 1.388 0 1 1-2.667.77c-.917-3.18-1.88-4.478-4.306-7.749-.912-1.23-2.032-2.74-3.433-4.735-3.337-4.746-3.537-11.44-1.06-16.898 2.507-5.53 7.819-9.926 15.589-9.926h1.307c7.764 0 13.081 4.357 15.593 9.873 2.48 5.447 2.274 12.137-1.059 16.944a171.993 171.993 0 0 1-3.491 4.846c-.72.974-1.308 1.768-1.813 2.505-1.128 1.647-1.812 2.964-2.44 5.14a1.388 1.388 0 1 1-2.668-.77c.72-2.495 1.544-4.079 2.817-5.939.536-.782 1.158-1.622 1.874-2.59l.337-.456a169.45 169.45 0 0 0 3.103-4.318c2.691-3.883 2.953-9.512.813-14.211-2.108-4.63-6.5-8.248-13.066-8.248z" fill="#000"/><path fill-rule="evenodd" clip-rule="evenodd" d="M31.06 19.92c0 .35.263.643.608.71 1.08.211 2.085.63 2.974 1.211.29.19.678.167.924-.079l1.293-1.293a.694.694 0 0 1 .982 0l.643.644a.694.694 0 0 1 0 .982l-1.3 1.3a.737.737 0 0 0-.08.921 8.346 8.346 0 0 1 1.19 2.968c.066.346.36.61.712.61h1.881c.383 0 .694.312.694.695v.91c0 .384-.31.695-.694.695h-1.955a.737.737 0 0 0-.706.581 8.35 8.35 0 0 1-1.251 2.84.738.738 0 0 0 .069.938l1.44 1.44a.694.694 0 0 1 0 .982l-.643.644a.694.694 0 0 1-.982 0l-1.507-1.507a.736.736 0 0 0-.907-.09 8.34 8.34 0 0 1-2.777 1.085.738.738 0 0 0-.609.712v2.203c0 .383-.31.694-.694.694h-.91a.694.694 0 0 1-.695-.694V37.76c0-.343-.25-.63-.584-.707a8.346 8.346 0 0 1-2.679-1.13.737.737 0 0 0-.921.08L22.96 37.62a.694.694 0 0 1-.981 0l-.644-.644a.694.694 0 0 1 0-.981l1.608-1.608a.737.737 0 0 0 .079-.925 8.349 8.349 0 0 1-1.15-2.686.737.737 0 0 0-.705-.581h-2.235a.694.694 0 0 1-.694-.694v-.911c0-.383.311-.694.694-.694h2.16a.738.738 0 0 0 .713-.611 8.34 8.34 0 0 1 1.092-2.81.736.736 0 0 0-.09-.907l-1.472-1.472a.694.694 0 0 1 0-.982l.644-.643a.694.694 0 0 1 .981 0l1.406 1.405c.25.25.646.27.938.069a8.35 8.35 0 0 1 2.872-1.26.737.737 0 0 0 .584-.706v-1.911c0-.383.311-.694.694-.694h.911c.383 0 .694.31.694.694v1.852zm-1.01 15.427a6.478 6.478 0 1 0 0-12.956 6.478 6.478 0 0 0 0 12.956zm-8.334 17.25c0-.766.621-1.388 1.388-1.388h13.57a1.388 1.388 0 0 1 0 2.777h-13.57a1.388 1.388 0 0 1-1.388-1.389zM38.008 8.2a1.388 1.388 0 0 1-.7-1.834l2.269-5.068a1.388 1.388 0 1 1 2.534 1.134L39.842 7.5a1.388 1.388 0 0 1-1.834.7zm-16.509.044a1.388 1.388 0 0 1-1.807-.769l-2.074-5.15a1.388 1.388 0 0 1 2.575-1.037l2.074 5.15a1.388 1.388 0 0 1-.768 1.806zM8.427 21.21a1.388 1.388 0 0 1-1.667 1.038L1.352 20.99a1.388 1.388 0 0 1 .629-2.704l5.408 1.258c.747.174 1.211.92 1.038 1.666zm2.728 18.399c.462.611.34 1.482-.271 1.944L6.453 44.9a1.388 1.388 0 1 1-1.673-2.215l4.43-3.347a1.388 1.388 0 0 1 1.944.27zM51.398 21.21c.173.747.92 1.212 1.666 1.038l5.408-1.258a1.388 1.388 0 0 0-.629-2.704l-5.408 1.258a1.388 1.388 0 0 0-1.038 1.666zM49.49 39.63a1.388 1.388 0 0 0 .32 1.937l4.515 3.232a1.388 1.388 0 1 0 1.616-2.258l-4.515-3.232a1.388 1.388 0 0 0-1.936.32zM21.716 55.875c0-.767.621-1.388 1.388-1.388h13.57a1.388 1.388 0 0 1 0 2.776h-13.57a1.388 1.388 0 0 1-1.388-1.388zm0 3.278c0-.767.621-1.389 1.388-1.389h13.57a1.388 1.388 0 0 1 0 2.777h-13.57a1.388 1.388 0 0 1-1.388-1.388zm2.718 1.825c.767 0 1.388.621 1.388 1.388 0 .337.214.834.96 1.313.732.471 1.827.808 3.107.808 1.28 0 2.375-.337 3.106-.807.747-.48.96-.977.96-1.314a1.388 1.388 0 0 1 2.777 0c0 1.6-1.007 2.859-2.235 3.648-1.242.8-2.876 1.249-4.608 1.249-1.732 0-3.366-.45-4.608-1.249-1.228-.79-2.235-2.047-2.235-3.648 0-.767.621-1.388 1.388-1.388z" fill="#000"/></svg>