<svg width="147" height="246" fill="none" xmlns="http://www.w3.org/2000/svg"><path d="M1 37.346V178.44M45.103 10.97v143.07m58.804-143.07v143.07M45.103 10.97h58.805M45.103 154.04h58.805m42.436-116.694V178.44M1 40.827c6.365-.91 13.64-1.364 21.218-1.515 8.336-.152 16.065.151 22.734.757m58.955.001c5.759-.607 12.125-.91 18.945-.758 8.639 0 16.248.742 23.371 1.5M54.5 36.886v34.707m41.526-34.707v34.707m-41.526 0h41.527M54.5 36.886h41.527m-29.706 8.639V56.59m17.278-11.065V56.59M66.321 45.525H83.6M66.321 56.59H83.6M12.821 88.87h32.282m58.804 0h33.04m-13.186-9.396h13.185m0 9.396v-9.396M12.821 88.87v-9.396M41.92 21.882c-8.335-.455-15.003.606-19.55 1.516-6.517 1.364-12.428 2.88-17.278 7.88-1.97 1.971-3.43 4.47-4.035 5.986M107.09 21.882c5.911-.303 15.004 0 24.249 3.183 7.426 2.576 10.609 5.456 12.579 7.881 1.213 1.516 1.932 3.48 2.386 4.237M12.821 79.474h12.58M37.223 3.09h9.396M30.856 9.303h15.762m78.659 6.366v3.94m-21.37-3.94h21.37m0 3.94h-21.37M61.472.816H46.619V10.97h14.853V.816zm40.92 0H87.539V10.97h14.853V.816zm21.066 73.808h-14.853v14.095h14.853V74.624zm-83.205 0H25.4v14.095h14.853V74.624zm77.901-52.742V19.61m-11.064 2.272V19.61m-82.447-3.941h20.46m0 3.94h-20.46m0-3.94v3.94m6.213 2.273V19.61m11.064 2.272V19.61m77.749-14.096c-.802-.667-1.569-1.328-2.847-1.807-1.212-.454-2.481-.608-3.511-.608M29.34 5.514c.759-.606 1.848-1.226 3.105-1.749 1.176-.49 3.65-.68 4.909-.68M29.34 9.303V5.514m90.33 3.789V5.514M30.856 15.668V9.303m87.298 6.365V9.303m-88.814 0h1.516m11.064 6.365V9.303m65.17 6.365V9.303M41.92 21.882l3.184.91m61.986-.91l-3.183.91M61.623 9.303h25.916m32.13 0h-17.277m11.063-6.213h-11.063m-14.852 0H61.622m25.311 150.95H63.29v3.789h23.643v-3.789zm-16.671 3.94v24.725M78.9 157.98v24.725m-55.015-6.689h10.154c11.367 0 22.279-.303 33.04-.758m15.004 0c10.457.455 21.37.758 32.13.758h11.67m-58.803 2.425V157.98m15.003 20.461V157.98" stroke="#333" stroke-miterlimit="10" stroke-linecap="round" stroke-linejoin="round"/><path d="M43.436 237.397H16.004v7.881h27.432v-7.881zm90.328 0h-27.432v7.881h27.432v-7.881z" stroke="#333" stroke-miterlimit="10"/><path d="M133.764 237.397V88.871m-7.729 148.526V88.871M16.004 237.397V88.871m130.339 89.57c-.455 1.212-.909 2.576-1.516 3.789-3.031 6.214-7.881 9.851-11.063 11.67M1 178.441c.606 1.667 1.516 3.94 3.183 6.365 3.94 5.608 9.245 7.881 11.67 8.639m58.653 18.035c8.035 0 14.549-6.514 14.549-14.549 0-8.036-6.514-14.55-14.55-14.55-8.035 0-14.549 6.514-14.549 14.55 0 8.035 6.514 14.549 14.55 14.549zm-36.526.001h73.808m-87.903-15.762h20.46m59.562 0h21.37m-21.37 7.123v-7.123m-59.561 7.123v-7.123m59.561 7.123h22.128m-81.69 0h-20.46m0 34.555V88.871" stroke="#333" stroke-miterlimit="10" stroke-linecap="round" stroke-linejoin="round"/><path d="M103.907 195.718c-1.667 0-11.821-.606-18.035-8.638-2.425-3.183-3.486-6.366-3.789-8.639m-37.737 17.277c1.667 0 10.76-.151 17.277-6.971 3.638-3.789 5.002-8.033 5.456-10.154M37.98 216.937h73.808m-68.351 11.821h62.896m-.001 8.638v-11.063m-62.895 11.063v-11.063m62.895 0h19.702m-82.598 0H23.885m27.432 8.791h46.377m8.638 10.154h-6.214m-56.681 0h6.365m47.891-10.154l2.425 10.154m-48.801-10.154l-1.515 10.154" stroke="#333" stroke-miterlimit="10" stroke-linecap="round" stroke-linejoin="round"/><path d="M37.98 202.842h-8.64v17.277h8.64v-17.277zm82.447 0h-8.639v17.277h8.639v-17.277zm-45.922 3.94c5.441 0 9.852-4.411 9.852-9.852 0-5.44-4.41-9.851-9.852-9.851-5.44 0-9.85 4.411-9.85 9.851 0 5.441 4.41 9.852 9.85 9.852zm15.005 18.945H59.5c-2.273 0-4.092-1.364-4.092-2.88 0-1.667 1.97-2.879 4.092-2.879h30.01c2.273 0 4.092 1.364 4.092 2.879 0 1.667-1.82 2.88-4.092 2.88zm47.134-33.191c.303.151 1.364.758 2.728.455 1.212-.152 1.97-.91 2.273-1.213m.001 0c.151-.152 1.515-1.213 1.515-3.183 0-1.212-.606-1.97-.758-2.273m-130.036 5.759c-.303.152-1.213.909-2.728.758-1.213 0-2.122-.758-2.425-.91" stroke="#333" stroke-miterlimit="10"/><path d="M7.268 191.952c-.29-.141-1.721-1.235-1.873-3.054-.151-1.212.455-2.121.606-2.425M50.863 33.855a2.728 2.728 0 1 0 0-5.456 2.728 2.728 0 0 0 0 5.456zm0 106.697a2.729 2.729 0 1 0-.001-5.457 2.729 2.729 0 0 0 0 5.457z" stroke="#333" stroke-miterlimit="10"/><path d="M133.768 175.785c2.19 0 3.937-.223 6.362-.527 2.273-.454 4.066-1.122 6.037-1.576m-130.213 1.971c-2.805 0-5.558-.546-8.589-1.153-2.121-.454-4.243-1.06-6.365-1.515m39.405-93.511h4.698m63.503 0h-4.699" stroke="#333" stroke-miterlimit="10" stroke-linecap="round" stroke-linejoin="round"/><path d="M84.356 88.567a3.031 3.031 0 1 0 0-6.062 3.031 3.031 0 0 0 0 6.062z" stroke="#333" stroke-miterlimit="10"/></svg>