<svg width="84" height="51" fill="none" xmlns="http://www.w3.org/2000/svg"><path d="M17.5 38c-1.93 0-3.5 1.57-3.5 3.5s1.57 3.5 3.5 3.5 3.5-1.57 3.5-3.5-1.57-3.5-3.5-3.5zm0 4.414a.916.916 0 0 1-.914-.915c0-.503.41-.914.914-.914a.916.916 0 0 1 0 1.829z" fill="#F1AC00"/><path d="M76.256 43.223C79.99 43.13 83 40.113 83 36.411v-3.794c0-6.367-4.407-11.77-10.717-13.135a17.934 17.934 0 0 1-9.722-5.784C54.834 4.737 44.554 0 32.834 0L5.816.202C2.624.226.026 2.79.026 5.919v31.797c0 3.152 2.603 5.718 5.801 5.718 1.043 0 2.098-.002 3.15-.004a8.477 8.477 0 0 0 3.273 4.98H0V51h76.222v-2.59H72.94a8.46 8.46 0 0 0 3.316-5.187zm-4.538-21.212c2.843.616 5.204 2.246 6.739 4.46-3.166-.335-5.93-2.074-7.577-4.677.28.072.556.157.838.217zM17.374 47.507c-3.293 0-5.972-2.642-5.972-5.886 0-3.245 2.68-5.887 5.972-5.887 3.293 0 5.972 2.642 5.972 5.886 0 3.245-2.68 5.887-5.972 5.887zm5.123.904a8.469 8.469 0 0 0 3.283-5.018c5.09-.018 10.172-.038 15.177-.06 6.071-.025 12.249-.051 18.423-.07.42 2.098 1.632 3.913 3.31 5.148H22.498zm45.318-.904c-3.293 0-5.972-2.642-5.972-5.886 0-3.245 2.68-5.887 5.972-5.887 3.293 0 5.972 2.642 5.972 5.886 0 3.245-2.678 5.887-5.972 5.887zm0-14.362c-4.417 0-8.063 3.3-8.542 7.53-6.144.019-12.288.044-18.327.07-4.953.021-9.98.042-15.015.058-.419-4.29-4.096-7.658-8.557-7.658-4.475 0-8.159 3.388-8.56 7.697l-2.987.003c-1.75 0-3.174-1.404-3.174-3.128V36.33h6.19v-2.59h-6.19V5.92c0-1.712 1.428-3.115 3.184-3.129l26.689-.2.309-.002c10.926 0 20.513 4.422 27.726 12.788a20.536 20.536 0 0 0 6.82 5.151c1.79 5.147 6.676 8.6 12.205 8.6.067 0 .137-.01.204-.01.377 1.1.584 2.279.584 3.501v1.121h-4.151v2.59h4.15v.082c0 2.243-1.783 4.065-4.023 4.205-.507-4.202-4.138-7.472-8.535-7.472z" fill="#F1AC00"/><path d="M67.5 38c-1.93 0-3.5 1.57-3.5 3.5s1.57 3.5 3.5 3.5 3.5-1.57 3.5-3.5-1.57-3.5-3.5-3.5zm0 4.414a.916.916 0 0 1-.914-.915.915.915 0 1 1 .914.915zM59 34H27v2h32v-2zM42.556 5H40v16h22v-2.67H42.556V5zM84 48h-6v3h6v-3zM19.337 21.002H12c0-.72.124-1.371.373-1.954s.558-1.043.93-1.38c.37-.341.772-.665 1.206-.97.434-.31.834-.571 1.2-.785.37-.219.68-.472.929-.758.253-.292.38-.604.38-.936 0-.392-.132-.7-.395-.922-.258-.228-.627-.342-1.105-.342-.38 0-.71.1-.987.3-.273.2-.454.399-.541.595l-.117.293L12 13.31c.02-.064.051-.148.095-.253.044-.104.161-.289.351-.553.19-.268.41-.503.659-.703.248-.2.6-.383 1.053-.547.458-.168.96-.252 1.507-.252 1.068 0 1.946.302 2.633.908.693.606 1.039 1.35 1.039 2.233a2.7 2.7 0 0 1-.344 1.353c-.23.405-.529.751-.9 1.038-.37.283-.75.544-1.14.786-.386.237-.781.508-1.186.813-.405.3-.712.603-.921.908h4.49v1.96zm8.463-3.566H29v1.817h-1.2V21h-2.245v-1.748H20.61v-2.097l4.572-5.95H27.8v6.23zm-2.245 0v-3.777l-2.846 3.777h2.846z" fill="#F1AC00"/></svg>