<svg width="55" height="64" fill="none" xmlns="http://www.w3.org/2000/svg"><path fill-rule="evenodd" clip-rule="evenodd" d="M8.277 52.581a5.594 5.594 0 1 0 0-11.188 5.594 5.594 0 0 0 0 11.188zm0 2.683a8.277 8.277 0 1 0 0-16.554 8.277 8.277 0 0 0 0 16.554zM28.596 26.18a6.439 6.439 0 1 0 0-12.877 6.439 6.439 0 0 0 0 12.877zm0 2.684a9.122 9.122 0 1 0 0-18.244 9.122 9.122 0 0 0 0 18.244zm-.001-26.181a2.302 2.302 0 0 0-2.302 2.303h-2.684a4.986 4.986 0 1 1 9.972 0h-2.683a2.302 2.302 0 0 0-2.303-2.303z" fill="#000"/><path fill-rule="evenodd" clip-rule="evenodd" d="M29.916 17.078a3.624 3.624 0 0 0-3.623 3.624 1.342 1.342 0 1 1-2.684 0 6.307 6.307 0 0 1 6.307-6.307 1.342 1.342 0 0 1 0 2.683zM5.194 27.663c12.924 12.925 33.88 12.925 46.804 0a1.342 1.342 0 1 1 1.897 1.898c-13.972 13.972-36.626 13.972-50.599 0a1.342 1.342 0 0 1 1.898-1.898zM26.293 4.986v6.928h-2.684V4.986h2.684zm7.288 0v7.468h-2.683V4.986h2.683z" fill="#000"/><path fill-rule="evenodd" clip-rule="evenodd" d="M14.104 43.798l9.854-16.857 2.316 1.355-9.854 16.856-2.317-1.354zm-5.601-5.132L19.568 20.86l2.28 1.416-11.066 17.808-2.28-1.417zm.125 18.914l2.67-5.604 2.423 1.154-4.89 10.261-5.546-9.805 2.336-1.321 3.007 5.316zm42.806-5.483L35.148 21.678l2.365-1.267 16.946 31.65L49.085 62.7 30.237 27.77l2.362-1.274 16.407 30.407 2.428-4.806zM28.6 32.202c.741 0 1.342.601 1.342 1.342v12.228a1.342 1.342 0 0 1-2.683 0V33.544c0-.74.6-1.342 1.341-1.342z" fill="#000"/></svg>