<svg width="20" height="13" fill="none" xmlns="http://www.w3.org/2000/svg"><path d="M19.822 10.726c-.054-.094-.386-.85-1.987-2.404-1.675-1.627-1.45-1.363.568-4.177 1.229-1.713 1.72-2.76 1.566-3.207-.146-.426-1.05-.314-1.05-.314l-3.005.019s-.223-.032-.389.072c-.161.102-.265.337-.265.337s-.476 1.326-1.111 2.454c-1.339 2.379-1.875 2.505-2.094 2.357-.509-.344-.381-1.384-.381-2.122 0-2.306.333-3.267-.652-3.516-.327-.082-.567-.137-1.404-.146-1.072-.012-1.98.004-2.495.267-.342.175-.606.566-.445.588.199.028.65.127.888.467.309.438.297 1.425.297 1.425s.178 2.714-.413 3.051c-.407.232-.963-.24-2.157-2.4C4.682 2.372 4.22 1.149 4.22 1.149a.93.93 0 0 0-.247-.35 1.239 1.239 0 0 0-.464-.193L.652.623S.222.636.065.831c-.14.174-.011.532-.011.532s2.238 5.477 4.77 8.238c2.324 2.53 4.962 2.365 4.962 2.365h1.195s.361-.042.545-.25c.17-.191.164-.55.164-.55s-.024-1.678.721-1.925c.734-.243 1.677 1.622 2.675 2.34.755.543 1.33.424 1.33.424l2.67-.04s1.398-.09.736-1.24z" fill="#fff"/></svg>