<svg width="147" height="75" fill="none" xmlns="http://www.w3.org/2000/svg"><path fill-rule="evenodd" clip-rule="evenodd" d="M79.975 31.567c.664.623 1.083 1.27 1.156 1.865l-.297.037c-.06-.494-.42-1.08-1.064-1.684-.64-.602-1.546-1.207-2.665-1.74-2.238-1.069-5.31-1.846-8.769-1.754-.873.023-1.582-.393-2.075-1.143-.489-.744-.766-1.816-.806-3.124v-.004c.001-4.769-.983-8.83-2.702-11.657-1.716-2.824-4.156-4.41-7.081-4.272l-.015-.298c3.063-.145 5.595 1.523 7.352 4.415 1.755 2.888 2.746 7.006 2.745 11.81.039 1.275.31 2.285.757 2.966.444.675 1.06 1.028 1.817 1.008 3.507-.093 6.626.694 8.905 1.782 1.14.544 2.074 1.165 2.742 1.793z" fill="#FBC02D" stroke="#F1AC00" stroke-width="3"/><path fill-rule="evenodd" clip-rule="evenodd" d="M53.766 8.324c.795-.445 1.537-.649 2.128-.538l-.055.294c-.49-.092-1.156.073-1.928.505-.767.428-1.617 1.109-2.464 2.014-1.695 1.81-3.364 4.503-4.323 7.828-.242.84-.852 1.389-1.717 1.632-.857.241-1.963.182-3.22-.176h-.003l-.002-.001c-4.545-1.443-8.714-1.732-11.928-.95-3.212.783-5.46 2.629-6.213 5.46l-.29-.078c.79-2.962 3.144-4.871 6.432-5.672 3.283-.8 7.509-.5 12.087.954 1.227.349 2.272.396 3.056.175.778-.219 1.301-.7 1.511-1.427.971-3.37 2.665-6.106 4.391-7.95.863-.921 1.738-1.623 2.538-2.07zm12.52 55.211c-.377.83-.855 1.434-1.395 1.695l-.13-.27c.448-.216.887-.744 1.253-1.548.364-.8.645-1.852.791-3.084.293-2.461.042-5.62-1.157-8.867-.302-.819-.136-1.623.416-2.331.548-.703 1.474-1.31 2.7-1.768h.002l.002-.001c4.516-1.53 8.045-3.768 10.17-6.304 2.124-2.532 2.632-5.33 1.562-8.057l.5-.021c1.12 2.854.342 5.677-1.832 8.27-2.171 2.59-5.753 4.852-10.302 6.394-1.195.447-2.064 1.028-2.566 1.67-.497.637-.633 1.335-.37 2.045 1.214 3.29 1.47 6.498 1.172 9.006-.149 1.254-.437 2.337-.816 3.171z" fill="#FBC02D" stroke="#F1AC00" stroke-width="3"/><path fill-rule="evenodd" clip-rule="evenodd" d="M31.383 60.144c-.903-.116-1.621-.393-2.03-.834l.219-.203c.338.364.972.628 1.85.74.87.112 1.96.07 3.179-.153 2.438-.447 5.382-1.62 8.13-3.722.694-.531 1.512-.61 2.351-.291.833.316 1.686 1.021 2.485 2.057l.001.002.002.002c2.795 3.863 5.974 6.575 9.024 7.858 3.047 1.28 5.952 1.134 8.241-.694l.187.234c-2.396 1.913-5.425 2.047-8.544.735-3.115-1.31-6.333-4.065-9.15-7.956-.778-1.01-1.59-1.67-2.352-1.959-.755-.286-1.462-.211-2.063.25-2.786 2.131-5.774 3.322-8.258 3.778-1.242.228-2.363.272-3.272.156z" fill="#FBC02D" stroke="#F1AC00" stroke-width="3"/><path fill-rule="evenodd" clip-rule="evenodd" d="M23.723 26.222c-.18-.893-.148-1.662.137-2.19l.263.141c-.236.438-.282 1.123-.107 1.99.175.86.564 1.878 1.167 2.961 1.207 2.166 3.262 4.577 6.137 6.504.725.486 1.063 1.235 1.03 2.133-.031.89-.425 1.925-1.15 3.014v.002l-.002.002c-2.76 3.888-4.307 7.77-4.542 11.07-.234 3.297.838 6.001 3.304 7.582l-.161.251c-2.581-1.654-3.681-4.479-3.441-7.854.24-3.371 1.815-7.304 4.595-11.22.706-1.063 1.07-2.043 1.099-2.858.029-.807-.27-1.452-.898-1.874-2.915-1.953-5.003-4.4-6.232-6.606-.615-1.103-1.017-2.15-1.199-3.048zm79.031-11.854a17.498 17.498 0 0 0-1.035-3.312.15.15 0 0 1 .075-.198.148.148 0 0 1 .197.073c.337.768.772 2.004 1.056 3.377.301 1.455.435 3.079.09 4.466v.002l-.001.002c-.501 1.798-1.371 3.063-2.458 3.918-1.085.854-2.378 1.291-3.715 1.451-2.668.32-5.534-.461-7.358-1.278l-.009-.004-.008-.005c-1.133-.694-2.101-.988-2.92-1.014a3.312 3.312 0 0 0-2.05.6c-1.066.743-1.69 2.042-1.949 3.071-.02.08-.1.131-.18.113a.146.146 0 0 1-.112-.178c.268-1.071.92-2.45 2.07-3.252a3.61 3.61 0 0 1 2.23-.653c.882.028 1.898.343 3.059 1.053 1.795.802 4.6 1.561 7.192 1.25 1.296-.155 2.533-.577 3.565-1.39 1.031-.81 1.868-2.018 2.354-3.76.329-1.324.204-2.896-.093-4.332z" fill="#FBC02D" stroke="#F1AC00" stroke-width="3"/><path fill-rule="evenodd" clip-rule="evenodd" d="M121.629 22.78a17.434 17.434 0 0 0 2.333-2.545.152.152 0 0 1 .21-.035.148.148 0 0 1 .034.208 17.66 17.66 0 0 1-2.378 2.595c-1.101.984-2.432 1.91-3.805 2.305h-.004c-1.807.466-3.338.346-4.622-.167-1.282-.513-2.308-1.413-3.115-2.49-1.612-2.15-2.369-5.023-2.575-7.011l-.001-.01v-.01c.035-1.328-.196-2.313-.582-3.035a3.315 3.315 0 0 0-1.545-1.474c-1.178-.552-2.614-.443-3.635-.151a.153.153 0 0 1-.188-.1.146.146 0 0 1 .098-.186c1.062-.304 2.582-.429 3.852.166a3.608 3.608 0 0 1 1.681 1.604c.417.777.652 1.814.618 3.174.204 1.956.95 4.764 2.516 6.853.783 1.044 1.767 1.904 2.987 2.392 1.218.487 2.682.608 4.434.157 1.31-.378 2.601-1.269 3.687-2.24z" fill="#FBC02D" stroke="#F1AC00" stroke-width="3"/><path fill-rule="evenodd" clip-rule="evenodd" d="M123.803 43.424a17.45 17.45 0 0 0 3.386.757.151.151 0 0 1 .135.164.147.147 0 0 1-.162.134 17.74 17.74 0 0 1-3.453-.771c-1.411-.466-2.885-1.161-3.914-2.152l-.002-.002-.001-.001c-1.307-1.333-1.969-2.718-2.167-4.087-.197-1.367.069-2.705.598-3.943 1.055-2.471 3.164-4.564 4.783-5.736l.008-.006.008-.005c1.167-.634 1.905-1.326 2.337-2.022.431-.695.562-1.4.504-2.076-.112-1.295-.925-2.484-1.688-3.223a.153.153 0 0 1-.007-.212.145.145 0 0 1 .209-.008c.795.767 1.663 2.021 1.784 3.418a3.613 3.613 0 0 1-.548 2.258c-.465.75-1.244 1.472-2.44 2.123-1.591 1.155-3.65 3.206-4.675 5.607-.513 1.2-.765 2.482-.577 3.783.188 1.298.816 2.626 2.083 3.918.982.945 2.407 1.622 3.799 2.082z" fill="#FBC02D" stroke="#F1AC00" stroke-width="3"/><path fill-rule="evenodd" clip-rule="evenodd" d="M107.088 55.575c.281 1.34.71 2.544 1.04 3.292a.15.15 0 0 1-.074.2.147.147 0 0 1-.197-.075 17.637 17.637 0 0 1-1.061-3.356c-.303-1.446-.439-3.06-.096-4.447v-.002l.001-.002c.499-1.799 1.368-3.065 2.454-3.92 1.085-.856 2.377-1.295 3.713-1.456 2.668-.323 5.535.456 7.36 1.27l.009.005.008.005c1.134.693 2.102.986 2.921 1.011a3.31 3.31 0 0 0 2.048-.602c1.066-.745 1.689-2.043 1.947-3.073a.152.152 0 0 1 .18-.113.146.146 0 0 1 .112.177c-.267 1.072-.918 2.452-2.067 3.255a3.613 3.613 0 0 1-2.23.655c-.881-.027-1.897-.34-3.059-1.05-1.796-.8-4.601-1.557-7.193-1.243-1.296.156-2.532.58-3.564 1.393-1.03.812-1.866 2.02-2.351 3.763-.326 1.324-.199 2.886.099 4.313z" fill="#FBC02D" stroke="#F1AC00" stroke-width="3"/><path fill-rule="evenodd" clip-rule="evenodd" d="M88.02 47.485a17.452 17.452 0 0 0-2.31 2.59.151.151 0 0 1-.209.038.148.148 0 0 1-.038-.207 17.747 17.747 0 0 1 2.355-2.64c1.094-1.006 2.42-1.955 3.786-2.371l.002-.001h.002c1.8-.494 3.332-.397 4.624.097 1.29.493 2.33 1.377 3.153 2.442 1.645 2.125 2.446 4.986 2.682 6.97l.001.01v.01c-.014 1.328.231 2.31.629 3.026a3.307 3.307 0 0 0 1.567 1.45c1.186.534 2.621.403 3.637.096a.152.152 0 0 1 .189.097.146.146 0 0 1-.095.187c-1.057.32-2.575.468-3.854-.107a3.613 3.613 0 0 1-1.706-1.578c-.428-.77-.679-1.804-.666-3.165-.234-1.952-1.022-4.749-2.62-6.813-.8-1.032-1.797-1.877-3.024-2.346-1.225-.468-2.691-.567-4.436-.089-1.304.398-2.589 1.313-3.669 2.304z" fill="#FBC02D" stroke="#F1AC00" stroke-width="3"/><path fill-rule="evenodd" clip-rule="evenodd" d="M85.764 26.704c-1.199-.529-2.344-.858-3.134-.947a.154.154 0 0 1-.137-.164.146.146 0 0 1 .16-.135c.833.093 2.013.435 3.231.973 1.294.57 2.646 1.367 3.682 2.335l.002.002.002.001c1.327 1.312 2.01 2.687 2.229 4.052.218 1.364-.028 2.707-.537 3.952-1.017 2.488-3.094 4.612-4.694 5.81l-.008.006-.008.004c-1.158.653-1.885 1.356-2.306 2.059-.42.7-.54 1.409-.471 2.082.131 1.294.962 2.47 1.737 3.197.06.057.065.151.01.213a.146.146 0 0 1-.21.01c-.806-.754-1.693-1.995-1.835-3.39a3.611 3.611 0 0 1 .513-2.266c.453-.756 1.221-1.49 2.407-2.16 1.573-1.18 3.6-3.261 4.588-5.678.494-1.208.727-2.494.519-3.791-.208-1.295-.856-2.614-2.143-3.886-1.005-.937-2.324-1.717-3.597-2.279z" fill="#FBC02D" stroke="#F1AC00" stroke-width="3"/></svg>