<svg width="23" height="23" fill="none" xmlns="http://www.w3.org/2000/svg"><path d="M17.225 14.889a1.285 1.285 0 0 0-1.309.007l-2.046 1.219a1.28 1.28 0 0 1-1.45-.087c-.726-.567-1.895-1.521-2.912-2.538s-1.971-2.186-2.538-2.912a1.28 1.28 0 0 1-.087-1.45l1.219-2.046a1.29 1.29 0 0 0 .005-1.313L5.105.64A1.294 1.294 0 0 0 3.677.038C3.134.17 2.429.492 1.69 1.232-.624 3.546-1.853 7.449 6.849 16.15c8.702 8.702 12.604 7.474 14.919 5.159.741-.741 1.062-1.447 1.195-1.991a1.288 1.288 0 0 0-.6-1.422l-5.138-3.008z" fill="#A2A3A5"/></svg>