<svg width="22" height="19" fill="none" xmlns="http://www.w3.org/2000/svg"><path d="M11.488 1.403a2.875 2.875 0 0 1 2.21 2.795 2.875 2.875 0 0 1-2.21 2.795v11.344a.663.663 0 1 1-1.325 0V6.993a2.875 2.875 0 0 1-2.21-2.795c0-1.358.944-2.496 2.21-2.795v-.74a.663.663 0 0 1 1.325 0v.74zm-2.21 2.795a1.548 1.548 0 0 0 3.094 0c0-.853-.694-1.547-1.547-1.547-.852 0-1.546.694-1.546 1.547zm-5.743 7.809a2.875 2.875 0 0 1 2.21 2.795 2.875 2.875 0 0 1-2.21 2.795v.74a.663.663 0 1 1-1.326 0v-.74A2.875 2.875 0 0 1 0 14.802c0-1.357.944-2.495 2.21-2.795V.663a.663.663 0 1 1 1.325 0v11.344zm-2.21 2.795c0 .853.694 1.547 1.547 1.547s1.547-.694 1.547-1.547a1.547 1.547 0 0 0-3.093 0zM19.442 8.03a2.875 2.875 0 0 1 2.21 2.796 2.875 2.875 0 0 1-2.21 2.795v4.716a.663.663 0 0 1-1.326 0v-4.716a2.875 2.875 0 0 1-2.209-2.795c0-1.358.944-2.496 2.21-2.795V.663a.663.663 0 1 1 1.325 0V8.03zm-2.21 2.796a1.548 1.548 0 0 0 3.094 0c0-.853-.694-1.547-1.547-1.547-.852 0-1.546.693-1.546 1.547z" fill="#333"/></svg>