<svg width="20" height="20" fill="none" xmlns="http://www.w3.org/2000/svg"><path d="M14.033 1.092H5.966C3.228 1.092 1 3.309 1 6.034v8.025c0 2.726 2.228 4.943 4.967 4.943h8.066c2.739 0 4.967-2.218 4.967-4.943V6.034c0-2.725-2.228-4.942-4.967-4.942zm3.37 12.967a3.366 3.366 0 0 1-3.37 3.354H5.967c-1.858 0-3.37-1.505-3.37-3.354V6.034c0-1.849 1.512-3.353 3.37-3.353h8.066c1.858 0 3.37 1.504 3.37 3.353v8.025h0z" fill="#fff" stroke="#646469" stroke-width=".3"/><path d="M10 5.072c-2.757 0-5 2.232-5 4.975 0 2.743 2.243 4.975 5 4.975s5-2.232 5-4.975c0-2.743-2.243-4.975-5-4.975zm0 8.236c-1.808 0-3.278-1.463-3.278-3.261A3.274 3.274 0 0 1 10 6.785a3.274 3.274 0 0 1 3.278 3.262c0 1.798-1.47 3.261-3.278 3.261zm5-9.232a.997.997 0 0 0-1 .995 1 1 0 0 0 2 0 .997.997 0 0 0-1-.995z" fill="#fff" stroke="#646469" stroke-width=".3"/></svg>