<svg width="20" height="20" fill="none" xmlns="http://www.w3.org/2000/svg"><g opacity=".8"><path d="M14.667 18a1.333 1.333 0 1 0 0-2.667 1.333 1.333 0 0 0 0 2.667zM8 18a1.333 1.333 0 1 0 0-2.667A1.333 1.333 0 0 0 8 18zm8-4.667H7L4.667 6H18l-2 7.333z" fill="#333"/><path d="M1.333 2h1.252a1 1 0 0 1 .96.718l2.84 9.659c.167.566.688.956 1.279.956h7.317c.602 0 1.128-.402 1.287-.982L18 6H4.667" stroke="#333" stroke-width="2" stroke-miterlimit="10" stroke-linecap="round" stroke-linejoin="round"/></g></svg>