<svg width="20" height="20" fill="none" xmlns="http://www.w3.org/2000/svg"><path d="M14.034 1H5.967A4.973 4.973 0 0 0 1 5.967v8.066A4.973 4.973 0 0 0 5.968 19h8.066A4.973 4.973 0 0 0 19 14.033V5.967A4.973 4.973 0 0 0 14.033 1zm3.37 13.033a3.374 3.374 0 0 1-3.37 3.37H5.968a3.374 3.374 0 0 1-3.37-3.37V5.967a3.374 3.374 0 0 1 3.37-3.37h8.066a3.374 3.374 0 0 1 3.37 3.37v8.066h0z" fill="#646469" stroke="#646469" stroke-width=".3"/><path d="M10.001 5c-2.757 0-5 2.243-5 5s2.243 5 5 5 5-2.243 5-5-2.243-5-5-5zm0 8.278A3.282 3.282 0 0 1 6.723 10 3.282 3.282 0 0 1 10 6.722 3.282 3.282 0 0 1 13.279 10a3.282 3.282 0 0 1-3.278 3.278zm5-9.278a1.004 1.004 0 0 0-1 1 1.006 1.006 0 0 0 1 1c.264 0 .52-.107.707-.293a1.004 1.004 0 0 0 0-1.415A1.004 1.004 0 0 0 15.001 4z" fill="#646469" stroke="#646469" stroke-width=".3"/></svg>