<svg width="24" height="24" fill="none" xmlns="http://www.w3.org/2000/svg"><g clip-path="url(#clip0)"><path d="M3.08 12.791C.916 12.791.8 10.788.8 10.4" stroke="#D0D4D5" stroke-width="2" stroke-miterlimit="10" stroke-linecap="round" stroke-linejoin="round"/><path d="M20.528 12.409a1.532 1.532 0 0 1-.678-.936c-.1-.44-.251-.867-.446-1.275a1.57 1.57 0 0 1-.02-1.293L20.8 5.6c-1.68 0-2.933.423-3.824.915a1.548 1.548 0 0 1-1.404.038A10.28 10.28 0 0 0 11.2 5.6c-4.86 0-8.8 3.223-8.8 7.2 0 1.591.639 3.057 1.707 4.248L5.9 21.233c.278.647.882 1.135 1.586 1.165a1.765 1.765 0 0 0 1.826-2.014l-.008-.056a.383.383 0 0 1 .434-.433c.475.067.963.105 1.462.105.5 0 .988-.038 1.464-.105.262-.037.466.183.43.446-.108.797.296 1.614 1.042 1.918.953.39 1.953-.07 2.322-.93l1.037-2.419c.2-.468.613-.813 1.11-.928l1.708-.395.883-4.747-.668-.431z" fill="#D0D4D5"/><path d="M21.49 15.303c-.246 1.323-.83 2.351-1.303 2.296-.473-.056-.656-1.177-.41-2.5.247-1.325.83-2.353 1.304-2.296.473.055.656 1.175.41 2.5zM11.2 4c.819 0 1.611.089 2.376.24.006-.08.024-.158.024-.24a3.2 3.2 0 1 0-6.331.658A11.98 11.98 0 0 1 11.2 4z" fill="#D0D4D5"/></g><defs><clipPath id="clip0"><path fill="#fff" d="M0 0h24v24H0z"/></clipPath></defs></svg>