<svg width="17" height="17" fill="none" xmlns="http://www.w3.org/2000/svg"><circle opacity=".6" cx="8.5" cy="8.5" r="8" stroke="#F1AC00"/><path d="M7.475 10.024c0-.455.055-.818.166-1.088.11-.27.312-.536.605-.796.296-.264.493-.477.59-.64.099-.166.147-.34.147-.522 0-.55-.254-.826-.761-.826a.776.776 0 0 0-.581.225c-.144.146-.218.35-.225.61H6c.007-.621.207-1.108.6-1.46C6.999 5.176 7.539 5 8.223 5c.69 0 1.225.168 1.606.503.381.332.571.802.571 1.411 0 .277-.061.539-.185.786-.124.244-.34.516-.65.816l-.395.376a1.34 1.34 0 0 0-.425.835l-.02.297h-1.25zm-.142 1.5a.71.71 0 0 1 .22-.538.793.793 0 0 1 .571-.215c.231 0 .42.072.566.215.15.14.225.32.225.537a.705.705 0 0 1-.22.533c-.143.14-.333.21-.571.21a.8.8 0 0 1-.576-.21.713.713 0 0 1-.215-.533z" fill="#F1AC00"/></svg>