<svg width="20" height="12" fill="none" xmlns="http://www.w3.org/2000/svg"><path d="M19.823 10.703c-.054-.094-.387-.854-1.987-2.416-1.675-1.635-1.45-1.37.568-4.197 1.229-1.722 1.72-2.774 1.566-3.224-.146-.428-1.05-.315-1.05-.315l-3.005.018s-.223-.031-.389.073c-.161.102-.265.339-.265.339s-.476 1.333-1.111 2.466c-1.34 2.391-1.875 2.517-2.094 2.369-.509-.346-.381-1.391-.381-2.132 0-2.318.333-3.284-.652-3.534-.327-.083-.567-.138-1.404-.147C8.547-.01 7.64.007 7.124.27c-.342.176-.606.57-.445.591.199.028.649.128.888.47.309.44.297 1.431.297 1.431s.178 2.728-.413 3.067c-.407.233-.963-.242-2.157-2.412-.611-1.11-1.074-2.34-1.074-2.34S4.132.85 3.973.728A1.19 1.19 0 0 0 3.51.53L.653.55S.223.563.066.759c-.14.174-.011.535-.011.535s2.238 5.504 4.77 8.279c2.324 2.543 4.962 2.376 4.962 2.376h1.195s.361-.042.545-.25c.17-.193.164-.553.164-.553s-.024-1.686.721-1.935c.734-.244 1.676 1.63 2.675 2.352.755.545 1.33.426 1.33.426l2.67-.04s1.398-.09.736-1.246z" fill="#646469"/></svg>