<svg width="19" height="21" fill="none" xmlns="http://www.w3.org/2000/svg"><path d="M17.394 9.391l-8.131 8.132a3.999 3.999 0 0 1-5.657 0 3.999 3.999 0 0 1 0-5.657l8.839-8.839a2.501 2.501 0 0 1 3.535 3.536l-7.424 7.424a1.003 1.003 0 0 1-1.415 0 1.003 1.003 0 0 1 0-1.414l6.718-6.717-1.06-1.061-6.718 6.717a2.5 2.5 0 0 0 3.535 3.536l7.425-7.425a3.999 3.999 0 0 0 0-5.656 3.999 3.999 0 0 0-5.657 0l-8.839 8.838a5.497 5.497 0 0 0 0 7.779 5.497 5.497 0 0 0 7.778 0l8.132-8.132-1.06-1.06z" fill="#A17C21"/></svg>