<svg width="25" height="25" fill="none" xmlns="http://www.w3.org/2000/svg"><g clip-path="url(#clip0)"><path d="M3.208 13.324c-2.254 0-2.375-2.087-2.375-2.49" stroke="#A2A3A5" stroke-width="2" stroke-miterlimit="10" stroke-linecap="round" stroke-linejoin="round"/><path d="M21.383 12.926a1.596 1.596 0 0 1-.706-.975 6.31 6.31 0 0 0-.465-1.328 1.635 1.635 0 0 1-.02-1.347l1.475-3.443c-1.75 0-3.056.441-3.985.953a1.608 1.608 0 0 1-1.461.04 10.708 10.708 0 0 0-4.554-.993c-5.063 0-9.167 3.358-9.167 7.5 0 1.658.665 3.184 1.777 4.425l1.869 4.36c.289.674.918 1.182 1.652 1.213A1.839 1.839 0 0 0 9.7 21.233l-.008-.058a.399.399 0 0 1 .451-.45 10.88 10.88 0 0 0 3.048-.001c.273-.038.486.19.448.464-.112.831.309 1.682 1.085 1.999a1.846 1.846 0 0 0 2.42-.97l1.08-2.519a1.668 1.668 0 0 1 1.156-.967l1.78-.412.92-4.944-.697-.45z" fill="#A2A3A5"/><path d="M22.386 15.94c-.257 1.38-.865 2.45-1.358 2.392-.492-.059-.683-1.225-.427-2.605.257-1.379.865-2.45 1.358-2.391.492.058.683 1.224.427 2.604zM11.667 4.167c.852 0 1.678.092 2.475.25.006-.084.025-.165.025-.25a3.333 3.333 0 1 0-6.595.685 12.478 12.478 0 0 1 4.095-.685z" fill="#A2A3A5"/></g><defs><clipPath id="clip0"><path fill="#fff" d="M0 0h25v25H0z"/></clipPath></defs></svg>