<svg width="32" height="32" fill="none" xmlns="http://www.w3.org/2000/svg"><path fill-rule="evenodd" clip-rule="evenodd" d="M16 0a16.21 16.21 0 0 1 9.487 3.037c-5.063 2.381-9.733 7.63-14.747 12.975-2.875 3.062-5.628 6.075-8.405 8.553A15.926 15.926 0 0 1 0 18.369l.91-.972C6.045 11.954 10.79 6.56 16 4.252c-4.227-1.847-7.963-1.36-11.527.486A16.369 16.369 0 0 1 16 0zm13.665 7.435c-2.777 2.478-5.53 5.516-8.405 8.577-5.014 5.321-9.66 10.57-14.747 12.95A16.325 16.325 0 0 0 16 32a16.19 16.19 0 0 0 11.256-4.52c-3.49 1.75-7.151 2.163-11.256.365 5.21-2.308 9.979-7.678 15.09-13.145l.91-.972c-.295-2.284-1.13-4.422-2.335-6.293z" fill="#FBC02D"/></svg>