<svg width="114" height="24" fill="none" xmlns="http://www.w3.org/2000/svg"><path d="M7.49 18.493v-1.306a6.42 6.42 0 0 1-.414.448c-.171.17-.548.401-1.133.692a4.159 4.159 0 0 1-1.827.422c-1.218 0-2.208-.354-2.971-1.063C.382 16.97 0 16.102 0 15.086c0-1.05.32-1.925.962-2.625.641-.7 1.526-1.157 2.655-1.37l3.873-.73c0-.538-.187-.978-.56-1.32-.374-.34-.894-.512-1.56-.512a3.4 3.4 0 0 0-1.51.333c-.454.214-.775.436-.962.666l-.28.308-1.863-1.96.195-.269c.09-.12.28-.32.572-.602.3-.281.625-.529.975-.742.349-.222.807-.423 1.376-.602a5.515 5.515 0 0 1 1.741-.282c1.543 0 2.801.487 3.775 1.46.975.965 1.462 2.181 1.462 3.65v8.004H7.49zm-2.497-2.625c.763 0 1.368-.252 1.815-.756.454-.512.682-1.22.682-2.126v-.397l-2.74.525c-.918.154-1.377.636-1.377 1.447 0 .871.54 1.307 1.62 1.307zM17.598 5.635v12.858h-3.374V5.635h3.373zM17.305.538c.357.358.536.837.536 1.434 0 .59-.179 1.063-.536 1.422-.357.358-.844.538-1.461.538-.569 0-1.023-.18-1.364-.538-.333-.359-.5-.833-.5-1.422 0-.597.171-1.076.512-1.434.341-.359.792-.538 1.352-.538.617 0 1.104.18 1.461.538zm11.021 4.969v3.547c-.251-.085-.625-.132-1.12-.14-.885 0-1.587.294-2.107.883-.511.59-.767 1.435-.767 2.536v6.16h-3.361V5.635h3.361V7.21a7.79 7.79 0 0 1 .414-.46c.179-.197.568-.453 1.17-.77a4.098 4.098 0 0 1 1.911-.473h.5zm18.584 7.735h-8.853c.13.7.483 1.294 1.06 1.78.576.479 1.302.718 2.18.718.633 0 1.217-.129 1.753-.385.544-.264.925-.529 1.145-.794l.353-.397 1.741 2.357-.219.23c-.105.111-.325.295-.657.551a8.21 8.21 0 0 1-1.06.692c-.373.196-.86.371-1.461.525a7.296 7.296 0 0 1-1.84.23c-1.794 0-3.324-.653-4.59-1.96-1.267-1.314-1.9-2.89-1.9-4.725 0-1.836.625-3.407 1.875-4.713 1.25-1.315 2.748-1.972 4.494-1.972 1.745 0 3.199.615 4.36 1.844 1.16 1.221 1.741 2.75 1.741 4.585l-.122 1.434zm-4.177-4.175c-.487-.444-1.088-.666-1.802-.666-.715 0-1.323.218-1.827.653-.495.436-.844 1.004-1.047 1.704h5.614a2.942 2.942 0 0 0-.938-1.69zm10.169-3.432V7.21c.097-.136.236-.303.414-.5.179-.204.568-.477 1.17-.819a3.854 3.854 0 0 1 1.911-.512c1.397 0 2.533.508 3.41 1.524.885 1.016 1.328 2.386 1.328 4.11v7.48h-3.362v-7.082c0-.786-.223-1.417-.67-1.896-.438-.486-1.006-.73-1.704-.73-.764 0-1.373.265-1.827.795-.447.52-.67 1.263-.67 2.228v6.685h-3.361V5.635h3.361zm23.066 7.607h-8.854c.13.7.483 1.294 1.06 1.78.576.479 1.303.718 2.18.718.633 0 1.217-.129 1.753-.385.544-.264.926-.529 1.145-.794l.353-.397 1.741 2.357-.219.23c-.105.111-.325.295-.657.551a8.203 8.203 0 0 1-1.06.692c-.373.196-.86.371-1.461.525a7.296 7.296 0 0 1-1.84.23c-1.793 0-3.324-.653-4.59-1.96-1.267-1.314-1.9-2.89-1.9-4.725 0-1.836.625-3.407 1.875-4.713 1.25-1.315 2.749-1.972 4.494-1.972 1.746 0 3.199.615 4.36 1.844 1.16 1.221 1.741 2.75 1.741 4.585l-.121 1.434zM71.79 9.067c-.487-.444-1.088-.666-1.802-.666s-1.323.218-1.827.653c-.495.436-.844 1.004-1.047 1.704h5.614a2.942 2.942 0 0 0-.938-1.69zm14.164-3.56v3.547c-.252-.085-.625-.132-1.12-.14-.886 0-1.588.294-2.108.883-.511.59-.767 1.435-.767 2.536v6.16h-3.361V5.635h3.361V7.21c.098-.12.236-.273.414-.46.179-.197.569-.453 1.17-.77a4.098 4.098 0 0 1 1.911-.473h.5zm10.229 11.936v-1.05c-.032.051-.085.12-.158.205a6.845 6.845 0 0 1-.438.435c-.22.205-.46.393-.719.564-.252.162-.588.311-1.01.448a4.343 4.343 0 0 1-1.292.192c-1.396 0-2.663-.636-3.8-1.908-1.128-1.281-1.692-2.788-1.692-4.521s.564-3.236 1.693-4.508c1.136-1.28 2.403-1.921 3.8-1.921a4.29 4.29 0 0 1 1.96.46c.609.308 1.035.607 1.279.897l.377.474V5.635h3.361v11.808c0 1.853-.617 3.406-1.85 4.662C96.466 23.368 94.923 24 93.065 24a6.824 6.824 0 0 1-2.01-.295c-.641-.187-1.173-.414-1.595-.678a8.232 8.232 0 0 1-1.108-.794c-.317-.274-.54-.504-.67-.692l-.231-.294 2.119-2.1c.08.119.203.277.365.473.17.196.548.448 1.132.756.585.316 1.21.473 1.876.473.998 0 1.786-.307 2.362-.922.585-.606.877-1.434.877-2.484zm-4.822-7.89c-.528.59-.792 1.341-.792 2.255 0 .905.264 1.656.792 2.254.536.598 1.185.896 1.948.896.772 0 1.441-.307 2.01-.922.576-.614.864-1.357.864-2.228 0-.88-.288-1.622-.864-2.228-.569-.615-1.238-.923-2.01-.923-.763 0-1.412.3-1.948.897zm14.285 9.721l.377-.909-4.737-12.73h3.495l2.862 8.53 2.874-8.53H114l-4.859 13.64c-1.112 3.15-2.691 4.725-4.737 4.725-.366 0-.727-.034-1.084-.102a4.667 4.667 0 0 1-.792-.205l-.243-.09v-3.138c.332.171.747.256 1.242.256 1.015 0 1.721-.482 2.119-1.447z" fill="#333"/></svg>