<svg width="148" height="30" fill="none" xmlns="http://www.w3.org/2000/svg"><path d="M10.563 22.84v-1.594a8 8 0 0 1-.532.547c-.219.208-.703.49-1.453.844a5.563 5.563 0 0 1-2.344.515c-1.562 0-2.833-.432-3.812-1.297-.98-.875-1.469-1.932-1.469-3.171 0-1.282.412-2.35 1.235-3.204.822-.854 1.958-1.411 3.406-1.671l4.968-.891c0-.656-.24-1.193-.718-1.61-.48-.416-1.146-.624-2-.624-.709 0-1.354.135-1.938.406-.583.26-.995.531-1.234.812l-.36.375-2.39-2.39c.062-.084.146-.193.25-.328.114-.146.36-.391.734-.735a7.649 7.649 0 0 1 1.25-.906c.448-.27 1.037-.516 1.766-.734a7.41 7.41 0 0 1 2.234-.344c1.98 0 3.594.594 4.844 1.781 1.25 1.177 1.875 2.662 1.875 4.453v9.766h-4.313zm-3.204-3.203c.98 0 1.756-.308 2.329-.922.583-.625.874-1.49.874-2.594v-.484l-3.515.64c-1.177.188-1.766.776-1.766 1.766 0 1.063.693 1.594 2.078 1.594zM23.531 7.152V22.84h-4.328V7.152h4.328zM23.156.934c.459.437.688 1.02.688 1.75 0 .718-.23 1.296-.688 1.734-.458.437-1.083.656-1.875.656-.729 0-1.312-.219-1.75-.656-.427-.438-.64-1.016-.64-1.734 0-.73.218-1.313.656-1.75.437-.438 1.015-.657 1.734-.657.792 0 1.417.22 1.875.657zm14.14 6.062v4.328c-.322-.104-.801-.161-1.437-.172-1.135 0-2.036.36-2.703 1.079-.656.718-.984 1.75-.984 3.093v7.516h-4.313V7.152h4.313v1.922c.125-.146.302-.333.531-.562.23-.24.73-.552 1.5-.938a5.477 5.477 0 0 1 2.453-.578h.64zm23.845 9.438H49.78c.167.854.62 1.578 1.36 2.171.74.584 1.672.875 2.797.875.812 0 1.562-.156 2.25-.468.697-.323 1.187-.646 1.468-.969l.453-.484 2.235 2.875-.282.28c-.135.136-.416.36-.843.673a10.6 10.6 0 0 1-1.36.843c-.479.24-1.104.454-1.875.641a9.82 9.82 0 0 1-2.359.281c-2.302 0-4.266-.797-5.89-2.39-1.626-1.604-2.438-3.526-2.438-5.766s.802-4.156 2.406-5.75C49.307 7.642 51.23 6.84 53.47 6.84s4.104.75 5.593 2.25c1.49 1.49 2.235 3.354 2.235 5.594l-.156 1.75zm-5.36-5.094c-.625-.542-1.396-.813-2.312-.813-.917 0-1.698.266-2.344.797-.635.531-1.083 1.224-1.344 2.078h7.203a3.547 3.547 0 0 0-1.203-2.062zm13.047-4.188v1.922c.125-.166.302-.37.531-.61.23-.25.73-.582 1.5-1a5.143 5.143 0 0 1 2.454-.624c1.791 0 3.25.62 4.374 1.86 1.136 1.239 1.704 2.91 1.704 5.015v9.125h-4.313V14.2c0-.96-.286-1.73-.86-2.313-.562-.594-1.29-.89-2.187-.89-.979 0-1.76.322-2.344.968-.572.635-.859 1.542-.859 2.719v8.156h-4.312V7.152h4.312zm29.594 9.282h-11.36c.167.854.62 1.578 1.36 2.171.74.584 1.672.875 2.797.875.812 0 1.562-.156 2.25-.468.698-.323 1.187-.646 1.469-.969l.453-.484 2.234 2.875-.281.28c-.136.136-.417.36-.844.673a10.6 10.6 0 0 1-1.36.843c-.478.24-1.103.454-1.874.641a9.819 9.819 0 0 1-2.36.281c-2.302 0-4.265-.797-5.89-2.39-1.625-1.604-2.438-3.526-2.438-5.766s.802-4.156 2.406-5.75C86.59 7.642 88.51 6.84 90.75 6.84s4.104.75 5.594 2.25c1.49 1.49 2.234 3.354 2.234 5.594l-.156 1.75zm-5.36-5.094c-.624-.542-1.395-.813-2.312-.813-.917 0-1.698.266-2.344.797-.635.531-1.083 1.224-1.344 2.078h7.204a3.547 3.547 0 0 0-1.204-2.062zm18.172-4.344v4.328c-.323-.104-.802-.161-1.437-.172-1.136 0-2.037.36-2.703 1.079-.656.718-.985 1.75-.985 3.093v7.516h-4.312V7.152h4.312v1.922c.125-.146.302-.333.532-.562.229-.24.729-.552 1.5-.938a5.476 5.476 0 0 1 2.453-.578h.64zm13.125 14.563v-1.282a2.266 2.266 0 0 1-.203.25 8.588 8.588 0 0 1-.562.532 6.91 6.91 0 0 1-.922.687c-.323.198-.755.38-1.297.547a5.837 5.837 0 0 1-1.656.234c-1.792 0-3.417-.776-4.875-2.328-1.448-1.562-2.172-3.4-2.172-5.515 0-2.115.724-3.948 2.172-5.5 1.458-1.563 3.083-2.344 4.875-2.344.896 0 1.734.187 2.515.562.782.375 1.328.74 1.641 1.094l.484.578V7.152h4.313V21.56c0 2.26-.792 4.156-2.375 5.687-1.573 1.542-3.552 2.313-5.938 2.313a9.18 9.18 0 0 1-2.578-.36c-.823-.229-1.505-.505-2.047-.828a10.641 10.641 0 0 1-1.422-.969c-.406-.333-.692-.614-.859-.843l-.297-.36 2.719-2.562c.104.146.26.338.469.578.218.24.703.547 1.453.922a5.19 5.19 0 0 0 2.406.578c1.281 0 2.292-.375 3.031-1.125.75-.74 1.125-1.75 1.125-3.031zm-6.187-9.625c-.677.718-1.016 1.635-1.016 2.75 0 1.104.339 2.02 1.016 2.75.687.729 1.521 1.093 2.5 1.093.989 0 1.849-.375 2.578-1.125.74-.75 1.109-1.656 1.109-2.718 0-1.073-.369-1.98-1.109-2.72-.729-.75-1.589-1.124-2.578-1.124-.979 0-1.813.364-2.5 1.094zM136.5 23.793l.484-1.11-6.078-15.53h4.485l3.671 10.406 3.688-10.407h4.469l-6.235 16.641c-1.427 3.844-3.453 5.766-6.078 5.766-.468 0-.932-.042-1.39-.125-.459-.084-.797-.167-1.016-.25l-.312-.11v-3.828c.427.208.958.313 1.593.313 1.302 0 2.209-.589 2.719-1.766z" fill="#fff"/></svg>