<svg width="71" height="66" fill="none" xmlns="http://www.w3.org/2000/svg"><path d="M37.436 13.186l-.019-.039-.028-.033-5.3-6.233-.609.301 1.744 7.994.01.042.018.039a2.333 2.333 0 1 0 4.184-2.071z" fill="#F1AC00" stroke="#F1AC00" stroke-width=".7"/><path d="M61.679 52.133l-.003 13.147v.35h8.221V52.257c.018-1.082-.084-6.681-4.035-10.733-2.41-2.472-5.753-3.767-9.642-3.767h-6.17v-3.685h-9.503v-5.395c5.4-2.116 9.244-7.364 9.244-13.51C49.791 7.163 43.28.65 35.274.65S20.756 7.162 20.756 15.168c0 6.145 3.844 11.393 9.244 13.509v5.395h-9.503v3.685h-6.169c-3.889 0-7.232 1.294-9.642 3.767C.735 45.574.633 51.174.65 52.245V65.63h8.221V52.147c0-.004 0-.803.22-1.822.221-1.026.657-2.228 1.497-3.079.826-.835 2.027-1.268 3.74-1.268h6.17v3.684h29.554v-3.684h6.168c1.714 0 2.916.433 3.741 1.268h0c.836.846 1.272 2.044 1.495 3.068a10.285 10.285 0 0 1 .219 1.677c.004.092.004.142.004.142zm0 0v0h.35m-.35 0h.35m0 0l-.003 12.797m.003-12.797l-.003 12.797m0 0v.35h.35v0h7.171V52.254c.018-1.058-.085-6.537-3.935-10.486L62.026 64.93zM24.22 14.059h-1.385a12.428 12.428 0 0 1 2.929-6.978l1.24 1.24.252.252.248-.257c.314-.326.646-.633.997-.915l.304-.244-.276-.276-1.277-1.278a12.425 12.425 0 0 1 6.973-2.878v2.34l.372-.024.157-.01a7.54 7.54 0 0 1 .52-.024c.169 0 .333.011.51.023l.166.012.372.023v-2.34a12.43 12.43 0 0 1 6.975 2.878L42.019 6.88l-.275.275.303.245c.351.282.682.59.997.916l.247.257.253-.252 1.24-1.24a12.43 12.43 0 0 1 2.93 6.978H45.93l.05.393c.056.45.093.898.093 1.354v.35h1.65c-.508 6.432-5.89 11.515-12.449 11.515-6.56 0-11.942-5.083-12.45-11.516h1.65v-.35c0-.455.036-.904.093-1.353l.05-.394h-.397zM6.856 52.154v11.463h-4.19V52.224c-.01-.581.009-5.753 3.462-9.294h0c2.007-2.058 4.833-3.159 8.201-3.159h6.169v4.193h-6.169c-2.208 0-3.919.597-5.173 1.867l.249.246c-2.208 2.235-2.199 5.925-2.198 6.075h-.35v.002zm61.027.082v11.381h-4.191v-11.48l-.35-.002h.35v.001c0-.099-.005-1.087-.288-2.337-.284-1.25-.854-2.797-2.011-3.969h0c-1.255-1.27-2.965-1.866-5.173-1.866h-6.17V39.77h6.17c3.367 0 6.194 1.101 8.201 3.16 3.454 3.542 3.472 8.712 3.462 9.306zM50.05 44.314h-.35v-.35l.35.35zM38.533 29.687v4.386h-6.519v-4.386h6.519zm9.504 17.961H22.51V36.086h25.526v11.562z" fill="#F1AC00" stroke="#F1AC00" stroke-width=".7"/></svg>