<svg width="81" height="77" fill="none" xmlns="http://www.w3.org/2000/svg"><g clip-path="url(#clip0)" fill="#F1AC00"><path d="M77.203 51.334H64.547V50.05c0-.34-.133-.667-.37-.907a1.257 1.257 0 0 0-.896-.376H58.22c-.336 0-.658.135-.895.376-.237.24-.37.567-.37.907v1.284H49.36v-7.7c0-.34-.133-.667-.37-.908a1.257 1.257 0 0 0-.895-.376h-1.266V38.5c0-.34-.133-.667-.37-.907a1.257 1.257 0 0 0-.895-.376h-1.266V34.65h1.266c.335 0 .657-.135.894-.376.238-.24.371-.567.371-.907v-5.133c0-.34-.133-.667-.37-.908a1.257 1.257 0 0 0-.895-.376h-1.266V23.1h7.005a3.15 3.15 0 0 1 2.27.952l1.176 1.194a5.715 5.715 0 0 0 2.94 1.593 5.666 5.666 0 0 0 3.316-.331 5.757 5.757 0 0 0 2.576-2.144c.63-.957.967-2.083.967-3.234v-3.76a5.878 5.878 0 0 0-.967-3.234 5.758 5.758 0 0 0-2.576-2.143 5.666 5.666 0 0 0-3.317-.332 5.716 5.716 0 0 0-2.939 1.593l-1.177 1.194a3.185 3.185 0 0 1-1.04.707c-.39.163-.807.247-1.229.245h-7.005v-3.85c0-.34-.133-.667-.37-.907a1.257 1.257 0 0 0-.896-.376H37.97c-.336 0-.658.135-.895.376-.237.24-.37.567-.37.907v3.85h-8.272a3.149 3.149 0 0 1-1.228-.245 3.185 3.185 0 0 1-1.041-.707l-1.177-1.194a5.716 5.716 0 0 0-2.939-1.593 5.666 5.666 0 0 0-3.316.332 5.758 5.758 0 0 0-2.576 2.143 5.878 5.878 0 0 0-.968 3.234v3.76c0 1.151.337 2.277.968 3.234a5.757 5.757 0 0 0 2.576 2.144 5.666 5.666 0 0 0 3.316.331 5.715 5.715 0 0 0 2.939-1.593l1.177-1.194a3.15 3.15 0 0 1 2.27-.952h8.27v3.85h-1.266c-.335 0-.657.135-.894.376-.238.24-.371.567-.371.907v5.134c0 .34.133.667.37.907.238.241.56.376.895.376h1.266v2.567h-1.266c-.335 0-.657.135-.894.376-.238.24-.371.567-.371.907v3.85h-1.266c-.335 0-.657.135-.895.376-.237.24-.37.567-.37.907v7.7h-7.594V50.05c0-.34-.134-.667-.37-.907a1.257 1.257 0 0 0-.896-.376H17.72c-.336 0-.658.135-.895.376-.238.24-.37.567-.37.907v1.284H3.796c-.336 0-.658.135-.895.375-.237.241-.37.567-.37.908v15.4c0 .34.133.667.37.907.237.241.56.376.895.376h12.656c0 .34.134 1.95.37 2.191.238.24.56.376.896.376h5.062c.336 0 .658-.135.895-.376.238-.24.37-.567.37-.907V69.3h32.907v1.284c0 .34.133.666.37.907.238.24.56.376.896.376h5.062c.336 0 .658-.135.895-.376.237-.24.37-.567.37-.907V69.3h12.657c.336 0 .658-.135.895-.376.237-.24.37-.567.37-.907v-15.4c0-.34-.133-.667-.37-.908a1.257 1.257 0 0 0-.895-.376zm-37.969-38.5h2.532V15.4h-2.532v-2.566zm-14.86 9.404l-1.178 1.193a3.196 3.196 0 0 1-1.643.89 3.168 3.168 0 0 1-1.853-.186 3.22 3.22 0 0 1-1.44-1.198 3.286 3.286 0 0 1-.541-1.807v-3.76c0-.643.188-1.272.541-1.807a3.22 3.22 0 0 1 1.44-1.198 3.169 3.169 0 0 1 1.853-.185 3.197 3.197 0 0 1 1.643.89l1.177 1.193a5.697 5.697 0 0 0 1.861 1.264 5.632 5.632 0 0 0 2.198.44h22.87a5.632 5.632 0 0 0 2.198-.44 5.697 5.697 0 0 0 1.861-1.264l1.177-1.194a3.196 3.196 0 0 1 1.643-.89 3.168 3.168 0 0 1 1.853.186 3.22 3.22 0 0 1 1.44 1.198c.353.535.541 1.164.542 1.807v3.76c0 .644-.19 1.272-.542 1.807a3.22 3.22 0 0 1-1.44 1.198 3.168 3.168 0 0 1-1.853.186 3.195 3.195 0 0 1-1.643-.89l-1.177-1.193a5.7 5.7 0 0 0-1.861-1.265 5.634 5.634 0 0 0-2.198-.44h-22.87a5.634 5.634 0 0 0-2.197.44 5.7 5.7 0 0 0-1.862 1.265zm14.86.862h2.532v3.85h-2.532V23.1zm-2.53 6.417h7.593v2.567h-7.594v-2.567zm2.53 5.133h2.532v2.567h-2.532V34.65zm-2.53 5.133h7.593v2.567h-7.594v-2.567zM5.061 66.733V53.9h11.391v12.834H5.063zM21.517 69.3h-2.532V51.334h2.532V69.3zm2.53-2.566V53.9h8.86c.336 0 .658-.135.895-.376.237-.24.37-.567.37-.907v-7.7h12.657v7.7c0 .34.133.667.37.907.238.241.56.376.896.376h8.86v12.834H24.046zm37.97 2.566h-2.532V51.334h2.532V69.3zm13.922-2.566H64.546V53.9h11.39v12.834z"/><path d="M77.203 51.002H64.547v-1.283c0-.34-.133-.667-.37-.908a1.257 1.257 0 0 0-.896-.376H58.22c-.336 0-.658.136-.895.376s-.37.567-.37.908v1.283H49.36v-7.7c0-.34-.133-.667-.37-.907a1.257 1.257 0 0 0-.895-.376h-1.266v-3.85c0-.34-.133-.667-.37-.908a1.257 1.257 0 0 0-.895-.376h-1.266V34.32h1.266c.335 0 .657-.136.894-.376.238-.24.371-.567.371-.908v-5.133c0-.34-.133-.667-.37-.908a1.257 1.257 0 0 0-.895-.375h-1.266v-3.85h7.005a3.143 3.143 0 0 1 2.269.952l1.177 1.193a5.717 5.717 0 0 0 2.94 1.593 5.667 5.667 0 0 0 3.316-.33 5.758 5.758 0 0 0 2.576-2.145c.63-.957.967-2.082.967-3.233v-3.76a5.878 5.878 0 0 0-.967-3.234 5.757 5.757 0 0 0-2.576-2.144 5.666 5.666 0 0 0-3.317-.331 5.715 5.715 0 0 0-2.939 1.593l-1.177 1.193a3.15 3.15 0 0 1-2.27.952h-7.004v-3.85c0-.34-.133-.666-.37-.907a1.257 1.257 0 0 0-.896-.376H37.97c-.336 0-.658.135-.895.376-.237.24-.37.567-.37.908v3.85h-8.272a3.15 3.15 0 0 1-2.269-.953l-1.177-1.193a5.715 5.715 0 0 0-2.939-1.593 5.666 5.666 0 0 0-3.316.331 5.757 5.757 0 0 0-2.576 2.144 5.878 5.878 0 0 0-.968 3.234v3.76c0 1.15.337 2.276.968 3.233a5.757 5.757 0 0 0 2.576 2.144 5.666 5.666 0 0 0 3.316.332 5.717 5.717 0 0 0 2.939-1.594l1.177-1.193a3.185 3.185 0 0 1 1.04-.707c.39-.163.808-.247 1.23-.245h8.27v3.85h-1.266c-.335 0-.657.135-.894.375a1.292 1.292 0 0 0-.371.908v5.133c0 .34.133.667.37.908.238.24.56.376.895.376h1.266v2.566h-1.266c-.335 0-.657.136-.894.376-.238.24-.371.567-.371.908v3.85h-1.266c-.335 0-.657.135-.895.376-.237.24-.37.567-.37.907v7.7h-7.594V49.72a1.3 1.3 0 0 0-.37-.908 1.257 1.257 0 0 0-.896-.376H17.72c-.336 0-.658.136-.895.376-.238.24-.37.567-.37.908v1.283H3.796c-.336 0-.658.135-.895.376-.237.24-.37.567-.37.907v15.4c0 .34.133.667.37.908.237.24.56.376.895.376h12.656c0 .34.134 1.95.37 2.19.238.241.56.376.896.376h5.062c.336 0 .658-.135.895-.376.238-.24.37-.567.37-.907V68.97h32.907v1.283c0 .34.133.667.37.907.238.241.56.376.896.376h5.062c.336 0 .658-.135.895-.376.237-.24.37-.567.37-.907V68.97h12.657c.336 0 .658-.136.895-.376s.37-.567.37-.908v-15.4c0-.34-.133-.666-.37-.907a1.257 1.257 0 0 0-.895-.376zm-37.969-38.5h2.532v2.567h-2.532v-2.567zm-14.86 9.404L23.195 23.1a3.197 3.197 0 0 1-1.643.89 3.169 3.169 0 0 1-1.853-.186 3.22 3.22 0 0 1-1.44-1.198 3.287 3.287 0 0 1-.541-1.807v-3.76c0-.644.188-1.273.541-1.807a3.22 3.22 0 0 1 1.44-1.198 3.169 3.169 0 0 1 1.853-.186 3.196 3.196 0 0 1 1.643.89l1.177 1.193a5.698 5.698 0 0 0 1.861 1.264 5.634 5.634 0 0 0 2.198.44h22.87a5.634 5.634 0 0 0 2.198-.44 5.698 5.698 0 0 0 1.861-1.264l1.177-1.193a3.195 3.195 0 0 1 1.643-.89 3.168 3.168 0 0 1 1.853.186 3.22 3.22 0 0 1 1.44 1.198c.353.534.541 1.163.542 1.807v3.76c0 .643-.19 1.272-.542 1.807a3.22 3.22 0 0 1-1.44 1.198 3.168 3.168 0 0 1-1.853.185 3.196 3.196 0 0 1-1.643-.89l-1.177-1.193a5.697 5.697 0 0 0-1.861-1.264 5.634 5.634 0 0 0-2.198-.44h-22.87a5.634 5.634 0 0 0-2.197.44 5.697 5.697 0 0 0-1.862 1.264zm14.86.863h2.532v3.85h-2.532v-3.85zm-2.53 6.416h7.593v2.567h-7.594v-2.567zm2.53 5.134h2.532v2.566h-2.532V34.32zm-2.53 5.133h7.593v2.567h-7.594v-2.567zM5.061 66.402V53.569h11.391v12.833H5.063zm16.454 2.567h-2.532V51.002h2.532v17.967zm2.53-2.567V53.569h8.86c.336 0 .658-.136.895-.376s.37-.567.37-.908v-7.7h12.657v7.7c0 .34.133.667.37.908.238.24.56.376.896.376h8.86v12.833H24.046zm37.97 2.567h-2.532V51.002h2.532v17.967zm13.922-2.567H64.546V53.569h11.39v12.833z"/><path d="M77.663 51.002H65.007v-1.283c0-.34-.133-.667-.37-.908a1.257 1.257 0 0 0-.896-.376H58.68c-.336 0-.658.136-.895.376-.238.24-.37.567-.37.908v1.283H49.82v-7.7c0-.34-.133-.667-.37-.907a1.257 1.257 0 0 0-.895-.376h-1.266v-3.85c0-.34-.133-.667-.37-.908a1.257 1.257 0 0 0-.895-.376h-1.266V34.32h1.266c.335 0 .657-.136.894-.376.238-.24.371-.567.371-.908v-5.133c0-.34-.133-.667-.37-.908a1.257 1.257 0 0 0-.895-.375h-1.266v-3.85h7.005a3.15 3.15 0 0 1 1.229.245c.39.164.743.404 1.04.707l1.177 1.193a5.716 5.716 0 0 0 2.94 1.593 5.667 5.667 0 0 0 3.316-.33 5.758 5.758 0 0 0 2.576-2.145c.63-.957.967-2.082.967-3.233v-3.76a5.878 5.878 0 0 0-.967-3.234 5.758 5.758 0 0 0-2.576-2.144 5.666 5.666 0 0 0-3.317-.331 5.715 5.715 0 0 0-2.939 1.593l-1.177 1.193a3.151 3.151 0 0 1-2.27.952h-7.004v-3.85c0-.34-.133-.666-.37-.907a1.257 1.257 0 0 0-.896-.376H38.43c-.336 0-.658.135-.895.376-.238.24-.37.567-.37.908v3.85h-8.272a3.151 3.151 0 0 1-2.269-.953l-1.177-1.193a5.715 5.715 0 0 0-2.939-1.593 5.666 5.666 0 0 0-3.317.331 5.758 5.758 0 0 0-2.576 2.144 5.878 5.878 0 0 0-.966 3.234v3.76c0 1.15.336 2.276.966 3.233a5.758 5.758 0 0 0 2.576 2.144 5.667 5.667 0 0 0 3.317.332 5.716 5.716 0 0 0 2.939-1.594l1.177-1.193a3.184 3.184 0 0 1 1.04-.707 3.15 3.15 0 0 1 1.23-.245h8.27v3.85h-1.265c-.336 0-.658.135-.896.375-.237.241-.37.568-.37.908v5.133c0 .34.133.667.37.908.238.24.56.376.895.376h1.266v2.566h-1.265c-.336 0-.658.136-.896.376-.237.24-.37.567-.37.908v3.85h-1.266c-.335 0-.657.135-.895.376-.237.24-.37.567-.37.907v7.7h-7.594V49.72a1.3 1.3 0 0 0-.37-.908 1.257 1.257 0 0 0-.896-.376H18.18c-.336 0-.658.136-.895.376-.238.24-.37.567-.37.908v1.283H4.256c-.336 0-.658.135-.895.376-.237.24-.37.567-.37.907v15.4c0 .34.133.667.37.908.237.24.56.376.895.376h12.656c0 .34.133 1.95.37 2.19.238.241.56.376.896.376h5.062c.336 0 .658-.135.895-.376.238-.24.37-.567.37-.907V68.97h32.907v1.283c0 .34.133.667.37.907.238.241.56.376.896.376h5.062c.336 0 .658-.135.895-.376.238-.24.37-.567.37-.907V68.97h12.657c.336 0 .658-.136.895-.376s.37-.567.37-.908v-15.4c0-.34-.133-.666-.37-.907a1.257 1.257 0 0 0-.895-.376zm-37.969-38.5h2.532v2.567h-2.532v-2.567zm-14.86 9.404L23.655 23.1a3.196 3.196 0 0 1-1.643.89 3.168 3.168 0 0 1-1.853-.186 3.22 3.22 0 0 1-1.44-1.198 3.287 3.287 0 0 1-.541-1.807v-3.76c0-.644.189-1.273.541-1.807a3.22 3.22 0 0 1 1.44-1.198 3.168 3.168 0 0 1 1.853-.186 3.195 3.195 0 0 1 1.643.89l1.177 1.193a5.697 5.697 0 0 0 1.861 1.264 5.634 5.634 0 0 0 2.198.44h22.87a5.634 5.634 0 0 0 2.198-.44 5.697 5.697 0 0 0 1.86-1.264l1.178-1.193a3.195 3.195 0 0 1 1.643-.89 3.168 3.168 0 0 1 1.853.186 3.22 3.22 0 0 1 1.44 1.198c.353.534.541 1.163.542 1.807v3.76c0 .643-.19 1.272-.542 1.807a3.22 3.22 0 0 1-1.44 1.198 3.168 3.168 0 0 1-1.853.185 3.196 3.196 0 0 1-1.643-.89l-1.177-1.193a5.697 5.697 0 0 0-1.861-1.264 5.634 5.634 0 0 0-2.198-.44h-22.87a5.634 5.634 0 0 0-2.198.44 5.697 5.697 0 0 0-1.86 1.264zm14.86.863h2.532v3.85h-2.532v-3.85zm-2.53 6.416h7.593v2.567h-7.594v-2.567zm2.53 5.134h2.532v2.566h-2.532V34.32zm-2.53 5.133h7.593v2.567h-7.594v-2.567zM5.521 66.402V53.569h11.391v12.833H5.523zm16.454 2.567h-2.532V51.002h2.532v17.967zm2.53-2.567V53.569h8.86c.336 0 .658-.136.895-.376s.37-.567.37-.908v-7.7h12.657v7.7c0 .34.133.667.37.908.238.24.56.376.896.376h8.86v12.833H24.506zm37.97 2.567h-2.532V51.002h2.532v17.967zm13.921-2.567h-11.39V53.569h11.39v12.833z"/><path d="M77.663 51.334H65.007V50.05c0-.34-.133-.667-.37-.907a1.257 1.257 0 0 0-.896-.376H58.68c-.336 0-.658.135-.895.376-.238.24-.37.567-.37.907v1.284H49.82v-7.7c0-.34-.133-.667-.37-.908a1.257 1.257 0 0 0-.895-.376h-1.266V38.5c0-.34-.133-.667-.37-.907a1.257 1.257 0 0 0-.895-.376h-1.266V34.65h1.266c.335 0 .657-.135.894-.376.238-.24.371-.567.371-.907v-5.133c0-.34-.133-.667-.37-.908a1.257 1.257 0 0 0-.895-.376h-1.266V23.1h7.005a3.151 3.151 0 0 1 2.27.952l1.176 1.194a5.715 5.715 0 0 0 2.94 1.593 5.666 5.666 0 0 0 3.316-.331 5.757 5.757 0 0 0 2.576-2.144c.63-.957.967-2.083.967-3.234v-3.76a5.877 5.877 0 0 0-.967-3.234 5.758 5.758 0 0 0-2.576-2.143 5.666 5.666 0 0 0-3.317-.332 5.716 5.716 0 0 0-2.939 1.593l-1.177 1.194a3.184 3.184 0 0 1-1.04.707 3.15 3.15 0 0 1-1.229.245h-7.005v-3.85c0-.34-.133-.667-.37-.907a1.257 1.257 0 0 0-.896-.376H38.43c-.336 0-.658.135-.895.376-.238.24-.37.567-.37.907v3.85h-8.272a3.15 3.15 0 0 1-1.229-.245 3.184 3.184 0 0 1-1.04-.707l-1.177-1.194a5.716 5.716 0 0 0-2.939-1.593 5.666 5.666 0 0 0-3.317.332 5.759 5.759 0 0 0-2.576 2.143 5.878 5.878 0 0 0-.966 3.234v3.76c0 1.151.336 2.277.966 3.234a5.758 5.758 0 0 0 2.576 2.144 5.666 5.666 0 0 0 3.317.331 5.715 5.715 0 0 0 2.939-1.593l1.177-1.194a3.151 3.151 0 0 1 2.27-.952h8.27v3.85h-1.265c-.336 0-.658.135-.896.376-.237.24-.37.567-.37.907v5.134c0 .34.133.667.37.907.238.241.56.376.895.376h1.266v2.567h-1.265c-.336 0-.658.135-.896.376-.237.24-.37.567-.37.907v3.85h-1.266c-.335 0-.657.135-.895.376-.237.24-.37.567-.37.907v7.7h-7.594V50.05c0-.34-.134-.667-.37-.907a1.257 1.257 0 0 0-.896-.376H18.18c-.336 0-.658.135-.895.376-.238.24-.37.567-.37.907v1.284H4.256c-.336 0-.658.135-.895.375-.237.241-.37.567-.37.908v15.4c0 .34.133.667.37.907.237.241.56.376.895.376h12.656c0 .34.133 1.95.37 2.191.238.24.56.376.896.376h5.062c.336 0 .658-.135.895-.376.238-.24.37-.567.37-.907V69.3h32.907v1.284c0 .34.133.666.37.907.238.24.56.376.896.376h5.062c.336 0 .658-.135.895-.376.238-.24.37-.567.37-.907V69.3h12.657c.336 0 .658-.135.895-.376.237-.24.37-.567.37-.907v-15.4c0-.34-.133-.667-.37-.908a1.257 1.257 0 0 0-.895-.376zm-37.969-38.5h2.532V15.4h-2.532v-2.566zm-14.86 9.404l-1.178 1.193a3.195 3.195 0 0 1-1.643.89 3.168 3.168 0 0 1-1.853-.186 3.219 3.219 0 0 1-1.44-1.198 3.287 3.287 0 0 1-.541-1.807v-3.76c0-.643.189-1.272.541-1.807a3.22 3.22 0 0 1 1.44-1.198 3.168 3.168 0 0 1 1.853-.185 3.196 3.196 0 0 1 1.643.89l1.177 1.193a5.697 5.697 0 0 0 1.861 1.264 5.632 5.632 0 0 0 2.198.44h22.87a5.632 5.632 0 0 0 2.198-.44 5.697 5.697 0 0 0 1.86-1.264l1.178-1.194a3.196 3.196 0 0 1 1.643-.89 3.169 3.169 0 0 1 1.853.186 3.22 3.22 0 0 1 1.44 1.198c.353.535.541 1.164.542 1.807v3.76c0 .644-.19 1.272-.542 1.807a3.22 3.22 0 0 1-1.44 1.198 3.168 3.168 0 0 1-1.853.186 3.195 3.195 0 0 1-1.643-.89l-1.177-1.193a5.699 5.699 0 0 0-1.861-1.265 5.634 5.634 0 0 0-2.198-.44h-22.87a5.634 5.634 0 0 0-2.198.44 5.699 5.699 0 0 0-1.86 1.265zm14.86.862h2.532v3.85h-2.532V23.1zm-2.53 6.417h7.593v2.567h-7.594v-2.567zm2.53 5.133h2.532v2.567h-2.532V34.65zm-2.53 5.133h7.593v2.567h-7.594v-2.567zM5.521 66.733V53.9h11.391v12.834H5.523zM21.976 69.3h-2.532V51.334h2.532V69.3zm2.53-2.566V53.9h8.86c.336 0 .658-.135.895-.376.237-.24.37-.567.37-.907v-7.7h12.657v7.7c0 .34.133.667.37.907.238.241.56.376.896.376h8.86v12.834H24.506zm37.97 2.566h-2.532V51.334h2.532V69.3zm13.921-2.566h-11.39V53.9h11.39v12.834z"/></g><defs><clipPath id="clip0"><path fill="#fff" d="M0 0h81v77H0z"/></clipPath></defs></svg>