<svg width="184" height="129" fill="none" xmlns="http://www.w3.org/2000/svg"><path d="M52.348 55.001L17.153 18.593" stroke="#455A64" stroke-miterlimit="10"/><path d="M16.878 12.083l-.494-.079.494.079zm3.39-3.86l-.31-.393.31.393zm3.803-2.009l-.441.236.44-.236zm-.59 2.777l.42.27-.42-.27zm.59-1.2l.485.122a.604.604 0 0 0 .005-.023l-.49-.098zm-5.583 4.977v.5a.5.5 0 0 0 .197-.04l-.197-.46zm-1.092-.122l-.224.447c.033.017.067.03.103.038l.121-.485zm-.024-.485c.136-.86.434-1.336.917-1.79.256-.24.566-.475.953-.758.381-.28.831-.601 1.335-.997l-.618-.786c-.486.382-.916.69-1.308.976-.385.282-.741.55-1.047.836-.64.6-1.048 1.276-1.22 2.363l.988.156zm3.205-3.545c.255-.201.594-.51.936-.813.352-.313.725-.634 1.081-.895.369-.269.668-.434.877-.485.098-.023.134-.011.134-.011l-.002-.001c-.001 0-.001 0 0 0a.144.144 0 0 1 .027.04l.882-.473a1.043 1.043 0 0 0-.576-.51 1.23 1.23 0 0 0-.701-.016c-.412.1-.845.367-1.23.649-.398.29-.801.64-1.156.953-.365.324-.666.599-.89.776l.618.786zm3.324.645c.262-.407.51-.77.655-1.348l-.97-.242c-.099.393-.252.624-.526 1.049l.84.541zm.66-1.371c.102-.51.348-1.17-.05-1.912l-.881.472c.184.344.091.54-.05 1.244l.981.196zm-6.073 4.378c-.117 0-.55-.001-.97-.107l-.243.97c.549.138 1.087.137 1.213.137v-1zm-.868-.069c-.05-.025-.1-.052-.145-.08a.739.739 0 0 1-.104-.078c-.025-.023-.024-.028-.016-.013.01.02.027.07.017.133l-.988-.156c-.059.373.167.641.309.771.155.144.343.25.48.318l.447-.895zm5.44-3.48c-.689 1.07-1.113 1.346-2.08 2.071l.6.8c.974-.73 1.527-1.097 2.32-2.329l-.84-.541zm-2.08 2.071c-.929.696-1.86 1.163-2.689 1.518l.394.92c.87-.374 1.88-.878 2.894-1.638l-.6-.8zm-3.462-2.998l.316.387-.316-.387zm9.963-6.597l-.24-.438.24.438zm-5.352 3.199l.27.42h.002l-.272-.42zm2.185 7.403l-.383-.322.383.322zM16.547 19.2l.316.387.002-.002-.318-.385zm-7.039 2.79l.1-.49-.1.49zm-2.791-2.548l-.494.082.494-.082zm.606 1.577l.365-.342-.365.342zm.971.607l-.194.46.011.006.012.004.171-.47zM29.168.996l-.168.47.168-.47zm.971 1.82l-.495-.065.495.065zm0-.606l-.494.08.494-.08zM27.241.757c-2.231 1.22-3.311 1.877-5.383 3.217l.543.84c2.054-1.33 3.113-1.973 5.32-3.18l-.48-.877zm-5.382 3.216c-1.72 1.106-2.915 2.009-4.658 3.432l.633.774c1.723-1.407 2.887-2.285 4.566-3.364l-.541-.842zm2.838 8.145c1.237-1.473 2.586-3.436 3.634-5.05 1.043-1.605 1.816-2.907 1.891-3.057l-.894-.448-.041.073-.112.191a89.754 89.754 0 0 1-1.682 2.696c-1.043 1.606-2.365 3.527-3.562 4.952l.766.643zm-8.15 7.082l.319.385.003-.003a.49.49 0 0 0 .012-.01l.043-.036a54.926 54.926 0 0 0 .783-.662 106.53 106.53 0 0 0 2.048-1.801c1.608-1.453 3.571-3.323 4.942-4.955l-.766-.643c-1.324 1.577-3.245 3.409-4.846 4.856a104.074 104.074 0 0 1-2.843 2.472l-.01.009c-.002 0-.002.001-.003.002l.318.386zm-7.138 3.28c.834.17 1.724.048 2.563-.199.842-.247 1.666-.632 2.384-1.029a19.04 19.04 0 0 0 2.492-1.654l.01-.008a.07.07 0 0 1 .004-.003l-.315-.388-.316-.388-.002.002a1.567 1.567 0 0 1-.008.006l-.032.026-.13.101a18.05 18.05 0 0 1-2.186 1.43c-.68.376-1.434.726-2.184.946-.753.222-1.467.303-2.082.178l-.198.98zm-3.186-2.956c.057.34.103.666.198.955.105.317.266.592.538.883l.729-.685a1.29 1.29 0 0 1-.317-.51c-.065-.197-.096-.42-.161-.808l-.987.165zM9.607 21.5a7.41 7.41 0 0 1-.733-.204 14.684 14.684 0 0 1-.402-.137l-.005-.002h-.001l-.172.47-.171.469h.003c.001.002.004.002.007.003a2.242 2.242 0 0 0 .118.042c.079.028.188.065.314.106.246.08.572.178.844.233l.198-.98zm-1.313.126l.195-.46-.004-.002a1.003 1.003 0 0 1-.087-.04 4.504 4.504 0 0 1-.236-.119c-.197-.106-.38-.227-.474-.328l-.73.684c.212.225.515.408.727.523a5.536 5.536 0 0 0 .403.198l.008.003.002.001H8.1l.195-.46zM27.721 1.634a2.04 2.04 0 0 1 .657-.188c.283-.037.508-.02.622.02l.336-.941c-.332-.119-.743-.116-1.088-.07-.353.046-.728.15-1.007.302l.48.877zM29 1.467c.197.07.357.182.42.246l.708-.707a2.232 2.232 0 0 0-.793-.481L29 1.467zm1.221 2.544c.104-.209.346-.624.413-1.129l-.992-.131c-.04.298-.177.535-.315.812l.894.448zm.413-1.129a2.285 2.285 0 0 0-.002-.752l-.988.16a1.31 1.31 0 0 1-.002.46l.992.132zm-1.213-1.169c-.009-.008.002.001.027.042a1.614 1.614 0 0 1 .196.534l.988-.16a2.609 2.609 0 0 0-.196-.638 1.7 1.7 0 0 0-.308-.485l-.707.707zM7.21 19.36c-.008-.049.004-.207.148-.516.136-.291.357-.65.66-1.069.605-.835 1.495-1.853 2.555-2.954 2.117-2.2 4.87-4.69 7.26-6.642l-.632-.774c-2.415 1.972-5.199 4.488-7.349 6.722-1.073 1.116-2 2.172-2.644 3.062-.321.444-.582.86-.756 1.231-.164.353-.289.744-.229 1.105l.987-.165z" fill="#455A64"/><path d="M50.77 56.215L15.616 20.098M8.173 12.04l1.96 2.286" stroke="#455A64" stroke-miterlimit="10" stroke-linecap="round" stroke-linejoin="round"/><path d="M46.887 77.088l11.772-12.864M47.857 78.06l12.258-9.588" stroke="#455A64" stroke-miterlimit="10"/><path d="M58.658 64.224l1.456 4.248m24.273 4.733h-1.213" stroke="#455A64" stroke-miterlimit="10" stroke-linecap="round" stroke-linejoin="round"/><path d="M84.387 73.205v-2.79" stroke="#455A64" stroke-miterlimit="10"/><path d="M82.566 111.069l1.82-6.796m-.242 7.403l-1.578-.606m-1.206 5.135c.242-.729.722-1.373 1.207-2.223.486-.849 1.092-1.578 1.578-2.184m93.811.849c.485.728.971 1.335 1.578 2.185.607.849 1.092 1.699 1.577 2.427m-1.699-5.218l-1.456.606m.242-6.432l1.214 5.825" stroke="#455A64" stroke-miterlimit="10" stroke-linecap="round" stroke-linejoin="round"/><path d="M182.81 101.492c0 1.157-.067 2.373-.916 2.818" stroke="#455A64" stroke-miterlimit="10"/><path d="M90.948 123.169l.207-.456-.207.456zm-5.226-3.119l.312-.39-.022-.017-.29.407zm-4.016-4.115a.5.5 0 1 0-.707.707l.707-.707zm24.889 10.547l-.074.495.033.003.041-.498zm-7.767-1.213l-.102.489.017.003.085-.492zm55.947 1.577l.056.497-.056-.497zm8.981-1.213l.076.494.013-.002-.089-.492zm7.305-1.926l-.195-.46.195.46zm10.241-6.058a.501.501 0 0 0-.625-.781l.625.781zm-4.318 2.644l-.277-.416-.011.007.288.409zm-85.83 2.42c-2.189-.991-3.341-1.63-5.12-3.053l-.625.781c1.862 1.489 3.091 2.169 5.333 3.183l.413-.911zm-5.142-3.07c-1.669-1.192-3.103-2.506-4.306-3.708l-.707.707c1.225 1.224 2.703 2.58 4.432 3.815l.581-.814zm20.658 6.345c-2.432-.365-4.972-.728-7.756-1.212l-.171.985c2.798.487 5.355.852 7.778 1.216l.149-.989zm-7.74-1.209c-2.959-.616-4.96-.792-7.775-2.066l-.413.911c2.946 1.334 5.118 1.537 7.984 2.134l.204-.979zm55.901 2.564c3.526-.396 5.842-.73 9.001-1.216l-.152-.988c-3.151.484-5.453.816-8.96 1.21l.111.994zm9.014-1.218c2.662-.484 4.629-.782 7.411-1.957l-.39-.921c-2.663 1.125-4.521 1.407-7.199 1.894l.178.984zm16.832-9.257c-1.221.977-2.536 2.053-3.97 3.009l.555.832c1.478-.986 2.833-2.094 4.04-3.06l-.625-.781zm-3.981 3.016c-2.051 1.448-3.383 2.329-5.83 3.363l.39.921c2.542-1.074 3.941-2.002 6.017-3.467l-.577-.817zm-70.101 6.598l-.041.499h.005l.017.001.064.006.251.02.97.075c.845.063 2.071.151 3.601.251 3.059.198 7.334.441 12.193.618 9.713.354 21.788.446 31.176-.609l-.111-.994c-9.311 1.047-21.325.957-31.028.604a436.416 436.416 0 0 1-12.165-.617c-1.527-.099-2.75-.187-3.591-.251-.42-.031-.745-.057-.965-.074l-.25-.02-.063-.005-.016-.002h-.005l-.042.498z" fill="#455A64"/><path d="M84.144 115.074l93.812.607m-19.539-6.068h13.956m-88.229 2.063l93.812.971" stroke="#455A64" stroke-miterlimit="10" stroke-linecap="round" stroke-linejoin="round"/><path d="M182.203 76.846l.607 24.758" stroke="#455A64" stroke-miterlimit="10"/><path d="M117.154 71.627V91.41m14.442-39.178l-14.442 19.395m45.405-19.189l-30.614-.15m34.843 28.927l-.237-24.393m-4.008-4.369l4.005 4.369" stroke="#455A64" stroke-miterlimit="10" stroke-linecap="round" stroke-linejoin="round"/><path d="M182.203 76.846l.364-25.607m.002.159c0-1.005.068-2.625 0-4.305-.228-5.668-1.579-12.36-2.55-14.3-.728-1.457-1.942-3.642-4.49-5.826 0 0-3.034-2.306-5.219-2.791-4.874-1.084-16.748-.85-36.287-.364m-3.034-15.777l.364 17.961" stroke="#455A64" stroke-miterlimit="10"/><path d="M133.538 7.792c0-.414-.642-1.06-1.551-.908-.592.099-.998.801-.998 1.272" stroke="#455A64" stroke-miterlimit="10" stroke-linecap="round" stroke-linejoin="round"/><path d="M134.145 26.603l-.607-18.811" stroke="#455A64" stroke-miterlimit="10"/><path d="M131.354 25.996c0 .607.235 1.288.895 1.633.66.344 1.896-.172 1.896-1.026" stroke="#455A64" stroke-miterlimit="10" stroke-linecap="round" stroke-linejoin="round"/><path d="M84.937 66.315l.478.147v-.004l-.478-.143zm8.761-15.7l.418.275-.418-.276zm27.785-26l.055.496-.055-.497zm-14.491 8.552l.348.359.006-.006-.354-.354zM85.889 63.014c-.35.647-1.05 1.883-1.431 3.156l.958.287c.346-1.154.987-2.292 1.353-2.966l-.88-.477zm-1.43 3.153c-.507 1.645-.573 2.846-.573 4.426h1c0-1.534.064-2.623.529-4.132l-.956-.294zm13.547-22.861c-1.587 2.442-3.034 4.47-4.725 7.032l.835.55c1.644-2.49 3.16-4.625 4.729-7.037l-.839-.545zm-4.725 7.032c-.714 1.082-1.364 2.187-2.01 3.296-.648 1.112-1.29 2.227-1.997 3.346l.846.534c.718-1.138 1.37-2.27 2.015-3.377.646-1.109 1.284-2.192 1.98-3.248l-.834-.551zm-7.035 13.074l.444.23.001-.002.004-.008.017-.033.067-.127.248-.472c.211-.4.508-.958.85-1.585.684-1.258 1.54-2.788 2.243-3.901l-.846-.534c-.721 1.143-1.59 2.696-2.276 3.957a153.988 153.988 0 0 0-1.173 2.2l-.017.034a.472.472 0 0 1-.005.008v.002l-.001.001.444.23zm28.388-35.783c1.276-1.007 3.883-2.183 6.904-2.519l-.11-.994c-3.181.354-5.971 1.59-7.413 2.728l.619.785zm6.904-2.519c2.772-.308 6.045-.314 9.831-.436l-.032-1c-3.738.121-7.086.128-9.909.442l.11.994zm-7.472 1.696c-2.289 1.687-4.845 3.424-7.427 6.006l.707.707c2.515-2.515 4.991-4.197 7.314-5.908l-.594-.805zm-7.421 6c-3.796 3.673-6.642 7.456-8.72 10.634l.837.547c2.048-3.133 4.849-6.853 8.578-10.462l-.695-.719z" fill="#455A64"/><path d="M171.402 77.696V50.632" stroke="#455A64" stroke-miterlimit="10" stroke-linecap="round" stroke-linejoin="round"/><path d="M83.174 103.667h-.5v.304l.27.139.23-.443zm9.587 4.975l-.23.444.103.054.116.002.011-.5zm85.438-2.427l-.229-.444-.012.006-.011.006.252.432zm-69.054 2.791l-.011.5.229.005.154-.171-.372-.334zm4.247-4.733v-.5h-.223l-.149.166.372.334zm38.957 0l.33-.375-.141-.125h-.189v.5zm-57.16-31.068l.434-.248-.144-.252h-.29v.5zm4.368 7.646l-.434.248.055.095.089.064.29-.407zm14.806 10.558l-.29.407.129.092.158.001.003-.5zm37.986.243l-.003.5.162.001.131-.094-.29-.407zm19.054-13.592v-.5a.5.5 0 0 0-.291.093l.291.407zm10.194.5a.5.5 0 0 0 0-1v1zm-88.605 29.639l-9.588-4.976-.46.887 9.587 4.976.46-.887zm88.74-4.37l-3.762 1.942.458.888 3.762-1.941-.458-.889zm-72.215 5.511l4.247-4.733-.744-.668-4.247 4.733.744.668zm42.832-5.567h-38.957v1h38.957v-1zm6.398 5.465l-6.068-5.34-.66.751 6.068 5.34.66-.751zm19.2-3.455l-5.825 3.398.503.864 5.826-3.398-.504-.864zm-68.791 2.724l-16.384-.365-.022 1 16.384.364.022-.999zM95.188 72.705h-10.8v1h10.8v-1zm4.803 7.898l-4.368-7.646-.869.496 4.37 7.646.868-.496zm14.663 10.399L99.848 80.444l-.581.814 14.806 10.558.581-.814zm37.698.15l-37.985-.243-.007 1 37.986.243.006-1zm18.76-13.5l-19.053 13.593.58.814 19.054-13.592-.581-.814zm10.485-.092h-10.194v1h10.194v-1zm-98.923-4.355v30.462h1V73.205h-1z" fill="#455A64"/><path d="M135.977 121.839c-.121.486-.485.729-.607.971-.728.607-1.942.971-4.126.971 0 0-3.641 0-4.733-1.213-.121-.122-.243-.364-.364-.607-.122-.607.485-1.092.607-1.214.728-.728 1.82-.607 4.49-.607 2.913 0 4.005-.121 4.49.607 0-.121.364.486.243 1.092zm20.996.486c-.121.971-2.063 1.577-3.398 1.577s-3.277-.606-3.398-1.577c-.122-.486.242-.85.364-.971.243-.243.607-.607 3.034-.607 2.427 0 2.912.364 3.034.607.121.121.364.485.364.971zm-44.783-.607c-.364 1.092-2.063 1.578-3.398 1.578s-3.277-.486-3.398-1.578c-.122-.486.242-.85.364-.971.485-.728 1.577-.728 3.034-.607 1.577 0 3.155.122 3.398.971.121.243 0 .486 0 .607z" stroke="#455A64" stroke-miterlimit="10" stroke-linecap="round" stroke-linejoin="round"/><path d="M45.552 81.579a2.427 2.427 0 1 0 0-4.854 2.427 2.427 0 0 0 0 4.854z" stroke="#455A64" stroke-miterlimit="10"/><path d="M1.5 17.865l-.332-.374-.011.01-.01.01.353.354zm0 1.942l-.4.3.017.023.02.021.363-.344zm8.008-8.374l-.068-.496.068.496zM1.5 17.865l.332.374v-.001c.002 0 .003-.002.005-.003l.014-.013.056-.05.215-.19a1432.77 1432.77 0 0 1 3.11-2.75 463.09 463.09 0 0 1 2.387-2.09c.333-.29.614-.531.82-.704a14.612 14.612 0 0 1 .305-.251c.026-.02.004-.001-.035.019l-.447-.895c-.055.027-.104.065-.118.075l-.09.072a79.91 79.91 0 0 0-1.09.928c-.668.58-1.535 1.34-2.393 2.096a1244.486 1244.486 0 0 0-3.327 2.942l-.057.05-.014.013-.004.003h-.001l.332.375zm41.987 45.408L1.862 19.463l-.725.688 41.625 43.811.725-.689zM8.71 12.206a2.87 2.87 0 0 1 .867-.278l-.136-.99a3.859 3.859 0 0 0-1.178.373l.447.895zm.867-.278a1.77 1.77 0 0 1 .778.036l.245-.97a2.752 2.752 0 0 0-1.159-.057l.136.991zm-8.43 5.583c-.197.198-.51.684-.51 1.325h1a1.007 1.007 0 0 1 .217-.617l-.707-.708zm-.51 1.325c0 .187.013.67.464 1.27l.8-.6a1.358 1.358 0 0 1-.236-.453c-.029-.103-.028-.173-.028-.217h-1zm9.718-6.872c-.046-.012-.05-.026.002.012.042.031.098.08.167.145.137.131.295.305.448.485a15.2 15.2 0 0 1 .52.646l.033.043.008.011.002.003.401-.298.4-.3v-.001l-.003-.004-.01-.012a9.374 9.374 0 0 0-.166-.217 16.23 16.23 0 0 0-.424-.52 7.802 7.802 0 0 0-.518-.559 2.74 2.74 0 0 0-.268-.229 1.032 1.032 0 0 0-.347-.175l-.245.97z" fill="#455A64"/><path d="M121.931 65.182l2.869-8.117m-8.86 10.558h4.064M106.96 79.637l8.981-12.014m-8.981 3.64V86.07m-2.427-18.447v3.64m-8.373-3.64h8.373" stroke="#455A64" stroke-miterlimit="10" stroke-linecap="round" stroke-linejoin="round"/><path d="M118.178 52.04l-.47.17.47-.17zm3.637 3.854l-.225.446.225-.446zm-.22-17.932a.5.5 0 1 0-.625-.78l.625.78zm-3.025 3.077l-.468-.175a3.474 3.474 0 0 0-.009.025l.477.15zm9.128 16.83a.5.5 0 1 0-.047-1l.047 1zm-9.99-5.658c.569 1.565 1.966 3.164 3.882 4.13l.45-.894c-1.712-.863-2.919-2.276-3.392-3.578l-.94.342zm3.882 4.13c.904.454 1.451.778 3.1 1.182l.239-.97c-1.535-.377-1.999-.658-2.889-1.106l-.45.893zm-.62-19.16c-1.557 1.247-2.469 2.618-2.868 3.683l.936.351c.329-.877 1.124-2.106 2.557-3.253l-.625-.78zm3.72 20.342c.831.204 1.577.29 2.116.326a10.527 10.527 0 0 0 .871.02h.021l-.023-.5-.023-.5h-.001l-.009.001-.037.001a9.44 9.44 0 0 1-.733-.02 11.375 11.375 0 0 1-1.943-.299l-.239.971zm-6.597-16.634c-1.174 3.718-1.842 7.31-.385 11.322l.94-.342c-1.344-3.7-.753-7.03.399-10.679l-.954-.301z" fill="#455A64"/><path d="M94.945 71.263h12.015m21.724-15.265V35.705m2.912-.485v17.143m28.519-17.143l-.121 17.233m-2.427-17.233v17.233m4.733 5.825a.728.728 0 1 0 .001-1.457.728.728 0 0 0-.001 1.457zm-28.398-.243a.728.728 0 1 0 0-1.456.728.728 0 0 0 0 1.456zm-13.229 18.447a.728.728 0 1 0 .001-1.457.728.728 0 0 0-.001 1.457zM106.96 80.85h-7.403m9.223 6.554h8.374m-4.611 2.67h4.612" stroke="#455A64" stroke-miterlimit="10" stroke-linecap="round" stroke-linejoin="round"/><path d="M154.533 40.923h-20.024v4.612h20.024v-4.612zm21.117 43.69a1.699 1.699 0 1 0 0-3.397 1.699 1.699 0 0 0 0 3.397zm-86.408-5.219a1.699 1.699 0 1 0 0-3.398 1.699 1.699 0 0 0 0 3.398z" stroke="#455A64" stroke-miterlimit="10"/><path d="M52.348 55.244l9.222 9.222" stroke="#455A64" stroke-miterlimit="10" stroke-linecap="round" stroke-linejoin="round"/><path d="M83.173 86.433L61.328 64.224" stroke="#455A64" stroke-miterlimit="10"/><path d="M43.125 63.618l-.34-.366.34.366zm11.044-10.195l.336.37-.336-.37zm1.213 0l.355-.352-.355.352zm10.559 33.981l-.346.362.087.082.114.035.145-.479zM43.368 65.195l.352-.354-.352.354zm.098-1.211c3.745-3.489 7.157-6.667 11.039-10.19l-.672-.74c-3.888 3.528-7.304 6.71-11.049 10.198l.682.731zM83.174 80.85a64.252 64.252 0 0 0 .35-.358l-.004-.003-.013-.012c-.01-.012-.028-.028-.05-.05l-.198-.195-.756-.744A34627.762 34627.762 0 0 1 71.21 68.366c-6.423-6.33-13.369-13.184-15.472-15.295l-.709.705c2.108 2.116 9.058 8.975 15.479 15.302 3.21 3.165 6.29 6.197 8.566 8.438l2.729 2.686.755.743c.087.086.154.151.198.196a2.264 2.264 0 0 0 .064.062l.003.003c.001.001.001.001.352-.355zm-17.378 7.032L83.029 93.1l.29-.957-17.233-5.218-.29.957zM43.015 65.549c1.362 1.358 3.305 3.27 4.907 4.843a2163.637 2163.637 0 0 0 2.64 2.589l.166.161a266.392 266.392 0 0 1 .053.053l.003.003h.001l.35-.357.35-.358h-.001a.09.09 0 0 0-.004-.003l-.01-.01-.043-.043a168.71 168.71 0 0 1-.165-.16l-.608-.596a2293.69 2293.69 0 0 1-2.032-1.993 1060.266 1060.266 0 0 1-4.901-4.837l-.706.709zm-.23-2.297c-.39.362-.454.844-.364 1.255.087.398.32.769.594 1.042l.706-.708a1.183 1.183 0 0 1-.323-.547c-.035-.16 0-.248.068-.31l-.682-.732zM55.736 53.07c-.546-.548-1.38-.494-1.904-.018l.672.74c.177-.16.4-.14.523-.017l.709-.706zm10.549 33.972L52.694 74.057l-.691.723 13.592 12.986.691-.723z" fill="#455A64"/><path d="M166.548 57.792h4.854m-4.854 1.821h4.854m-4.612 14.806h4.612m-4.612 1.577h4.612" stroke="#455A64" stroke-miterlimit="10" stroke-linecap="round" stroke-linejoin="round"/><path d="M94.086 73.134a.5.5 0 1 0 .99.142l-.99-.142zm1.102-2.963l.479.144a.466.466 0 0 0 .009-.036l-.488-.108zm1.578-4.005l.447.224.008-.017-.456-.207zm2.67-5.34L99 60.58l.436.246zm19.591-22.183l.255.43-.255-.43zm-11.542 10.734l-.381-.324-.01.012.391.312zm25.324-14.4l-.035-.499a.516.516 0 0 0-.039.004l.074.495zm-8.014 1.437l-.126-.484-.008.002.134.482zm29.01-1.802l.021-.5h-.01l-.011.5zm13.958 3.134l.349-.358-.349.358zm3.139 13.651a.5.5 0 0 0 1 0h-1zM95.076 73.276c.122-.855.24-1.79.59-2.961l-.957-.288c-.377 1.255-.502 2.263-.623 3.107l.99.142zm.6-2.997c.23-1.034.574-1.963 1.537-3.89l-.895-.447c-.978 1.958-1.363 2.97-1.618 4.12l.976.217zm1.545-3.906c.605-1.332 1.514-3.29 2.65-5.3L99 60.58c-1.16 2.05-2.083 4.041-2.69 5.38l.91.413zm21.551-28.16c-2.498 1.48-5.423 4.207-7.7 6.53a96.568 96.568 0 0 0-3.668 3.963l-.222.256-.058.068a.196.196 0 0 1-.015.017l-.004.005-.001.001.381.324.381.324.001-.001a.014.014 0 0 0 .003-.004l.014-.016.056-.065.218-.252a96.183 96.183 0 0 1 3.628-3.92c2.275-2.32 5.121-4.962 7.496-6.37l-.51-.86zm-11.287 11.164l-.391-.312-.001.002-.003.003a.107.107 0 0 1-.012.015l-.046.058-.176.224a161.135 161.135 0 0 0-2.8 3.672c-1.682 2.276-3.709 5.159-5.056 7.541l.87.492c1.316-2.326 3.313-5.168 4.99-7.439a155.049 155.049 0 0 1 2.781-3.647l.174-.22.045-.058.012-.014a.014.014 0 0 1 .003-.003v-.001l-.39-.313zm25.25-14.895c-2.41.362-5.242.712-8.066 1.448l.252.968c2.759-.72 5.518-1.06 7.963-1.427l-.149-.989zm-8.074 1.45c-2.189.609-4.078 1.207-5.889 2.28l.51.86c1.689-1 3.468-1.57 5.647-2.176l-.268-.964zm8.184-.457c8.471-.605 15.612-.484 20.948-.363l.023-1c-5.343-.12-12.523-.242-21.042.366l.071.997zm20.939-.363c4.305.182 7.234.456 9.338.929 2.09.47 3.332 1.128 4.292 2.063l.698-.716c-1.129-1.1-2.558-1.826-4.771-2.323-2.198-.494-5.204-.77-9.515-.952l-.042.999zm13.63 2.992c.85.828 1.871 2.454 2.314 3.5l.921-.39c-.482-1.138-1.571-2.885-2.537-3.826l-.698.716zm2.314 3.5c.446 1.053.845 2.274 1.006 4.075l.996-.09c-.172-1.922-.602-3.245-1.081-4.375l-.921.39zm1.006 4.075c.165 1.836.168 3.05.168 5.718h1c0-2.666-.003-3.921-.172-5.807l-.996.089z" fill="#455A64"/><path d="M171.366 47.428c0 1.686-.201 2.677-.733 4.141-.349.96-.687 1.369-1.415 2.097-.364.364-.728.607-1.213.971-.486.364-1.335.85-2.549 1.214" stroke="#455A64" stroke-miterlimit="10"/></svg>