<svg width="250" height="175" fill="none" xmlns="http://www.w3.org/2000/svg"><path d="M70.975 74.888L22.887 25.14" stroke="#455A64" stroke-miterlimit="10"/><path d="M22.51 16.245l-.493-.078.494.078zm4.632-5.274l-.31-.393.31.393zm5.196-2.744l-.44.235.44-.235zm-.806 3.793l.42.271-.42-.27zm.806-1.638l.486.122a.604.604 0 0 0 .005-.024l-.49-.098zm-7.628 6.8v.5a.5.5 0 0 0 .197-.041l-.197-.46zm-1.492-.167l-.223.447a.503.503 0 0 0 .102.038l.121-.485zm-.213-.692c.192-1.216.619-1.903 1.308-2.55.359-.337.79-.664 1.32-1.05.522-.384 1.134-.82 1.818-1.359l-.618-.786c-.667.525-1.258.947-1.791 1.337-.528.386-1.005.746-1.414 1.13-.845.793-1.383 1.68-1.611 3.122l.988.156zm4.446-4.959c.344-.27.8-.686 1.27-1.104a21.28 21.28 0 0 1 1.492-1.233c.507-.37.94-.614 1.262-.693.155-.037.243-.026.287-.01.033.011.081.037.136.138l.881-.471a1.242 1.242 0 0 0-.685-.61c-.287-.102-.585-.084-.855-.018-.525.128-1.093.474-1.616.857-.536.391-1.08.863-1.565 1.292-.495.438-.912.82-1.225 1.066l.618.786zm4.5.927c.361-.56.684-1.032.873-1.787l-.97-.243c-.143.571-.37.911-.743 1.488l.84.542zm.878-1.81c.146-.733.454-1.549-.05-2.49l-.882.471c.291.544.136.896-.049 1.822l.98.196zm-8.119 6.2c-.16 0-.771-.001-1.37-.15l-.243.97c.727.181 1.443.18 1.613.18v-1zm-1.268-.113a1.74 1.74 0 0 1-.382-.245c-.105-.096-.041-.09-.055 0l-.988-.156c-.066.417.185.726.365.891.193.179.432.314.613.404l.447-.894zm7.67-4.819c-.96 1.49-1.565 1.884-2.888 2.876l.6.8c1.33-.997 2.063-1.481 3.128-3.134l-.84-.542zm-2.888 2.876c-1.283.963-2.571 1.608-3.71 2.097l.393.919c1.183-.507 2.548-1.188 3.917-2.216l-.6-.8zm-4.84-4.243l.316.387-.316-.387zm13.613-9.013l-.24-.439.24.439zm-7.312 4.37l.27.42h.002l-.272-.42zm2.985 10.115l-.383-.321.383.321zM22.057 25.97l.316.387.003-.002-.319-.386zm-9.617 3.814l.099-.49-.1.49zM8.626 26.3l-.494.082.494-.082zm.829 2.156l.364-.342-.364.342zm1.326.83l-.194.46.011.005.012.004.171-.47zM39.303 1.095l-.168.47.168-.47zm1.326 2.488l-.495-.066.495.066zm0-.83l-.493.08.493-.08zM36.757.93c-3.044 1.665-4.516 2.56-7.343 4.39l.543.839c2.81-1.818 4.26-2.7 7.28-4.352l-.48-.877zm-7.342 4.389c-2.342 1.505-3.97 2.735-6.347 4.676l.632.774c2.358-1.925 3.955-3.13 6.256-4.61l-.541-.84zm3.638 10.857c1.683-2.005 3.52-4.679 4.953-6.883 1.426-2.195 2.475-3.964 2.573-4.16l-.894-.447-.017.03-.044.079-.154.263c-.13.22-.31.52-.533.884a122.84 122.84 0 0 1-1.77 2.806c-1.426 2.196-3.237 4.828-4.88 6.785l.766.643zM22.057 25.97l.319.385.001-.001.004-.004.015-.012.06-.05.228-.19a143.062 143.062 0 0 0 3.634-3.17c2.196-1.985 4.87-4.532 6.735-6.752l-.766-.643c-1.818 2.164-4.45 4.674-6.64 6.652a142.18 142.18 0 0 1-3.831 3.335l-.058.048-.015.012a.04.04 0 0 0-.003.003l-.001.001.318.386zm-9.717 4.304c1.1.223 2.284.064 3.414-.268 1.134-.334 2.247-.853 3.221-1.39a25.853 25.853 0 0 0 3.328-2.203l.051-.04c.006-.005.01-.01.014-.012l.004-.003h.001l-.316-.389-.316-.387-.003.002-.01.01-.046.035a22.887 22.887 0 0 1-.86.641c-.582.413-1.396.954-2.33 1.47-.936.516-1.98 1-3.02 1.307-1.045.307-2.053.425-2.933.247l-.199.98zm-4.208-3.89c.08.473.14.899.264 1.278.134.406.339.759.694 1.137l.73-.684c-.263-.28-.39-.507-.474-.766-.094-.285-.14-.608-.227-1.13l-.987.164zm4.407 2.91a10.266 10.266 0 0 1-1.023-.285c-.162-.053-.303-.1-.404-.136l-.118-.042a7.709 7.709 0 0 1-.031-.011l-.008-.003h-.002l-.172.47-.171.469h.001l.002.001.01.003.034.013a14.258 14.258 0 0 0 .55.187c.336.109.773.24 1.133.314l.199-.98zm-1.758-.008l.195-.46-.007-.003-.025-.011a5.587 5.587 0 0 1-.43-.213c-.273-.147-.544-.323-.695-.484l-.729.684c.267.285.66.523.946.679a7.392 7.392 0 0 0 .503.248l.034.015.01.004.002.001h.001l.195-.46zM37.237 1.807c.213-.116.572-.226.963-.277.397-.053.74-.033.935.037l.336-.942c-.414-.148-.941-.147-1.402-.087-.468.062-.957.198-1.312.392l.48.877zm1.898-.24c.293.104.535.272.643.38l.708-.707A2.868 2.868 0 0 0 39.47.625l-.336.942zm1.444 3.566c.149-.297.46-.832.546-1.484l-.991-.131c-.06.445-.266.802-.45 1.168l.895.447zm.546-1.484a2.94 2.94 0 0 0-.002-.974l-.987.159c.041.258.036.395-.002.684l.991.131zm-1.347-1.702l.02.023.045.068a2.388 2.388 0 0 1 .293.796l.987-.16a3.388 3.388 0 0 0-.253-.826c-.102-.226-.237-.46-.384-.608l-.708.707zM9.118 26.219c-.02-.124.017-.383.218-.814.193-.412.502-.913.92-1.49.833-1.15 2.056-2.549 3.507-4.056 2.899-3.013 6.667-6.419 9.937-9.09l-.632-.774c-3.296 2.691-7.094 6.124-10.026 9.17-1.464 1.522-2.723 2.958-3.596 4.164-.436.602-.786 1.16-1.016 1.653-.221.474-.37.966-.298 1.401l.987-.164z" fill="#455A64"/><path d="M68.82 76.546l-48.034-49.35m-10.17-11.01l2.677 3.124" stroke="#455A64" stroke-miterlimit="10" stroke-linecap="round" stroke-linejoin="round"/><path d="M63.513 105.067L79.598 87.49m-14.759 18.904l16.748-13.1" stroke="#455A64" stroke-miterlimit="10"/><path d="M79.598 87.49l1.99 5.804m33.164 6.468h-1.658" stroke="#455A64" stroke-miterlimit="10" stroke-linecap="round" stroke-linejoin="round"/><path d="M114.752 99.76v-3.814" stroke="#455A64" stroke-miterlimit="10"/><path d="M112.265 151.498l2.488-9.287m-.332 10.117l-2.156-.829m-1.65 7.016c.331-.995.987-1.876 1.65-3.037.663-1.161 1.493-2.156 2.156-2.985m128.181 1.161c.664.995 1.327 1.824 2.156 2.985.829 1.161 1.492 2.322 2.156 3.317m-2.322-7.132l-1.99.829m.332-8.787l1.658 7.959" stroke="#455A64" stroke-miterlimit="10" stroke-linecap="round" stroke-linejoin="round"/><path d="M249.235 138.412c0 1.581-.092 3.243-1.253 3.85" stroke="#455A64" stroke-miterlimit="10"/><path d="M123.718 168.03l.206-.455-.206.455zm-7.142-4.261l.313-.391-.022-.016-.291.407zm-5.616-5.494a.5.5 0 0 0-.707.707l.707-.707zm34.138 14.282l-.074.495.032.004.042-.499zm-10.613-1.658l-.102.49.017.003.085-.493zm76.445 2.156l.056.497-.056-.497zm12.271-1.658l.076.494.013-.002-.089-.492zm9.981-2.631l-.195-.461.195.461zm13.878-8.421a.501.501 0 0 0-.625-.781l.625.781zm-5.785 3.755l-.277-.416-.011.008.288.408zm-117.351 3.475c-3-1.359-4.589-2.24-7.035-4.197l-.625.781c2.529 2.023 4.195 2.945 7.248 4.327l.412-.911zm-7.057-4.213c-2.291-1.637-4.26-3.44-5.907-5.087l-.707.707c1.67 1.669 3.681 3.514 6.033 5.194l.581-.814zm28.305 8.701c-3.32-.498-6.795-.994-10.601-1.656l-.171.985c3.821.664 7.311 1.163 10.624 1.66l.148-.989zm-10.585-1.653c-4.026-.839-6.793-1.084-10.663-2.835l-.412.911c4.001 1.811 6.938 2.083 10.871 2.903l.204-.979zm76.399 3.142c4.814-.541 7.975-.997 12.291-1.661l-.152-.989c-4.308.663-7.455 1.117-12.251 1.656l.112.994zm12.304-1.663c3.64-.662 6.307-1.066 10.087-2.663l-.39-.921c-3.661 1.547-6.22 1.935-9.876 2.6l.179.984zm23.145-12.325c-1.665 1.332-3.469 2.808-5.437 4.12l.555.832c2.012-1.341 3.855-2.85 5.507-4.171l-.625-.781zm-5.448 4.128c-2.807 1.981-4.639 3.193-8 4.613l.39.921c3.456-1.46 5.356-2.719 8.187-4.717l-.577-.817zm-95.889 8.865l-.041.499h.007l.022.002.088.007.343.028a486.593 486.593 0 0 0 6.242.445c4.179.271 10.018.603 16.656.844 13.269.484 29.757.61 42.571-.83l-.112-.994c-12.736 1.431-29.163 1.308-42.423.825a591.805 591.805 0 0 1-16.627-.843 488.397 488.397 0 0 1-6.569-.471l-.087-.007-.021-.002-.006-.001h-.001l-.042.498z" fill="#455A64"/><path d="M114.421 156.97l128.181.829m-26.697-8.291h19.069m-120.553 2.819l128.181 1.327" stroke="#455A64" stroke-miterlimit="10" stroke-linecap="round" stroke-linejoin="round"/><path d="M248.406 104.736l.829 33.828" stroke="#455A64" stroke-miterlimit="10"/><path d="M159.525 97.605v27.029m19.733-53.53l-19.733 26.501m62.04-26.219l-41.831-.205m47.609 39.525l-.324-33.33m-5.477-5.971l5.473 5.97" stroke="#455A64" stroke-miterlimit="10" stroke-linecap="round" stroke-linejoin="round"/><path d="M248.406 104.736l.497-34.989m.002.216c0-1.373.092-3.586 0-5.881-.312-7.746-2.158-16.888-3.484-19.541-.995-1.99-2.653-4.975-6.136-7.96 0 0-4.145-3.15-7.13-3.814-6.659-1.48-22.884-1.16-49.581-.497m-4.145-21.556l.497 24.542" stroke="#455A64" stroke-miterlimit="10"/><path d="M181.911 10.382c0-.565-.876-1.447-2.119-1.24-.808.135-1.363 1.094-1.363 1.738" stroke="#455A64" stroke-miterlimit="10" stroke-linecap="round" stroke-linejoin="round"/><path d="M182.74 36.084l-.829-25.702" stroke="#455A64" stroke-miterlimit="10"/><path d="M178.926 35.256c0 .83.321 1.76 1.224 2.231.902.471 2.59-.235 2.59-1.401" stroke="#455A64" stroke-miterlimit="10" stroke-linecap="round" stroke-linejoin="round"/><path d="M115.503 90.346l.478.147.001-.003-.479-.144zm11.972-21.453l.417.276-.417-.276zm37.964-35.526l.055.497-.055-.497zM145.64 45.053l.347.36.006-.006-.353-.354zm-28.674 40.872c-.482.889-1.426 2.56-1.942 4.277l.958.288c.48-1.6 1.367-3.173 1.863-4.089l-.879-.476zm-1.94 4.274c-.685 2.224-.776 3.844-.776 5.994h1c0-2.105.089-3.612.731-5.7l-.955-.294zm18.489-31.19c-2.166 3.331-4.156 6.121-6.457 9.609l.834.55c2.256-3.417 4.315-6.313 6.461-9.614l-.838-.545zm-6.457 9.609c-.973 1.473-1.859 2.98-2.742 4.495-.884 1.519-1.764 3.045-2.731 4.577l.846.534c.978-1.55 1.868-3.096 2.749-4.608.883-1.515 1.757-3 2.712-4.447l-.834-.551zm-9.766 17.764l.444.23v-.001l.002-.003a.089.089 0 0 1 .006-.011l.023-.045.091-.174.339-.645c.29-.548.696-1.31 1.162-2.169.935-1.72 2.108-3.813 3.072-5.34l-.846-.534c-.982 1.556-2.168 3.675-3.104 5.397-.469.862-.877 1.628-1.168 2.178l-.341.65-.092.175a.855.855 0 0 1-.03.057l-.001.003-.001.001.444.23zm38.676-49.037c1.773-1.401 5.369-3.019 9.526-3.48l-.11-.995c-4.316.48-8.096 2.158-10.036 3.69l.62.785zm9.526-3.48c3.797-.422 8.283-.43 13.448-.597l-.032-1c-5.117.165-9.678.175-13.526.602l.11.994zm-10.08 2.646c-3.134 2.31-6.612 4.673-10.128 8.188l.707.708c3.449-3.449 6.847-5.757 10.014-8.09l-.593-.806zm-10.122 8.183c-5.174 5.007-9.055 10.164-11.889 14.498l.837.547c2.805-4.289 6.64-9.384 11.747-14.327l-.695-.718z" fill="#455A64"/><path d="M233.648 105.896V68.917" stroke="#455A64" stroke-miterlimit="10" stroke-linecap="round" stroke-linejoin="round"/><path d="M113.094 141.383h-.5v.304l.27.14.23-.444zm13.1 6.799l-.23.444.103.053.116.003.011-.5zm116.74-3.317l-.23-.444-.011.006-.011.007.252.431zm-94.354 3.814l-.011.5.23.005.153-.171-.372-.334zm5.804-6.467v-.5h-.223l-.149.166.372.334zm53.229 0l.33-.375-.141-.125h-.189v.5zm-78.103-42.45l.435-.248-.144-.252h-.291v.5zm5.97 10.447l-.434.248.054.095.09.064.29-.407zm20.231 14.426l-.291.407.129.092.158.001.004-.5zm51.902.332l-.003.5.162.001.132-.094-.291-.407zm26.034-18.572v-.5a.496.496 0 0 0-.29.093l.29.407zm13.93.5a.5.5 0 0 0 0-1v1zm-121.153 40.843l-13.1-6.798-.46.887 13.1 6.799.46-.888zm121.421-5.97l-5.141 2.653.459.889 5.14-2.653-.458-.889zm-98.893 7.245l5.804-6.467-.744-.668-5.804 6.467.744.668zm58.661-7.301h-53.229v1h53.229v-1zm8.622 7.421l-8.292-7.296-.66.751 8.291 7.296.661-.751zm26.447-4.699l-7.96 4.643.504.863 7.96-4.643-.504-.863zm-94.091 3.745l-22.386-.497-.022 1 22.386.497.022-1zM129.51 99.262h-14.758v1h14.758v-1zm6.404 10.698l-5.969-10.446-.869.496 5.97 10.447.868-.497zm20.087 14.268l-20.231-14.427-.58.815 20.23 14.426.581-.814zm51.615.239l-51.902-.332-.007 1 51.903.332.006-1zm25.741-18.479l-26.034 18.572.581.814 26.034-18.572-.581-.814zm14.22-.093h-13.93v1h13.93v-1zm-134.983-6.133v41.621h1V99.762h-1z" fill="#455A64"/><path d="M185.244 166.214c-.166.663-.664.995-.829 1.326-.995.829-2.654 1.327-5.638 1.327 0 0-4.975 0-6.467-1.658-.166-.166-.332-.498-.498-.829-.166-.83.663-1.493.829-1.659.995-.995 2.488-.829 6.136-.829 3.979 0 5.472-.166 6.135.829 0-.166.498.664.332 1.493zm28.687.662c-.166 1.327-2.819 2.156-4.643 2.156-1.824 0-4.477-.829-4.643-2.156-.166-.663.331-1.16.497-1.326.332-.332.829-.829 4.146-.829 3.316 0 3.98.497 4.145.829.166.166.498.663.498 1.326zm-61.189-.829c-.498 1.492-2.819 2.155-4.643 2.155-1.824 0-4.477-.663-4.643-2.155-.166-.664.331-1.161.497-1.327.664-.995 2.156-.995 4.146-.829 2.155 0 4.311.166 4.643 1.326.166.332 0 .664 0 .83z" stroke="#455A64" stroke-miterlimit="10" stroke-linecap="round" stroke-linejoin="round"/><path d="M61.689 111.202a3.316 3.316 0 1 0 0-6.633 3.316 3.316 0 0 0 0 6.633z" stroke="#455A64" stroke-miterlimit="10"/><path d="M1.497 24.145l-.332-.373-.01.01-.011.01.353.353zm0 2.654l-.4.3.018.023.02.021.362-.344zM12.44 15.357l-.068-.496.068.496zM1.497 24.145l.332.374.002-.001a.147.147 0 0 0 .005-.005c.004-.003.01-.01.02-.017l.077-.068.293-.26a1652.798 1652.798 0 0 1 4.25-3.757 636.107 636.107 0 0 1 3.263-2.858c.455-.395.84-.726 1.12-.963a20.077 20.077 0 0 1 .427-.35c.033-.025.017-.01-.02.009l-.447-.894c-.057.028-.112.07-.133.085a20.515 20.515 0 0 0-.472.386c-.286.242-.675.576-1.13.972-.912.79-2.096 1.83-3.269 2.863A1740.87 1740.87 0 0 0 1.27 23.68l-.077.068a4.117 4.117 0 0 1-.02.018l-.005.004-.001.001.331.374zm57.238 62.172L1.86 26.454l-.725.69 56.875 59.86.725-.688zM11.266 16.249c.302-.15.746-.329 1.241-.397l-.135-.99a5.088 5.088 0 0 0-1.553.492l.447.895zm1.241-.397c.403-.055.678-.062 1.134.053l.244-.97c-.608-.154-1.017-.142-1.513-.074l.135.991zm-11.363 7.94c-.242.242-.644.86-.644 1.68h1c0-.507.26-.883.35-.973l-.706-.707zM.5 25.472c0 .232.014.848.597 1.627l.8-.6c-.41-.548-.397-.927-.397-1.027h-1zm13.14-9.568c-.028-.007-.01-.008.066.048.067.048.15.12.247.213.194.185.414.428.626.676a21.02 21.02 0 0 1 .775.97h.001l.401-.299.4-.299v-.001a1.232 1.232 0 0 0-2.27-2.277l-.245.97z" fill="#455A64"/><path d="M166.051 88.8l3.921-11.093m-12.106 14.426h5.553m-17.823 16.416l12.271-16.416m-12.271 4.975v20.231m-3.317-25.206v4.975m-11.442-4.975h11.442" stroke="#455A64" stroke-miterlimit="10" stroke-linecap="round" stroke-linejoin="round"/><path d="M160.923 70.841l-.47.17.47-.17zm4.97 5.266l-.225.446.225-.446zm-.415-24.644a.501.501 0 0 0-.625-.781l.625.78zm-4.02 4.347l-.468-.175a.234.234 0 0 0-.008.025l.476.15zm12.464 22.812a.5.5 0 1 0-.046-.998l.046.998zm-13.469-7.61c.76 2.09 2.634 4.241 5.215 5.541l.449-.893c-2.376-1.197-4.06-3.162-4.724-4.99l-.94.342zm5.215 5.541c1.232.621 1.965 1.055 4.197 1.603l.238-.972c-2.117-.52-2.767-.91-3.986-1.524l-.449.893zm-.815-25.871c-2.106 1.684-3.33 3.533-3.863 4.953l.937.351c.462-1.233 1.569-2.938 3.551-4.523l-.625-.781zm5.012 27.474a16.79 16.79 0 0 0 2.859.44 14.168 14.168 0 0 0 1.172.027h.026l-.023-.5-.023-.5h-.003l-.012.001-.052.002c-.048 0-.12.002-.214.001-.188 0-.463-.007-.805-.03a15.747 15.747 0 0 1-2.687-.413l-.238.972zm-8.883-22.496c-1.601 5.068-2.499 9.928-.529 15.352l.94-.342c-1.857-5.111-1.036-9.711.542-14.709l-.953-.301z" fill="#455A64"/><path d="M129.179 97.108h16.416m29.683-20.858V48.52m3.98-.662v23.425m38.968-23.425l-.165 23.547m-3.317-23.547v23.547m6.467 7.96a.995.995 0 1 0 0-1.989.995.995 0 0 0 0 1.99zm-38.803-.333a.995.995 0 1 0 0-1.99.995.995 0 0 0 0 1.99zm-18.074 25.206a.995.995 0 1 0-.002-1.99.995.995 0 0 0 .002 1.99zm-18.739 5.97H135.48m12.603 8.954h11.442m-6.302 3.648h6.302" stroke="#455A64" stroke-miterlimit="10" stroke-linecap="round" stroke-linejoin="round"/><path d="M210.598 55.652h-27.361v6.301h27.361v-6.301zm28.854 59.696a2.32 2.32 0 1 0 0-4.642 2.32 2.32 0 0 0 0 4.642zm-118.067-7.13a2.322 2.322 0 1 0 0-4.644 2.322 2.322 0 0 0 0 4.644z" stroke="#455A64" stroke-miterlimit="10"/><path d="M70.976 75.218l12.6 12.601" stroke="#455A64" stroke-miterlimit="10" stroke-linecap="round" stroke-linejoin="round"/><path d="M113.094 117.835L83.246 87.49" stroke="#455A64" stroke-miterlimit="10"/><path d="M58.373 86.661l-.341-.365.34.365zm15.09-13.929l.336.37-.337-.37zm1.658 0l.354-.353-.354.353zm14.426 46.431l-.345.361.086.083.115.034.144-.478zM58.704 88.817l.353-.354-.353.354zm.01-1.79c5.116-4.766 9.779-9.11 15.085-13.924l-.673-.74c-5.31 4.82-9.978 9.167-15.094 13.933l.681.731zm54.38 23.181l.351-.356-.001-.002-.005-.004-.017-.017-.07-.068-.27-.266-1.033-1.016-3.728-3.67c-3.11-3.063-7.317-7.206-11.704-11.529-8.775-8.648-18.267-18.015-21.142-20.9l-.708.705c2.88 2.89 12.375 12.261 21.148 20.907 4.387 4.324 8.594 8.467 11.704 11.529l3.729 3.67 1.032 1.016.271.267.069.068.018.017.004.004.001.001c.001.001.001.001.351-.356zm-23.691 9.433l23.546 7.131.29-.957-23.547-7.131-.29.957zM58.35 89.171a1450.8 1450.8 0 0 0 6.704 6.616 3080.875 3080.875 0 0 0 3.609 3.537l.225.22.058.058.015.014a.162.162 0 0 1 .004.004v.001h.001l.35-.357.35-.358h-.002a1.48 1.48 0 0 0-.019-.018l-.058-.058-.225-.22-.832-.814-2.776-2.723c-2.188-2.148-4.84-4.759-6.698-6.61l-.706.708zm-.32-2.876c-.472.44-.554 1.026-.441 1.543.11.503.406.98.761 1.333l.706-.708c-.248-.247-.43-.559-.49-.838-.058-.266-.004-.457.146-.598l-.681-.731zM75.476 72.38c-.668-.67-1.695-.61-2.349-.017l.672.74c.307-.277.722-.264.969-.017l.708-.706zm14.418 46.422L71.32 101.058l-.691.723 18.572 17.743.69-.723z" fill="#455A64"/><path d="M227.014 78.701h6.633m-6.633 2.488h6.633m-6.301 20.229h6.301m-6.301 2.157h6.301" stroke="#455A64" stroke-miterlimit="10" stroke-linecap="round" stroke-linejoin="round"/><path d="M128.186 99.69a.5.5 0 0 0 .99.142l-.99-.142zm1.325-4.075l.478.144a.44.44 0 0 0 .01-.035l-.488-.109zm2.155-5.472l.447.224a.121.121 0 0 0 .008-.017l-.455-.207zm3.648-7.296l-.435-.246.435.246zm26.77-30.31l.255.43-.255-.43zm-15.771 14.667l-.381-.324-.01.011.391.313zm34.603-19.677l-.036-.499a.441.441 0 0 0-.038.005l.074.494zm-10.951 1.964l-.126-.484-.008.002.134.482zm39.638-2.462l.021-.5h-.01l-.011.5zm19.072 4.282l.349-.358-.349.358zm4.472 18.652a.5.5 0 0 0 1 0h-1zM129.176 99.832c.167-1.167.328-2.456.813-4.073l-.957-.287c-.51 1.7-.681 3.063-.846 4.218l.99.142zm.823-4.108c.318-1.435.796-2.72 2.114-5.357l-.894-.447c-1.334 2.669-1.852 4.037-2.197 5.587l.977.217zm2.122-5.374c.828-1.82 2.072-4.503 3.629-7.257l-.871-.492c-1.579 2.793-2.838 5.508-3.668 7.335l.91.414zm29.708-38.244c-3.391 2.01-7.373 5.72-10.485 8.895a133.14 133.14 0 0 0-5.003 5.406l-.303.35-.079.09-.02.025-.005.006-.001.001h-.001l.381.325.381.324.001-.002.005-.006.019-.022.077-.09.298-.344a131.743 131.743 0 0 1 4.965-5.363c3.109-3.172 7.012-6.797 10.28-8.735l-.51-.86zm-15.516 15.098l-.391-.312-.001.001-.004.005-.016.02a2.914 2.914 0 0 0-.063.08l-.241.304a211.459 211.459 0 0 0-3.822 5.013c-2.297 3.11-5.062 7.041-6.896 10.286l.871.492c1.802-3.189 4.536-7.08 6.829-10.183a215.06 215.06 0 0 1 3.803-4.989l.239-.301.062-.078a.35.35 0 0 0 .015-.02l.004-.005h.001v-.001l-.39-.312zm34.529-20.171c-3.3.495-7.156.97-11.003 1.974l.252.968c3.781-.986 7.565-1.453 10.899-1.953l-.148-.99zm-11.011 1.976c-2.99.831-5.55 1.643-8.002 3.097l.51.86c2.33-1.381 4.78-2.165 7.76-2.993l-.268-.964zm11.12-.983c11.584-.828 21.348-.663 28.641-.497l.022-1c-7.299-.165-17.102-.332-28.734.5l.071.997zm28.631-.497c5.884.248 9.9.623 12.792 1.273 2.878.647 4.61 1.56 5.952 2.867l.698-.716c-1.512-1.473-3.429-2.452-6.431-3.127-2.986-.671-7.079-1.047-12.969-1.296l-.042.999zm18.744 4.14c1.183 1.153 2.59 3.396 3.203 4.841l.921-.39c-.652-1.537-2.127-3.902-3.426-5.167l-.698.716zm3.203 4.841c.615 1.454 1.166 3.141 1.389 5.624l.996-.09c-.234-2.604-.816-4.393-1.464-5.924l-.921.39zm1.389 5.624c.225 2.518.229 4.183.229 7.83h1c0-3.644-.003-5.351-.233-7.92l-.996.09z" fill="#455A64"/><path d="M233.597 64.54c0 2.302-.274 3.657-1.001 5.657-.476 1.311-.938 1.87-1.933 2.865-.498.498-.995.83-1.658 1.327-.664.498-1.824 1.16-3.483 1.658" stroke="#455A64" stroke-miterlimit="10"/></svg>