<svg width="176" height="69" fill="none" xmlns="http://www.w3.org/2000/svg"><path fill-rule="evenodd" clip-rule="evenodd" d="M106.064 6.72H81.336v38.983h24.728V6.719zM80.617 6v40.421h26.166V6.001H80.617z" fill="#455A64"/><path fill-rule="evenodd" clip-rule="evenodd" d="M84.655 15.012h-.95v24.195h.95V15.012zm-1.669-.719v25.633h2.387V14.293h-2.387zm5.055.719h-.95v24.195h.95V15.012zm-1.668-.719v25.633h2.387V14.293h-2.387zm5.055.719h-.95v24.195h.95V15.012zm-1.668-.719v25.633h2.387V14.293H89.76zm5.055.719h-.95v24.195h.95V15.012zm-1.668-.719v25.633h2.387V14.293h-2.388zm5.055.719h-.95v24.195h.95V15.012zm-1.669-.719v25.633h2.387V14.293h-2.387zm5.055.719h-.949v24.195h.949V15.012zm-1.668-.719v25.633h2.387V14.293H99.92z" fill="#455A64"/><path fill-rule="evenodd" clip-rule="evenodd" d="M12.215.612h97.696l9.563 7.583v7.571h-.719V8.543l-9.094-7.212H12.934v4.945h-.72V.612z" fill="#455A64"/><path fill-rule="evenodd" clip-rule="evenodd" d="M106.064 6.72H.74v60.95h105.324V6.72zM.021 6v62.388h106.762V6.001H.021z" fill="#455A64"/><path fill-rule="evenodd" clip-rule="evenodd" d="M103.971 8.68H2.834v57.028h101.137V8.68zM2.115 7.963v58.464H104.69V7.962H2.115z" fill="#455A64"/><path fill-rule="evenodd" clip-rule="evenodd" d="M106.064 6.72H81.336v60.95h24.728V6.72zM80.617 6v62.388h26.166V6.001H80.617z" fill="#455A64"/><path fill-rule="evenodd" clip-rule="evenodd" d="M110.073 11.34h-3.258v50.403h3.258V11.34zm-3.976-.719v51.84h4.694v-51.84h-4.694zm31.511-1.061h-15.939v5.488h15.939V9.559zm-16.658-.72v6.926h17.377V8.84H120.95z" fill="#455A64"/><path fill-rule="evenodd" clip-rule="evenodd" d="M162.255 15.796h-51.423v41.49h51.423c6.748 0 12.218-5.47 12.218-12.218V28.015c0-6.748-5.47-12.219-12.218-12.219zm-52.142-.718v42.927h52.142c7.145 0 12.937-5.792 12.937-12.937V28.015c0-7.145-5.792-12.937-12.937-12.937h-52.142z" fill="#455A64"/><path fill-rule="evenodd" clip-rule="evenodd" d="M154.901 57.595V15.511h.719v42.084h-.719zm-36.146 0V15.511h.719v42.084h-.719z" fill="#455A64"/><path fill-rule="evenodd" clip-rule="evenodd" d="M119.113 18.799h36.148v.719h-36.148v-.72zM0 15.407h80.617v.719H0v-.719zm0 41.829h80.617v.718H0v-.718zm119.113-34.125h36.148v.719h-36.148v-.719zm0 4.313h36.148v.718h-36.148v-.718zm0 4.312h36.148v.719h-36.148v-.719zm0 4.312h36.148v.72h-36.148v-.72zm0 4.312h36.148v.72h-36.148v-.72zm0 4.313h36.148v.719h-36.148v-.719zm0 4.312h36.148v.72h-36.148v-.72zm0 4.313h36.148v.718h-36.148v-.718zM85.07 5.47c.188-.292.328-.74.328-1.272 0-.531-.14-.98-.328-1.272-.193-.3-.373-.357-.462-.357-.09 0-.27.057-.463.357-.188.293-.328.74-.328 1.272s.14.98.328 1.272c.193.3.374.358.463.358.088 0 .269-.057.462-.358zm-.462 1.077c.833 0 1.508-1.052 1.508-2.349 0-1.297-.675-2.348-1.508-2.348-.834 0-1.51 1.051-1.51 2.348s.676 2.349 1.51 2.349zm41.099 7.193a1.437 1.437 0 1 0 0-2.873 1.437 1.437 0 0 0 0 2.874zm0 .72a2.156 2.156 0 1 0 0-4.312 2.156 2.156 0 0 0 0 4.312zm7.467-.72a1.437 1.437 0 1 0 0-2.873 1.437 1.437 0 0 0 0 2.874zm0 .72a2.156 2.156 0 1 0 0-4.312 2.156 2.156 0 0 0 0 4.312z" fill="#455A64"/></svg>