<svg width="83" height="75" fill="none" xmlns="http://www.w3.org/2000/svg"><path fill-rule="evenodd" clip-rule="evenodd" d="M38.754 14.368a17.443 17.443 0 0 0-1.035-3.312.151.151 0 0 1 .075-.198.148.148 0 0 1 .197.073 17.74 17.74 0 0 1 1.056 3.377c.3 1.455.435 3.079.09 4.466v.004c-.502 1.798-1.372 3.063-2.459 3.918-1.085.854-2.378 1.291-3.714 1.451-2.669.32-5.535-.461-7.359-1.278l-.009-.004-.008-.005c-1.133-.694-2.101-.988-2.92-1.014a3.312 3.312 0 0 0-2.05.6c-1.066.743-1.69 2.042-1.949 3.071-.02.08-.1.131-.18.113a.146.146 0 0 1-.111-.178c.267-1.071.92-2.45 2.07-3.252a3.61 3.61 0 0 1 2.23-.653c.881.028 1.897.343 3.058 1.053 1.795.802 4.6 1.561 7.192 1.25 1.296-.155 2.533-.577 3.565-1.39 1.031-.81 1.868-2.018 2.354-3.76.329-1.324.204-2.896-.093-4.332z" fill="#FBC02D" stroke="#000" stroke-width="3"/><path fill-rule="evenodd" clip-rule="evenodd" d="M57.629 22.78a17.417 17.417 0 0 0 2.333-2.545.151.151 0 0 1 .21-.035.148.148 0 0 1 .034.208 17.719 17.719 0 0 1-2.378 2.595c-1.1.984-2.432 1.91-3.805 2.305h-.004c-1.807.466-3.338.346-4.622-.167-1.282-.513-2.308-1.413-3.115-2.49-1.612-2.15-2.37-5.023-2.575-7.011l-.001-.01v-.01c.035-1.328-.196-2.313-.582-3.035a3.312 3.312 0 0 0-1.545-1.474c-1.178-.552-2.614-.443-3.635-.151a.152.152 0 0 1-.188-.1.146.146 0 0 1 .098-.186c1.062-.304 2.582-.429 3.852.166a3.611 3.611 0 0 1 1.681 1.604c.417.777.652 1.814.618 3.174.204 1.956.95 4.764 2.516 6.853.783 1.044 1.767 1.904 2.987 2.392 1.218.487 2.682.608 4.434.157 1.31-.378 2.6-1.269 3.687-2.24z" fill="#FBC02D" stroke="#000" stroke-width="3"/><path fill-rule="evenodd" clip-rule="evenodd" d="M59.803 43.424a17.41 17.41 0 0 0 3.386.757.151.151 0 0 1 .135.164.148.148 0 0 1-.162.134 17.74 17.74 0 0 1-3.453-.771c-1.41-.466-2.885-1.161-3.914-2.152l-.002-.002-.001-.001c-1.307-1.333-1.969-2.718-2.167-4.087-.197-1.367.07-2.705.598-3.943 1.055-2.471 3.164-4.564 4.783-5.736l.008-.006.008-.005c1.167-.634 1.905-1.326 2.337-2.022.43-.695.562-1.4.504-2.076-.112-1.295-.925-2.484-1.688-3.223a.152.152 0 0 1-.007-.212.146.146 0 0 1 .21-.008c.794.767 1.662 2.021 1.783 3.418a3.611 3.611 0 0 1-.548 2.258c-.465.75-1.244 1.472-2.44 2.123-1.59 1.155-3.65 3.206-4.675 5.607-.513 1.2-.765 2.482-.577 3.783.188 1.298.816 2.626 2.083 3.918.982.945 2.407 1.622 3.799 2.082z" fill="#FBC02D" stroke="#000" stroke-width="3"/><path fill-rule="evenodd" clip-rule="evenodd" d="M43.088 55.575c.28 1.34.71 2.544 1.04 3.292a.151.151 0 0 1-.074.2.148.148 0 0 1-.197-.075 17.71 17.71 0 0 1-1.061-3.356c-.303-1.446-.44-3.06-.096-4.447v-.004c.5-1.799 1.369-3.065 2.455-3.92 1.085-.856 2.377-1.295 3.713-1.456 2.668-.323 5.535.456 7.36 1.27l.009.005.008.005c1.134.693 2.102.986 2.92 1.011a3.312 3.312 0 0 0 2.05-.602c1.066-.745 1.688-2.043 1.946-3.073.02-.08.1-.131.18-.113.08.018.132.097.112.177-.267 1.072-.918 2.452-2.067 3.255a3.612 3.612 0 0 1-2.23.655c-.881-.027-1.897-.34-3.059-1.05-1.796-.8-4.601-1.557-7.193-1.243-1.296.156-2.532.58-3.564 1.393-1.03.812-1.866 2.02-2.35 3.763-.327 1.324-.2 2.886.098 4.313z" fill="#FBC02D" stroke="#000" stroke-width="3"/><path fill-rule="evenodd" clip-rule="evenodd" d="M24.02 47.485a17.452 17.452 0 0 0-2.31 2.59.151.151 0 0 1-.209.038.148.148 0 0 1-.038-.207 17.747 17.747 0 0 1 2.355-2.64c1.094-1.006 2.42-1.955 3.786-2.371l.002-.001h.002c1.8-.494 3.332-.397 4.624.097 1.29.493 2.33 1.377 3.153 2.442 1.645 2.125 2.446 4.986 2.682 6.97v.02c-.013 1.328.232 2.31.63 3.026.396.714.95 1.173 1.567 1.45 1.186.534 2.62.403 3.637.096a.152.152 0 0 1 .19.097.146.146 0 0 1-.096.187c-1.057.32-2.575.468-3.854-.107a3.61 3.61 0 0 1-1.706-1.578c-.428-.77-.68-1.804-.666-3.165-.234-1.952-1.023-4.749-2.62-6.813-.8-1.032-1.797-1.877-3.024-2.346-1.225-.468-2.691-.567-4.436-.089-1.304.398-2.589 1.313-3.669 2.304z" fill="#FBC02D" stroke="#000" stroke-width="3"/><path fill-rule="evenodd" clip-rule="evenodd" d="M21.764 26.704c-1.199-.529-2.344-.858-3.134-.947a.154.154 0 0 1-.137-.164.146.146 0 0 1 .16-.135c.833.093 2.013.435 3.231.973 1.294.57 2.646 1.367 3.682 2.335l.002.002.002.001c1.327 1.312 2.01 2.687 2.229 4.052.218 1.364-.027 2.707-.537 3.952-1.017 2.488-3.093 4.612-4.694 5.81l-.008.006-.008.004c-1.158.653-1.885 1.356-2.306 2.059-.42.7-.54 1.409-.471 2.082.131 1.294.962 2.47 1.737 3.197.06.057.065.151.01.213a.146.146 0 0 1-.21.01c-.806-.754-1.693-1.995-1.835-3.39a3.611 3.611 0 0 1 .513-2.266c.453-.756 1.221-1.49 2.407-2.16 1.573-1.18 3.6-3.261 4.588-5.678.494-1.208.727-2.494.518-3.791-.207-1.295-.855-2.614-2.142-3.886-1.005-.937-2.324-1.717-3.597-2.279z" fill="#FBC02D" stroke="#000" stroke-width="3"/></svg>