<svg width="95" height="93" fill="none" xmlns="http://www.w3.org/2000/svg"><path fill-rule="evenodd" clip-rule="evenodd" d="M79.975 31.567c.664.623 1.083 1.27 1.156 1.865l-.297.037c-.06-.494-.42-1.08-1.064-1.684-.64-.602-1.546-1.207-2.665-1.74-2.238-1.069-5.31-1.846-8.769-1.754-.873.023-1.582-.393-2.075-1.143-.489-.744-.766-1.816-.806-3.124v-.004c.001-4.769-.983-8.83-2.702-11.657-1.716-2.824-4.156-4.41-7.081-4.272l-.015-.298c3.063-.145 5.595 1.523 7.352 4.415 1.755 2.888 2.746 7.006 2.745 11.81.039 1.275.31 2.285.757 2.966.444.675 1.06 1.028 1.817 1.008 3.507-.093 6.626.694 8.905 1.782 1.14.544 2.074 1.165 2.742 1.793z" fill="#FBC02D" stroke="#F1AC00" stroke-width="3"/><path fill-rule="evenodd" clip-rule="evenodd" d="M53.766 8.324c.795-.445 1.537-.649 2.128-.538l-.055.294c-.49-.092-1.156.073-1.928.505-.767.428-1.617 1.109-2.464 2.014-1.695 1.81-3.364 4.503-4.323 7.828-.242.84-.852 1.389-1.717 1.632-.857.241-1.963.182-3.22-.176h-.003l-.002-.001c-4.545-1.443-8.714-1.732-11.928-.95-3.212.783-5.46 2.629-6.213 5.46l-.29-.078c.79-2.962 3.144-4.871 6.432-5.672 3.283-.8 7.509-.5 12.087.954 1.227.349 2.272.396 3.056.175.778-.219 1.301-.7 1.511-1.427.971-3.37 2.665-6.106 4.391-7.95.863-.921 1.738-1.623 2.538-2.07zm12.52 55.211c-.377.83-.855 1.434-1.395 1.695l-.13-.27c.448-.216.887-.744 1.253-1.548.364-.8.645-1.852.791-3.084.293-2.461.042-5.62-1.157-8.867-.302-.819-.136-1.623.416-2.331.548-.703 1.474-1.31 2.7-1.768h.002l.002-.001c4.516-1.53 8.045-3.768 10.17-6.304 2.124-2.532 2.632-5.33 1.562-8.057l.5-.021c1.12 2.854.342 5.677-1.832 8.27-2.171 2.59-5.753 4.852-10.302 6.394-1.195.447-2.064 1.028-2.566 1.67-.497.637-.633 1.335-.37 2.045 1.214 3.29 1.47 6.498 1.172 9.006-.149 1.254-.437 2.337-.816 3.171z" fill="#FBC02D" stroke="#F1AC00" stroke-width="3"/><path fill-rule="evenodd" clip-rule="evenodd" d="M31.383 60.144c-.903-.116-1.621-.393-2.03-.834l.219-.203c.338.364.972.628 1.85.74.87.112 1.96.07 3.179-.153 2.438-.447 5.382-1.62 8.13-3.722.694-.531 1.512-.61 2.351-.291.833.316 1.686 1.021 2.485 2.057l.001.002.002.002c2.795 3.863 5.974 6.575 9.024 7.858 3.047 1.28 5.952 1.134 8.241-.694l.187.234c-2.396 1.913-5.425 2.047-8.544.735-3.115-1.31-6.333-4.065-9.15-7.956-.778-1.01-1.59-1.67-2.352-1.959-.755-.286-1.462-.211-2.063.25-2.786 2.131-5.774 3.322-8.258 3.778-1.242.228-2.363.272-3.272.156z" fill="#FBC02D" stroke="#F1AC00" stroke-width="3"/><path fill-rule="evenodd" clip-rule="evenodd" d="M23.723 26.222c-.18-.893-.148-1.662.137-2.19l.263.141c-.236.438-.282 1.123-.107 1.99.175.86.564 1.878 1.167 2.961 1.207 2.166 3.262 4.577 6.137 6.504.725.486 1.063 1.235 1.03 2.133-.031.89-.425 1.925-1.15 3.014v.002l-.002.002c-2.76 3.888-4.307 7.77-4.542 11.07-.234 3.297.838 6.001 3.304 7.582l-.161.251c-2.581-1.654-3.681-4.479-3.441-7.854.24-3.371 1.815-7.304 4.595-11.22.706-1.063 1.07-2.043 1.099-2.858.029-.807-.27-1.452-.898-1.874-2.915-1.953-5.003-4.4-6.232-6.606-.615-1.103-1.017-2.15-1.199-3.048z" fill="#FBC02D" stroke="#F1AC00" stroke-width="3"/></svg>