<svg width="66" height="66" fill="none" xmlns="http://www.w3.org/2000/svg"><path d="M9.916 63.68l-7.119-7.118a2.722 2.722 0 0 1 0-3.849l18.841-18.841a2.721 2.721 0 0 1 3.85 0l7.118 7.118a2.721 2.721 0 0 1 0 3.85L13.764 63.68a2.721 2.721 0 0 1-3.848 0z" stroke="#000" stroke-width="3" stroke-miterlimit="10" stroke-linecap="round" stroke-linejoin="round"/><path d="M34.625 39.104l-1.037 1.046-.916.907-.484-.484-6.284-6.284-.484-.484.916-.907 1.037-1.046c.96-.96 2.506-.96 3.466 0l3.785 3.786c.96.96.96 2.507.001 3.466zM63.666 5.117L61.36 2.812" stroke="#000" stroke-width="3" stroke-miterlimit="10" stroke-linecap="round" stroke-linejoin="round"/><path d="M51.936 11.534L34.798 28.672l-3.57 3.57 3.008 3.007 3.57-3.57 17.138-17.138" stroke="#000" stroke-width="3" stroke-miterlimit="10" stroke-linecap="round" stroke-linejoin="round"/><path d="M54.94 14.541l3.888.272 5.186-9.347-3.003-3.003-9.347 5.186.272 3.888M22.129 28.5l-3.951-3.76m23.56 23.56l-3.61-3.8m9.962-2.535L41.13 35M31.129 24.5l-6.616-6.113m-6.334 6.349c-4.17 1.694-9.133.85-12.516-2.533a11.535 11.535 0 0 1-2.81-11.748m7.383-7.381a11.53 11.53 0 0 1 11.748 2.809c3.38 3.38 4.227 8.337 2.533 12.509M41.74 48.3c-1.693 4.17-.85 9.132 2.534 12.515a11.535 11.535 0 0 0 11.747 2.81M48.087 41.96a11.547 11.547 0 0 1 12.509 2.534 11.529 11.529 0 0 1 2.81 11.748" stroke="#000" stroke-width="3" stroke-miterlimit="10" stroke-linecap="round" stroke-linejoin="round"/><path d="M10.237 3.073l4.887 4.887a3.488 3.488 0 0 1 .003 4.936l-2.45 2.45a3.488 3.488 0 0 1-4.936-.003l-4.887-4.887M56.02 63.624l-4.886-4.887a3.488 3.488 0 0 1-.004-4.936l2.451-2.45a3.488 3.488 0 0 1 4.935.003l4.887 4.887" stroke="#000" stroke-width="3" stroke-miterlimit="10" stroke-linecap="round" stroke-linejoin="round"/></svg>