<svg width="71" height="71" fill="none" xmlns="http://www.w3.org/2000/svg"><path d="M12.287 65.68l-7.119-7.118a2.722 2.722 0 0 1 0-3.849L24.01 35.872a2.721 2.721 0 0 1 3.85 0l7.118 7.118a2.722 2.722 0 0 1 0 3.85L16.136 65.68a2.721 2.721 0 0 1-3.85 0z" stroke="#F1AC00" stroke-width="3" stroke-miterlimit="10" stroke-linecap="round" stroke-linejoin="round"/><path d="M36.996 41.104L35.96 42.15l-.916.907-.484-.484-6.284-6.284-.484-.484.916-.907 1.037-1.046c.96-.96 2.507-.96 3.466 0l3.785 3.786c.96.96.96 2.507.001 3.466zM66.037 7.117L63.73 4.812" stroke="#F1AC00" stroke-width="3" stroke-miterlimit="10" stroke-linecap="round" stroke-linejoin="round"/><path d="M54.307 13.534L37.17 30.672l-3.57 3.57 3.008 3.007 3.57-3.57 17.138-17.138" stroke="#F1AC00" stroke-width="3" stroke-miterlimit="10" stroke-linecap="round" stroke-linejoin="round"/><path d="M57.311 16.541l3.888.273 5.187-9.348-3.004-3.003-9.347 5.186.272 3.889m-25.6 21.36L20.55 26.74M44.11 50.3l-8.151-8.15m14.503 1.815L40.177 33.68m-3.009-3.008L26.884 20.388m-6.334 6.348c-4.17 1.694-9.133.851-12.516-2.533a11.535 11.535 0 0 1-2.81-11.748m7.383-7.381a11.53 11.53 0 0 1 11.748 2.81c3.38 3.379 4.227 8.337 2.533 12.508M44.111 50.3c-1.693 4.17-.85 9.132 2.534 12.515a11.535 11.535 0 0 0 11.747 2.81m-7.934-21.664c4.17-1.693 9.129-.847 12.509 2.533a11.53 11.53 0 0 1 2.81 11.748" stroke="#F1AC00" stroke-width="3" stroke-miterlimit="10" stroke-linecap="round" stroke-linejoin="round"/><path d="M12.608 5.074l4.887 4.887a3.488 3.488 0 0 1 .004 4.935l-2.451 2.45a3.488 3.488 0 0 1-4.935-.003l-4.887-4.887m53.166 53.168l-4.887-4.887a3.489 3.489 0 0 1-.004-4.935l2.451-2.451a3.488 3.488 0 0 1 4.936.003l4.886 4.887" stroke="#F1AC00" stroke-width="3" stroke-miterlimit="10" stroke-linecap="round" stroke-linejoin="round"/></svg>