<svg width="75" height="78" fill="none" xmlns="http://www.w3.org/2000/svg"><path d="M31.64 2.432c-1.992 0-3.632 1.66-3.632 3.618v.12c-6.914 3.5-11.25 10.5-11.25 18.152v2.314s0 .059-.117.059l-1.29.356c-.762.237-1.289.89-1.289 1.72v5.873c0 1.009.762 1.78 1.758 1.78h43.36c.996 0 1.758-.771 1.758-1.78v-5.873c0-.77-.527-1.424-1.29-1.661l-1.289-.356c-.058 0-.117-.059-.117-.059v-2.373c0-7.652-4.394-14.652-11.19-18.152v-.12c0-2.017-1.642-3.618-3.634-3.618H31.64zm-.116 3.56H43.3c.117 0 .117.058.117.058v1.306c0 .119 0 .237.058.356v8.187c0 1.008.762 1.78 1.758 1.78s1.758-.772 1.758-1.78l.06-5.674c3.751 3.424 7.586 5.674 7.586 14.215v2.314c0 .237.059.475.059.713h-24.99c-.997 0-1.758.77-1.758 1.78 0 1.008.761 1.779 1.758 1.779h27.087v1.898H17.578v-2.729c1.582-.415 2.637-1.898 2.637-3.5v-2.373c0-5.695 2.93-10.974 7.675-14.059v5.517c0 1.008.762 1.78 1.758 1.78s1.758-.772 1.758-1.78V6.05c0-.059.06-.059.118-.059zM19.947 39.094a1.6 1.6 0 0 0-.67.117c-.937.356-1.406 1.365-1.055 2.255C24.61 59.56 33.81 61.517 37.5 61.517c3.691 0 12.89-1.957 19.336-20.05a1.745 1.745 0 0 0-1.055-2.255c-.938-.356-1.933.178-2.226 1.068C47.87 56.238 40.43 57.957 37.5 57.957c-2.93 0-10.372-1.72-15.997-17.677-.263-.712-.889-1.157-1.556-1.185zm10.287 21.889c-.058 0-.116 0-.175.059H30c-.058 0-.058 0-.058.059h-.117L16.817 66.44c-.879.356-1.347 1.424-.937 2.314.293.712.938 1.127 1.64 1.127.235 0 .47-.06.645-.12l11.367-4.686c1.524 2.966 4.512 4.806 7.969 4.806 3.457 0 6.445-1.84 7.968-4.806l11.368 4.687c.234.118.468.12.644.12.703 0 1.348-.416 1.641-1.128.41-.89-.058-1.958-.937-2.314l-13.008-5.339h-.117c-.059 0-.058 0-.058-.06h-.06c-.059 0-.117.001-.175-.058h-.469c-.059 0-.117 0-.175.059-.059 0-.118 0-.177.059-.058 0-.117.06-.176.06-.058 0-.117.058-.117.058-.058 0-.116.06-.116.12-.059.059-.118.058-.118.118l-.117.119c-.059.06-.06.118-.118.118-.059.06-.058.118-.117.118-.058.06-.058.12-.116.179 0 0-.001.059-.06.059v.12c0 .059 0 .058-.058.117-.82 3.026-3.34 4.094-5.332 4.094s-4.511-1.068-5.332-4.094c0-.059 0-.059-.058-.059v-.119s-.001-.06-.06-.06c0-.058-.058-.117-.058-.176-.059-.06-.058-.12-.117-.179l-.118-.118c-.058-.06-.058-.12-.116-.12l-.117-.117c-.059-.06-.118-.06-.176-.12-.059 0-.058-.059-.117-.059-.059 0-.118-.059-.176-.059-.059 0-.117-.06-.117-.06-.059 0-.118-.058-.176-.058h-.528z" fill="#F1AC00"/></svg>