<svg width="28" height="32" fill="none" xmlns="http://www.w3.org/2000/svg"><path d="M26.433 26.262l-8.761-16.17a4.344 4.344 0 0 0 .344-1.7 4.372 4.372 0 0 0-4.05-4.353V.909h-.64v3.13a4.372 4.372 0 0 0-4.049 4.353c0 .868.258 1.676.696 2.357L1.568 26.262a1.378 1.378 0 0 0 .555 1.865l1.421.77-1.105 2.041.562.305 10.04-18.529c.198.028.4.047.606.047a4.34 4.34 0 0 0 1.24-.182L25 31.243l.563-.305-1.106-2.04 1.421-.77a1.379 1.379 0 0 0 .555-1.866zM3.849 28.335l-1.421-.77a.737.737 0 0 1-.297-.998L10.4 11.305a4.373 4.373 0 0 0 1.988 1.27l-8.539 15.76zM9.917 8.392a3.734 3.734 0 0 1 3.73-3.73 3.734 3.734 0 0 1 3.73 3.73 3.734 3.734 0 0 1-3.73 3.73 3.734 3.734 0 0 1-3.73-3.73zm15.656 19.173l-1.421.77-8.662-15.987a4.394 4.394 0 0 0 1.82-1.582l8.56 15.801a.738.738 0 0 1-.297.998z" stroke="#333"/></svg>